<?xml version="1.0" encoding="UTF-8" standalone="no"?>
<!-- Created with Inkscape (http://www.inkscape.org/) -->
<svg
   xmlns:dc="http://purl.org/dc/elements/1.1/"
   xmlns:cc="http://creativecommons.org/ns#"
   xmlns:rdf="http://www.w3.org/1999/02/22-rdf-syntax-ns#"
   xmlns:svg="http://www.w3.org/2000/svg"
   xmlns="http://www.w3.org/2000/svg"
   xmlns:sodipodi="http://sodipodi.sourceforge.net/DTD/sodipodi-0.dtd"
   xmlns:inkscape="http://www.inkscape.org/namespaces/inkscape"
   width="64px"
   height="64px"
   id="svg9242"
   sodipodi:version="0.32"
   inkscape:version="0.46"
   sodipodi:docname="asc.svg"
   inkscape:output_extension="org.inkscape.output.svg.inkscape">
  <defs
     id="defs9244">
    <inkscape:perspective
       sodipodi:type="inkscape:persp3d"
       inkscape:vp_x="0 : 32 : 1"
       inkscape:vp_y="0 : 1000 : 0"
       inkscape:vp_z="64 : 32 : 1"
       inkscape:persp3d-origin="32 : 21.333333 : 1"
       id="perspective9250" />
  </defs>
  <sodipodi:namedview
     id="base"
     pagecolor="#ffffff"
     bordercolor="#666666"
     borderopacity="1.0"
     inkscape:pageopacity="0.0"
     inkscape:pageshadow="2"
     inkscape:zoom="5.5"
     inkscape:cx="12.024395"
     inkscape:cy="32"
     inkscape:current-layer="layer1"
     showgrid="true"
     inkscape:document-units="px"
     inkscape:grid-bbox="true"
     inkscape:window-width="1280"
     inkscape:window-height="970"
     inkscape:window-x="-4"
     inkscape:window-y="27" />
  <metadata
     id="metadata9247">
    <rdf:RDF>
      <cc:Work
         rdf:about="">
        <dc:format>image/svg+xml</dc:format>
        <dc:type
           rdf:resource="http://purl.org/dc/dcmitype/StillImage" />
      </cc:Work>
    </rdf:RDF>
  </metadata>
  <g
     id="layer1"
     inkscape:label="Layer 1"
     inkscape:groupmode="layer">
    <path
       transform="scale(0.7835452,1.2762506)"
       style="font-size:48.98353195px;font-style:normal;font-variant:normal;font-weight:normal;font-stretch:normal;text-align:start;line-height:125%;writing-mode:lr-tb;text-anchor:start;fill:#ff0000;fill-opacity:1;stroke:none;stroke-width:1px;stroke-linecap:butt;stroke-linejoin:miter;stroke-opacity:1;font-family:StarFont Serif;-inkscape-font-specification:StarFont Serif"
       d="M 52.081356,11.751266 L 51.387741,11.751266 C 50.973123,9.774098 50.351262,8.4107881 49.522158,7.6613326 C 48.692967,6.8959994 47.736258,6.513316 46.652029,6.5132811 C 45.567719,6.513316 44.746544,6.8083011 44.188502,7.3982374 C 43.630384,7.9722967 43.351344,8.5861847 43.351381,9.2399034 C 43.351344,10.595273 43.973204,11.623735 45.216964,12.325292 L 49.880924,15.075832 C 51.044876,15.777445 51.929831,16.502949 52.535793,17.252346 C 53.141662,18.001792 53.44462,18.958501 53.444667,20.122475 C 53.44462,21.03137 53.253278,21.844572 52.870641,22.562085 C 52.487911,23.26369 51.993612,23.845688 51.387741,24.30808 C 50.781781,24.770506 50.112085,25.121299 49.378651,25.36046 C 48.645132,25.599654 47.9276,25.719242 47.226055,25.719226 C 46.540372,25.719242 45.639472,25.591681 44.52335,25.336543 C 43.407152,25.065491 42.65773,24.929958 42.275082,24.929941 C 41.844528,24.929958 41.517652,25.089409 41.294455,25.408296 L 40.768265,25.408296 L 40.768265,18.759164 L 41.437961,18.759164 C 41.8525,20.545043 42.418553,21.996051 43.136121,23.112193 C 43.869561,24.228371 45.153145,24.786451 46.986877,24.786435 C 47.847874,24.786451 48.637159,24.531329 49.354733,24.021067 C 50.088167,23.51084 50.454905,22.70561 50.454949,21.605375 C 50.454905,20.361674 49.721429,19.293349 48.254517,18.400398 L 45.767072,16.989251 C 44.794379,16.479031 43.933341,15.936896 43.183956,15.362845 C 42.434498,14.788846 41.836555,14.11915 41.390126,13.353755 C 40.943627,12.572471 40.720395,11.695488 40.720429,10.722803 C 40.720395,9.8777414 40.935654,9.0565665 41.366208,8.2592761 C 41.812637,7.4620521 42.490306,6.8083011 43.399216,6.2980214 C 44.323997,5.7878119 45.440158,5.5326896 46.7477,5.5326537 C 47.528971,5.5326896 48.342174,5.6682233 49.187309,5.9392553 C 50.048304,6.1944131 50.550576,6.3219742 50.694127,6.3219391 C 50.981095,6.3219742 51.2123,6.1864405 51.387741,5.9153375 L 51.890014,5.9153375 L 52.081356,11.751266 M 72.172258,18.567822 L 72.746283,18.950506 C 71.614112,21.3423 70.346473,23.072348 68.943363,24.140656 C 67.556073,25.193052 65.969531,25.719242 64.183732,25.719226 C 63.242911,25.719242 62.31012,25.535873 61.385357,25.169118 C 60.476428,24.786451 59.607418,24.188508 58.778323,23.375288 C 57.965068,22.562104 57.31929,21.549587 56.840986,20.337735 C 56.378526,19.125925 56.147322,17.71478 56.147372,16.104295 C 56.147322,14.382245 56.418389,12.867456 56.960575,11.559924 C 57.502659,10.236507 58.236136,9.1283196 59.161007,8.2353583 C 60.101718,7.3265183 61.130179,6.6488497 62.246395,6.2023504 C 63.378445,5.7559216 64.54244,5.5326896 65.738385,5.5326537 C 66.519638,5.5326896 67.340813,5.6602508 68.201913,5.9153375 C 69.078834,6.1545502 69.78042,6.4495354 70.306674,6.8002939 C 70.86469,7.1989572 71.311154,7.6932566 71.646067,8.2831938 C 71.996795,8.8731973 72.172192,9.3754694 72.172258,9.7900115 C 72.172192,10.348123 71.996795,10.80256 71.646067,11.153323 C 71.295209,11.504146 70.800909,11.687515 70.163167,11.703431 C 69.668804,11.70346 69.230313,11.504146 68.847692,11.105487 C 68.464946,10.706889 68.217796,10.252452 68.106242,9.742176 L 67.795311,8.7615486 C 67.587963,7.9962144 67.33284,7.4700246 67.029943,7.1829778 C 66.726925,6.8959994 66.057229,6.7524931 65.020853,6.7524585 C 64.287318,6.7524931 63.498033,6.9757252 62.652997,7.4221552 C 61.807848,7.8686532 61.058426,8.6579379 60.404729,9.7900115 C 59.750924,10.922148 59.424049,12.460855 59.424102,14.406135 C 59.424049,15.968786 59.711062,17.379932 60.285141,18.639575 C 60.875057,19.899265 61.672314,20.871918 62.676915,21.55754 C 63.697348,22.243201 64.82148,22.586021 66.049316,22.586002 C 67.436484,22.586021 68.576562,22.251173 69.469553,21.581457 C 70.378363,20.895836 71.279264,19.891292 72.172258,18.567822 M 49.139474,43.585778 L 49.139474,44.662077 L 34.334393,44.662077 L 34.334393,43.585778 C 35.673757,43.585776 36.678301,43.450243 37.348028,43.179177 C 38.017693,42.924053 38.352541,42.310165 38.352573,41.337511 C 38.352541,40.875102 38.22498,40.269186 37.969889,39.519763 C 37.73068,38.770343 37.499476,38.164427 37.276275,37.702014 L 34.884501,32.129181 L 19.6489,32.129181 L 16.994031,38.897901 C 16.675117,39.63138 16.515666,40.380802 16.515676,41.146169 C 16.515666,42.198549 16.906322,42.868245 17.687645,43.155259 C 18.468946,43.44227 19.401737,43.585776 20.486021,43.585778 L 20.486021,44.662077 L 8.9337525,44.662077 L 8.9337525,43.585778 C 10.097745,43.521996 11.086344,43.083504 11.899552,42.270303 C 12.77653,41.297648 14.20362,38.539138 16.180828,33.994765 L 28.211451,5.4848182 L 29.455174,5.4848182 L 43.901489,38.539135 C 44.427641,39.703134 44.85816,40.572144 45.193047,41.146169 C 45.527856,41.720194 45.886622,42.182604 46.269345,42.533398 C 46.651988,42.900135 47.034672,43.147285 47.417396,43.274848 C 47.815984,43.402407 48.390009,43.506051 49.139474,43.585778 M 20.629527,29.737407 L 34.04738,29.737407 L 27.302577,13.712521 L 20.629527,29.737407 M 56.434385,29.28297 C 58.491258,27.94359 60.316977,27.273894 61.911547,27.27388 C 62.533352,27.273894 63.075487,27.337674 63.537953,27.465221 C 64.414879,27.656577 65.076603,27.991425 65.523126,28.469767 C 65.969531,28.932189 66.192763,29.498241 66.192823,30.167926 C 66.192763,30.48684 66.144927,30.813716 66.049316,31.148553 C 65.857915,31.658808 65.531039,32.081355 65.068689,32.416194 C 64.606221,32.751051 64.095976,32.918475 63.537953,32.918466 C 63.39439,32.918475 63.14724,32.886584 62.796503,32.822795 C 62.174586,32.679298 61.688259,32.424175 61.337521,32.057428 C 60.986673,31.674754 60.627907,31.26018 60.261223,30.813705 C 59.894431,30.351307 59.503775,30.072267 59.089254,29.976584 C 58.307889,29.976596 57.654138,30.088212 57.127999,30.311433 C 56.809045,30.439005 56.035706,30.76588 54.807978,31.29206 C 53.580154,31.81826 52.647363,32.177026 52.009603,32.368358 C 51.371751,32.559709 50.789753,32.65538 50.263608,32.655371 C 50.024386,32.65538 49.617785,32.591599 49.043803,32.464029 C 47.36952,32.12919 46.5324,31.284097 46.53244,29.928749 C 46.5324,29.562022 46.588208,29.219201 46.699864,28.900286 C 47.114398,27.688467 47.9276,27.082552 49.139474,27.082538 C 49.282937,27.082552 49.530087,27.114442 49.880924,27.178209 C 50.502741,27.337674 50.981095,27.608742 51.315988,27.991412 C 51.666736,28.358164 52.017529,28.764765 52.368369,29.211217 C 52.735061,29.657693 53.109772,29.92876 53.492503,30.02442 C 54.624561,30.024431 55.605187,29.777281 56.434385,29.28297"
       id="kamala" />
  </g>
</svg>
