<?xml version="1.0" encoding="UTF-8" standalone="no"?>
<!-- Created with Inkscape (http://www.inkscape.org/) -->
<svg
   xmlns:dc="http://purl.org/dc/elements/1.1/"
   xmlns:cc="http://creativecommons.org/ns#"
   xmlns:rdf="http://www.w3.org/1999/02/22-rdf-syntax-ns#"
   xmlns:svg="http://www.w3.org/2000/svg"
   xmlns="http://www.w3.org/2000/svg"
   xmlns:sodipodi="http://sodipodi.sourceforge.net/DTD/sodipodi-0.dtd"
   xmlns:inkscape="http://www.inkscape.org/namespaces/inkscape"
   width="64px"
   height="64px"
   id="svg3364"
   sodipodi:version="0.32"
   inkscape:version="0.46"
   sodipodi:docname="biquintile.svg"
   inkscape:output_extension="org.inkscape.output.svg.inkscape">
  <defs
     id="defs3366">
    <inkscape:perspective
       sodipodi:type="inkscape:persp3d"
       inkscape:vp_x="0 : 32 : 1"
       inkscape:vp_y="0 : 1000 : 0"
       inkscape:vp_z="64 : 32 : 1"
       inkscape:persp3d-origin="32 : 21.333333 : 1"
       id="perspective3372" />
  </defs>
  <sodipodi:namedview
     id="base"
     pagecolor="#ffffff"
     bordercolor="#666666"
     borderopacity="1.0"
     inkscape:pageopacity="0.0"
     inkscape:pageshadow="2"
     inkscape:zoom="11"
     inkscape:cx="32.361959"
     inkscape:cy="32"
     inkscape:current-layer="layer1"
     showgrid="true"
     inkscape:document-units="px"
     inkscape:grid-bbox="true"
     inkscape:window-width="1280"
     inkscape:window-height="967"
     inkscape:window-x="-5"
     inkscape:window-y="-3" />
  <metadata
     id="metadata3369">
    <rdf:RDF>
      <cc:Work
         rdf:about="">
        <dc:format>image/svg+xml</dc:format>
        <dc:type
           rdf:resource="http://purl.org/dc/dcmitype/StillImage" />
      </cc:Work>
    </rdf:RDF>
  </metadata>
  <g
     id="layer1"
     inkscape:label="Layer 1"
     inkscape:groupmode="layer">
    <path
       transform="scale(0.773702,1.2924873)"
       style="font-size:43.65128708px;font-style:normal;font-variant:normal;font-weight:normal;font-stretch:normal;text-align:start;line-height:125%;writing-mode:lr-tb;text-anchor:start;fill:#0080ff;fill-opacity:1;stroke:none;stroke-width:1px;stroke-linecap:butt;stroke-linejoin:miter;stroke-opacity:1;font-family:Luxi Serif;-inkscape-font-specification:Luxi Serif"
       d="M 24.841161,21.401494 C 27.398835,21.756745 29.37394,22.325121 30.766483,23.106622 C 33.309941,24.541785 34.581681,26.786869 34.581707,29.84188 C 34.581681,32.243274 33.764641,34.147332 32.130585,35.55406 C 30.425435,37.017629 27.199903,37.749413 22.453982,37.749413 L 9.0474096,37.749413 L 9.0474096,36.427938 L 9.4523776,36.406624 L 10.880423,36.300053 C 11.960333,36.214799 12.571337,35.880878 12.713436,35.29829 C 12.898153,34.417311 12.990514,33.394235 12.990519,32.229059 L 12.990519,11.72489 C 12.990514,10.886562 12.940781,10.090837 12.84132,9.3377105 C 12.756059,8.7835728 12.656593,8.4212334 12.542923,8.2506912 C 12.287149,7.8812766 11.732983,7.6752404 10.880423,7.6325821 L 9.4523776,7.5473257 L 9.0474096,7.5046975 L 9.0474096,6.2045371 L 23.072091,6.2045371 C 26.297607,6.2045687 28.507167,6.5100705 29.700777,7.1210436 C 32.087933,8.3430817 33.281522,10.382129 33.281547,13.238192 C 33.281522,15.440672 32.620785,17.22395 31.299335,18.588032 C 30.361492,19.568499 29.096857,20.307387 27.505425,20.804699 C 26.92282,20.989438 26.034733,21.188369 24.841161,21.401494 M 17.402539,22.104859 L 17.402539,32.229059 L 17.466481,34.083386 C 17.5091,35.149094 17.871439,35.788517 18.5535,36.001656 C 19.178703,36.200589 20.201779,36.300055 21.622732,36.300053 C 27.15017,36.300055 29.913897,34.168646 29.913918,29.905822 C 29.913897,26.737136 28.713203,24.591518 26.311835,23.468962 C 24.450386,22.602204 21.480624,22.147503 17.402539,22.104859 M 17.402539,20.6555 L 19.768404,20.6555 C 22.965505,20.655517 25.246112,20.122665 26.610232,19.056942 C 27.988524,17.991257 28.67768,16.200874 28.6777,13.685788 C 28.67768,11.085494 27.86064,9.3945765 26.226578,8.613031 C 24.862459,7.9594282 22.631585,7.6326123 19.533949,7.6325821 L 17.402539,7.6325821 L 17.402539,20.6555 M 73.671776,41.458067 L 68.385878,44.101016 C 64.805081,43.049515 60.98986,41.280446 56.940204,38.793804 L 56.066325,38.260951 C 54.986393,38.445673 53.949108,38.538034 52.954466,38.538034 C 48.620587,38.538034 45.196124,37.060257 42.681067,34.104701 C 40.166,31.134942 38.908469,27.092371 38.908471,21.976975 C 38.908469,16.87582 40.166,12.840353 42.681067,9.8705632 C 45.196124,6.9008287 48.620587,5.4159476 52.954466,5.4159152 C 57.302523,5.4159476 60.734091,6.9008287 63.249179,9.8705632 C 65.750005,12.826144 67.000431,16.861611 67.000461,21.976975 C 67.000431,26.623461 65.927623,30.431577 63.782031,33.401335 C 62.332647,35.419073 60.393066,36.861326 57.963281,37.728098 C 61.330885,39.674785 66.567045,40.918106 73.671776,41.458067 M 52.97578,6.8439603 C 50.133887,6.8439912 47.888803,8.1796737 46.240523,10.851012 C 44.592225,13.522404 43.76808,17.174217 43.768087,21.806462 C 43.76808,26.154551 44.443026,29.650061 45.792927,32.293002 C 47.426998,35.49012 49.82128,37.088676 52.97578,37.088675 C 55.831852,37.088676 58.076935,35.745889 59.711037,33.060309 C 61.330885,30.37474 62.14082,26.680298 62.140845,21.976975 C 62.14082,17.245264 61.330885,13.543718 59.711037,10.872326 C 58.062726,8.1867784 55.817642,6.8439912 52.97578,6.8439603"
       id="kamala" />
  </g>
</svg>
