<?xml version="1.0" encoding="UTF-8" standalone="no"?>
<!-- Created with Inkscape (http://www.inkscape.org/) -->
<svg
   xmlns:dc="http://purl.org/dc/elements/1.1/"
   xmlns:cc="http://creativecommons.org/ns#"
   xmlns:rdf="http://www.w3.org/1999/02/22-rdf-syntax-ns#"
   xmlns:svg="http://www.w3.org/2000/svg"
   xmlns="http://www.w3.org/2000/svg"
   xmlns:sodipodi="http://sodipodi.sourceforge.net/DTD/sodipodi-0.dtd"
   xmlns:inkscape="http://www.inkscape.org/namespaces/inkscape"
   width="64px"
   height="64px"
   id="svg3736"
   sodipodi:version="0.32"
   inkscape:version="0.46"
   sodipodi:docname="cupido.svg"
   inkscape:output_extension="org.inkscape.output.svg.inkscape">
  <defs
     id="defs3738">
    <inkscape:perspective
       sodipodi:type="inkscape:persp3d"
       inkscape:vp_x="0 : 32 : 1"
       inkscape:vp_y="0 : 1000 : 0"
       inkscape:vp_z="64 : 32 : 1"
       inkscape:persp3d-origin="32 : 21.333333 : 1"
       id="perspective3744" />
  </defs>
  <sodipodi:namedview
     id="base"
     pagecolor="#ffffff"
     bordercolor="#666666"
     borderopacity="1.0"
     inkscape:pageopacity="0.0"
     inkscape:pageshadow="2"
     inkscape:zoom="5.5"
     inkscape:cx="-4.4659093"
     inkscape:cy="32"
     inkscape:current-layer="layer1"
     showgrid="true"
     inkscape:document-units="px"
     inkscape:grid-bbox="true"
     inkscape:window-width="1280"
     inkscape:window-height="970"
     inkscape:window-x="-4"
     inkscape:window-y="27" />
  <metadata
     id="metadata3741">
    <rdf:RDF>
      <cc:Work
         rdf:about="">
        <dc:format>image/svg+xml</dc:format>
        <dc:type
           rdf:resource="http://purl.org/dc/dcmitype/StillImage" />
      </cc:Work>
    </rdf:RDF>
  </metadata>
  <g
     id="layer1"
     inkscape:label="Layer 1"
     inkscape:groupmode="layer">
    <path
       transform="scale(1.0798485,0.9260559)"
       style="font-size:67.58953857px;font-style:normal;font-variant:normal;font-weight:normal;font-stretch:normal;text-align:start;line-height:125%;writing-mode:lr-tb;text-anchor:start;fill:#800080;fill-opacity:1;stroke:none;stroke-width:1px;stroke-linecap:butt;stroke-linejoin:miter;stroke-opacity:1;font-family:StarFont Serif;-inkscape-font-specification:StarFont Serif"
       d="M 38.46201,40.957674 C 39.628069,40.957691 40.574146,40.594661 41.300243,39.868585 C 42.026263,39.120542 42.389293,37.965448 42.389332,36.403301 C 42.389293,34.885199 42.004261,33.774109 41.234237,33.070028 C 40.464137,32.365995 39.540062,32.013967 38.46201,32.013942 C 37.383887,32.013967 36.470814,32.376996 35.722786,33.103031 C 34.974692,33.807112 34.600662,34.907201 34.600694,36.403301 C 34.600662,37.899443 34.974692,39.032535 35.722786,39.80258 C 36.470814,40.572659 37.383887,40.957691 38.46201,40.957674 M 34.270667,51.221515 L 10.277701,51.221515 L 10.277701,50.66047 C 12.103841,48.592309 13.676969,46.645151 14.997087,44.818991 C 16.339184,42.992855 17.307262,41.485733 17.901325,40.29762 C 18.51736,39.087539 18.957396,38.042455 19.221433,37.162363 C 19.50744,36.26031 19.727458,35.380239 19.881487,34.522147 C 20.277503,33.004047 20.475519,31.001885 20.475536,28.515655 C 20.475519,25.589447 20.035483,22.718214 19.155428,19.901949 C 18.297342,17.085758 16.735216,14.544553 14.469044,12.278324 C 14.117004,12.278369 13.720972,12.443382 13.280947,12.773365 C 12.862903,13.081434 12.466871,13.40046 12.092849,13.730443 C 11.71881,14.060513 11.311777,14.346537 10.871749,14.588514 C 10.453708,14.808574 9.9366657,14.918583 9.3206221,14.918541 C 8.4405446,14.918583 7.7474885,14.599557 7.2414517,13.961462 C 6.7354066,13.301452 6.4823861,12.520389 6.4823895,11.61827 C 6.4823861,10.342212 6.8344146,9.3521323 7.538476,8.6480268 C 8.2645304,7.9220165 9.2436096,7.5589871 10.475717,7.5589376 C 12.059838,7.5589871 13.346942,7.9220165 14.337033,8.6480268 C 18.187334,11.354294 21.201578,14.698565 23.379774,18.680849 C 25.579932,22.66321 26.779029,27.338588 26.977069,32.706998 C 26.779029,34.555172 26.460003,36.161302 26.019991,37.525393 C 25.579932,38.889523 24.908878,40.297637 24.006826,41.749739 C 23.104732,43.201872 21.72962,45.006018 19.881487,47.162183 L 19.881487,47.624221 L 34.270667,47.624221 C 34.864684,47.360209 35.161708,47.052184 35.16174,46.700145 L 35.16174,44.125934 C 35.161708,43.531899 34.776676,43.080862 34.006645,42.772823 C 32.884523,42.200791 31.98245,41.364723 31.300423,40.264618 C 30.61834,39.142544 30.277312,37.855439 30.277339,36.403301 C 30.277312,34.863197 30.651342,33.532089 31.399431,32.409974 C 32.169465,31.265906 33.170546,30.407837 34.402677,29.835763 C 35.656748,29.263744 37.009857,28.977721 38.46201,28.977693 C 39.936094,28.977721 41.289204,29.263744 42.521343,29.835763 C 43.753403,30.407837 44.743483,31.254905 45.491586,32.376971 C 46.261606,33.477085 46.646637,34.819194 46.646681,36.403301 C 46.646637,39.483571 45.381535,41.69475 42.85137,43.036845 C 42.081268,43.30088 41.696237,43.66391 41.696275,44.125934 L 41.696275,46.700145 C 41.696237,46.920173 41.795245,47.12919 41.993299,47.327196 C 42.213278,47.525222 42.499302,47.62423 42.85137,47.624221 C 44.721481,47.62423 46.118594,47.492219 47.042713,47.228188 C 47.988746,46.942175 48.813813,46.359128 49.517916,45.479045 C 50.243928,44.576984 51.024992,43.157869 51.861108,41.221696 L 52.785184,41.221696 L 50.210973,51.221515 L 42.521343,51.221515 C 42.323287,51.287527 42.136272,51.397536 41.960297,51.551543 C 41.784244,51.705561 41.696237,51.881575 41.696275,52.079586 L 41.696275,54.32377 C 41.762242,56.083915 41.993261,57.371019 42.389332,58.185086 C 42.807326,59.021153 43.434377,59.560196 44.270486,59.802219 C 45.128514,60.066237 46.481624,60.22025 48.329819,60.264256 L 48.329819,61.551362 L 28.792218,61.551362 L 28.792218,60.264256 C 30.75035,60.22025 32.158464,60.033235 33.016564,59.703211 C 33.874603,59.395183 34.44665,58.845138 34.732704,58.053075 C 35.018696,57.283012 35.161708,56.039911 35.16174,54.32377 L 35.16174,52.079586 C 35.161708,51.881575 35.0737,51.705561 34.897718,51.551543 C 34.721672,51.397536 34.512655,51.287527 34.270667,51.221515"
       id="kamala" />
  </g>
</svg>
