<?xml version="1.0" encoding="UTF-8" standalone="no"?>
<!-- Created with Inkscape (http://www.inkscape.org/) -->
<svg
   xmlns:dc="http://purl.org/dc/elements/1.1/"
   xmlns:cc="http://creativecommons.org/ns#"
   xmlns:rdf="http://www.w3.org/1999/02/22-rdf-syntax-ns#"
   xmlns:svg="http://www.w3.org/2000/svg"
   xmlns="http://www.w3.org/2000/svg"
   xmlns:sodipodi="http://sodipodi.sourceforge.net/DTD/sodipodi-0.dtd"
   xmlns:inkscape="http://www.inkscape.org/namespaces/inkscape"
   width="64px"
   height="64px"
   id="svg2383"
   sodipodi:version="0.32"
   inkscape:version="0.46"
   sodipodi:docname="cusp_12.svg"
   inkscape:output_extension="org.inkscape.output.svg.inkscape">
  <defs
     id="defs2385">
    <inkscape:perspective
       sodipodi:type="inkscape:persp3d"
       inkscape:vp_x="0 : 32 : 1"
       inkscape:vp_y="0 : 1000 : 0"
       inkscape:vp_z="64 : 32 : 1"
       inkscape:persp3d-origin="32 : 21.333333 : 1"
       id="perspective2391" />
  </defs>
  <sodipodi:namedview
     id="base"
     pagecolor="#ffffff"
     bordercolor="#666666"
     borderopacity="1.0"
     inkscape:pageopacity="0.0"
     inkscape:pageshadow="2"
     inkscape:zoom="5.5"
     inkscape:cx="16.363636"
     inkscape:cy="32"
     inkscape:current-layer="layer1"
     showgrid="true"
     inkscape:document-units="px"
     inkscape:grid-bbox="true"
     inkscape:window-width="1280"
     inkscape:window-height="967"
     inkscape:window-x="-5"
     inkscape:window-y="-3" />
  <metadata
     id="metadata2388">
    <rdf:RDF>
      <cc:Work
         rdf:about="">
        <dc:format>image/svg+xml</dc:format>
        <dc:type
           rdf:resource="http://purl.org/dc/dcmitype/StillImage" />
      </cc:Work>
    </rdf:RDF>
  </metadata>
  <g
     id="layer1"
     inkscape:label="Layer 1"
     inkscape:groupmode="layer">
    <path
       transform="scale(0.7292463,1.3712788)"
       style="font-size:50.45595932px;font-style:normal;font-variant:normal;font-weight:normal;font-stretch:normal;text-align:start;line-height:125%;writing-mode:lr-tb;text-anchor:start;fill:#0000ff;fill-opacity:1;stroke:none;stroke-width:1px;stroke-linecap:butt;stroke-linejoin:miter;stroke-opacity:1;font-family:Luxi Serif;-inkscape-font-specification:Luxi Serif"
       d="M 9.5989527,41.567039 L 9.5989527,40.039564 L 9.9438665,40.014927 L 11.003245,39.941017 C 12.037983,39.842472 13.007026,39.201919 13.910375,38.019355 L 16.152315,35.136861 L 24.898343,23.606886 L 16.743595,11.460993 L 14.772659,8.7263199 C 13.869309,7.4452457 12.924903,6.7718432 11.939439,6.7061106 L 10.707604,6.6568372 L 10.190233,6.6075638 L 10.190233,5.1047251 L 24.553429,5.1047251 L 24.553429,6.6075638 L 24.109968,6.6075638 L 22.385399,6.6322005 C 21.153553,6.6486599 20.537636,6.911451 20.537647,7.4205748 C 20.537636,7.6834002 20.907186,8.3075293 21.646298,9.2929639 C 21.777682,9.4572407 22.06511,9.8842764 22.508583,10.574072 L 23.099864,11.436357 L 29.037308,20.404115 L 36.181951,11.436357 C 37.972189,9.1862373 38.867321,7.8065835 38.867351,7.2973913 C 38.867321,6.9196633 38.358163,6.7061454 37.339876,6.6568372 L 36.132677,6.6075638 L 35.66458,6.6075638 L 35.66458,5.1047251 L 44.804795,5.1047251 L 44.804795,6.6075638 L 44.213515,6.6568372 C 42.70243,6.7554188 41.44596,7.5027312 40.4441,8.8987768 C 39.869213,9.6707586 39.212235,10.516618 38.473164,11.436357 L 30.36769,21.512767 L 39.360085,35.136861 L 41.503478,38.191812 C 42.226121,39.275829 42.940585,39.858897 43.646871,39.941017 L 44.952616,40.014927 L 45.420713,40.039564 L 45.420713,41.567039 L 31.451705,41.567039 L 31.451705,40.039564 L 31.870528,40.039564 L 33.373367,40.014927 C 34.80227,39.998505 35.516734,39.702864 35.51676,39.128006 C 35.516734,38.750246 35.180032,38.076844 34.506655,37.107797 L 33.151637,35.161498 L 26.327271,24.912631 L 18.566711,35.136861 L 18.123251,35.728142 L 17.729063,36.245513 L 17.45806,36.590426 L 17.211693,36.910703 C 16.291916,38.126117 15.832031,38.898066 15.832038,39.226553 C 15.832031,39.735713 16.489009,39.998505 17.802973,40.014927 L 19.281175,40.039564 L 19.798546,40.039564 L 19.798546,41.567039 L 9.5989527,41.567039 M 51.579888,35.186134 L 51.579888,11.48563 C 51.579882,10.516618 51.522396,9.5968485 51.407431,8.7263199 C 51.308879,8.0857992 51.193907,7.6669757 51.062517,7.4698482 C 50.766872,7.0428466 50.126318,6.8046921 49.140855,6.755384 L 47.490196,6.6568372 L 47.022099,6.6075638 L 47.022099,5.1047251 L 61.311384,5.1047251 L 61.311384,6.6075638 L 60.843287,6.6568372 L 59.167991,6.755384 C 57.936144,6.837541 57.238105,7.2235156 57.073872,7.9133088 C 56.860343,8.9645072 56.753584,10.15528 56.753595,11.48563 L 56.753595,35.186134 C 56.753584,36.155183 56.811069,37.074953 56.926052,37.945445 C 57.024587,38.569577 57.139558,38.980189 57.270965,39.17728 C 57.583018,39.587893 58.21536,39.826048 59.167991,39.891744 L 60.843287,40.014927 L 61.311384,40.039564 L 61.311384,41.567039 L 47.022099,41.567039 L 47.022099,40.039564 L 47.490196,40.014927 L 49.140855,39.891744 C 50.389109,39.793199 51.095361,39.407224 51.259611,38.733819 C 51.473123,37.715506 51.579882,36.532946 51.579888,35.186134 M 68.431389,35.186134 L 68.431389,11.48563 C 68.431383,10.516618 68.373898,9.5968485 68.258932,8.7263199 C 68.16038,8.0857992 68.045409,7.6669757 67.914019,7.4698482 C 67.618373,7.0428466 66.97782,6.8046921 65.992356,6.755384 L 64.341697,6.6568372 L 63.8736,6.6075638 L 63.8736,5.1047251 L 78.162885,5.1047251 L 78.162885,6.6075638 L 77.694788,6.6568372 L 76.019493,6.755384 C 74.787645,6.837541 74.089606,7.2235156 73.925373,7.9133088 C 73.711844,8.9645072 73.605085,10.15528 73.605096,11.48563 L 73.605096,35.186134 C 73.605085,36.155183 73.662571,37.074953 73.777553,37.945445 C 73.876089,38.569577 73.99106,38.980189 74.122467,39.17728 C 74.43452,39.587893 75.066861,39.826048 76.019493,39.891744 L 77.694788,40.014927 L 78.162885,40.039564 L 78.162885,41.567039 L 63.8736,41.567039 L 63.8736,40.039564 L 64.341697,40.014927 L 65.992356,39.891744 C 67.240611,39.793199 67.946862,39.407224 68.111112,38.733819 C 68.324625,37.715506 68.431383,36.532946 68.431389,35.186134"
       id="kamala"
       inkscape:label="#text2393" />
  </g>
</svg>
