<?xml version="1.0" encoding="UTF-8" standalone="no"?>
<!-- Created with Inkscape (http://www.inkscape.org/) -->
<svg
   xmlns:dc="http://purl.org/dc/elements/1.1/"
   xmlns:cc="http://creativecommons.org/ns#"
   xmlns:rdf="http://www.w3.org/1999/02/22-rdf-syntax-ns#"
   xmlns:svg="http://www.w3.org/2000/svg"
   xmlns="http://www.w3.org/2000/svg"
   xmlns:sodipodi="http://sodipodi.sourceforge.net/DTD/sodipodi-0.dtd"
   xmlns:inkscape="http://www.inkscape.org/namespaces/inkscape"
   width="64px"
   height="64px"
   id="svg2383"
   sodipodi:version="0.32"
   inkscape:version="0.46"
   sodipodi:docname="cusp_08.svg"
   inkscape:output_extension="org.inkscape.output.svg.inkscape">
  <defs
     id="defs2385">
    <inkscape:perspective
       sodipodi:type="inkscape:persp3d"
       inkscape:vp_x="0 : 32 : 1"
       inkscape:vp_y="0 : 1000 : 0"
       inkscape:vp_z="64 : 32 : 1"
       inkscape:persp3d-origin="32 : 21.333333 : 1"
       id="perspective2391" />
  </defs>
  <sodipodi:namedview
     id="base"
     pagecolor="#ffffff"
     bordercolor="#666666"
     borderopacity="1.0"
     inkscape:pageopacity="0.0"
     inkscape:pageshadow="2"
     inkscape:zoom="5.5"
     inkscape:cx="16.363636"
     inkscape:cy="32"
     inkscape:current-layer="layer1"
     showgrid="true"
     inkscape:document-units="px"
     inkscape:grid-bbox="true"
     inkscape:window-width="1280"
     inkscape:window-height="967"
     inkscape:window-x="-5"
     inkscape:window-y="-3" />
  <metadata
     id="metadata2388">
    <rdf:RDF>
      <cc:Work
         rdf:about="">
        <dc:format>image/svg+xml</dc:format>
        <dc:type
           rdf:resource="http://purl.org/dc/dcmitype/StillImage" />
      </cc:Work>
    </rdf:RDF>
  </metadata>
  <g
     id="layer1"
     inkscape:label="Layer 1"
     inkscape:groupmode="layer">
    <path
       transform="scale(0.7292463,1.3712788)"
       style="font-size:50.45595932px;font-style:normal;font-variant:normal;font-weight:normal;font-stretch:normal;text-align:start;line-height:125%;writing-mode:lr-tb;text-anchor:start;fill:#0000ff;fill-opacity:1;stroke:none;stroke-width:1px;stroke-linecap:butt;stroke-linejoin:miter;stroke-opacity:1;font-family:Luxi Serif;-inkscape-font-specification:Luxi Serif"
       d="M 14.156742,35.186134 L 14.156742,11.48563 C 14.156736,10.516618 14.09925,9.5968485 13.984285,8.7263199 C 13.885732,8.0857992 13.770761,7.6669757 13.639371,7.4698482 C 13.343726,7.0428466 12.703172,6.8046921 11.717708,6.755384 L 10.06705,6.6568372 L 9.5989523,6.6075638 L 9.5989523,5.1047251 L 23.888238,5.1047251 L 23.888238,6.6075638 L 23.42014,6.6568372 L 21.744845,6.755384 C 20.512998,6.837541 19.814959,7.2235156 19.650725,7.9133088 C 19.437196,8.9645072 19.330437,10.15528 19.330448,11.48563 L 19.330448,35.186134 C 19.330437,36.155183 19.387923,37.074953 19.502905,37.945445 C 19.601441,38.569577 19.716412,38.980189 19.847819,39.17728 C 20.159872,39.587893 20.792213,39.826048 21.744845,39.891744 L 23.42014,40.014927 L 23.888238,40.039564 L 23.888238,41.567039 L 9.5989523,41.567039 L 9.5989523,40.039564 L 10.06705,40.014927 L 11.717708,39.891744 C 12.965963,39.793199 13.672215,39.407224 13.836465,38.733819 C 14.049977,37.715506 14.156736,36.532946 14.156742,35.186134 M 31.008243,35.186134 L 31.008243,11.48563 C 31.008237,10.516618 30.950752,9.5968485 30.835786,8.7263199 C 30.737234,8.0857992 30.622263,7.6669757 30.490872,7.4698482 C 30.195227,7.0428466 29.554673,6.8046921 28.56921,6.755384 L 26.918551,6.6568372 L 26.450454,6.6075638 L 26.450454,5.1047251 L 40.739739,5.1047251 L 40.739739,6.6075638 L 40.271642,6.6568372 L 38.596346,6.755384 C 37.364499,6.837541 36.66646,7.2235156 36.502227,7.9133088 C 36.288698,8.9645072 36.181939,10.15528 36.18195,11.48563 L 36.18195,35.186134 C 36.181939,36.155183 36.239424,37.074953 36.354407,37.945445 C 36.452942,38.569577 36.567913,38.980189 36.699321,39.17728 C 37.011374,39.587893 37.643715,39.826048 38.596346,39.891744 L 40.271642,40.014927 L 40.739739,40.039564 L 40.739739,41.567039 L 26.450454,41.567039 L 26.450454,40.039564 L 26.918551,40.014927 L 28.56921,39.891744 C 29.817465,39.793199 30.523716,39.407224 30.687966,38.733819 C 30.901478,37.715506 31.008237,36.532946 31.008243,35.186134 M 42.341124,41.567039 L 42.341124,40.039564 L 42.686038,40.014927 L 43.745416,39.941017 C 44.780154,39.842472 45.749197,39.201919 46.652546,38.019355 L 48.894486,35.136861 L 57.640514,23.606886 L 49.485767,11.460993 L 47.514831,8.7263199 C 46.611481,7.4452457 45.667075,6.7718432 44.68161,6.7061106 L 43.449775,6.6568372 L 42.932405,6.6075638 L 42.932405,5.1047251 L 57.2956,5.1047251 L 57.2956,6.6075638 L 56.85214,6.6075638 L 55.127571,6.6322005 C 53.895724,6.6486599 53.279807,6.911451 53.279818,7.4205748 C 53.279807,7.6834002 53.649357,8.3075293 54.38847,9.2929639 C 54.519853,9.4572407 54.807281,9.8842764 55.250754,10.574072 L 55.842035,11.436357 L 61.779479,20.404115 L 68.924122,11.436357 C 70.71436,9.1862373 71.609493,7.8065835 71.609522,7.2973913 C 71.609493,6.9196633 71.100335,6.7061454 70.082047,6.6568372 L 68.874849,6.6075638 L 68.406751,6.6075638 L 68.406751,5.1047251 L 77.546967,5.1047251 L 77.546967,6.6075638 L 76.955686,6.6568372 C 75.444602,6.7554188 74.188131,7.5027312 73.186271,8.8987768 C 72.611384,9.6707586 71.954406,10.516618 71.215335,11.436357 L 63.109861,21.512767 L 72.102256,35.136861 L 74.245649,38.191812 C 74.968293,39.275829 75.682756,39.858897 76.389042,39.941017 L 77.694787,40.014927 L 78.162884,40.039564 L 78.162884,41.567039 L 64.193876,41.567039 L 64.193876,40.039564 L 64.6127,40.039564 L 66.115538,40.014927 C 67.544441,39.998505 68.258905,39.702864 68.258931,39.128006 C 68.258905,38.750246 67.922204,38.076844 67.248827,37.107797 L 65.893808,35.161498 L 59.069443,24.912631 L 51.308882,35.136861 L 50.865422,35.728142 L 50.471235,36.245513 L 50.200231,36.590426 L 49.953864,36.910703 C 49.034087,38.126117 48.574202,38.898066 48.574209,39.226553 C 48.574202,39.735713 49.23118,39.998505 50.545145,40.014927 L 52.023347,40.039564 L 52.540717,40.039564 L 52.540717,41.567039 L 42.341124,41.567039"
       id="kamala"
       inkscape:label="#text2393" />
  </g>
</svg>
