<?xml version="1.0" encoding="UTF-8" standalone="no"?>
<!-- Created with Inkscape (http://www.inkscape.org/) -->
<svg
   xmlns:dc="http://purl.org/dc/elements/1.1/"
   xmlns:cc="http://creativecommons.org/ns#"
   xmlns:rdf="http://www.w3.org/1999/02/22-rdf-syntax-ns#"
   xmlns:svg="http://www.w3.org/2000/svg"
   xmlns="http://www.w3.org/2000/svg"
   xmlns:sodipodi="http://sodipodi.sourceforge.net/DTD/sodipodi-0.dtd"
   xmlns:inkscape="http://www.inkscape.org/namespaces/inkscape"
   width="64px"
   height="64px"
   id="svg2383"
   sodipodi:version="0.32"
   inkscape:version="0.46"
   sodipodi:docname="cusp_03.svg"
   inkscape:output_extension="org.inkscape.output.svg.inkscape">
  <defs
     id="defs2385">
    <inkscape:perspective
       sodipodi:type="inkscape:persp3d"
       inkscape:vp_x="0 : 32 : 1"
       inkscape:vp_y="0 : 1000 : 0"
       inkscape:vp_z="64 : 32 : 1"
       inkscape:persp3d-origin="32 : 21.333333 : 1"
       id="perspective2391" />
  </defs>
  <sodipodi:namedview
     id="base"
     pagecolor="#ffffff"
     bordercolor="#666666"
     borderopacity="1.0"
     inkscape:pageopacity="0.0"
     inkscape:pageshadow="2"
     inkscape:zoom="5.5"
     inkscape:cx="1.5454545"
     inkscape:cy="32"
     inkscape:current-layer="layer1"
     showgrid="true"
     inkscape:document-units="px"
     inkscape:grid-bbox="true"
     inkscape:window-width="1280"
     inkscape:window-height="967"
     inkscape:window-x="-5"
     inkscape:window-y="-3" />
  <metadata
     id="metadata2388">
    <rdf:RDF>
      <cc:Work
         rdf:about="">
        <dc:format>image/svg+xml</dc:format>
        <dc:type
           rdf:resource="http://purl.org/dc/dcmitype/StillImage" />
      </cc:Work>
    </rdf:RDF>
  </metadata>
  <g
     id="layer1"
     inkscape:label="Layer 1"
     inkscape:groupmode="layer">
    <path
       transform="scale(0.8716385,1.1472647)"
       style="font-size:60.30796432px;font-style:normal;font-variant:normal;font-weight:normal;font-stretch:normal;text-align:start;line-height:125%;writing-mode:lr-tb;text-anchor:start;fill:#00ffff;fill-opacity:1;stroke:none;stroke-width:1px;stroke-linecap:butt;stroke-linejoin:miter;stroke-opacity:1;font-family:Luxi Serif;-inkscape-font-specification:Luxi Serif"
       d="M 13.478591,42.056558 L 13.478591,13.728305 C 13.478584,12.570084 13.409874,11.470721 13.27246,10.430214 C 13.154665,9.6646251 13.017244,9.1640224 12.860199,8.9284039 C 12.506826,8.4180262 11.741198,8.1333697 10.563313,8.0744337 L 8.5903477,7.9566447 L 8.03085,7.8977502 L 8.03085,6.101468 L 25.110254,6.101468 L 25.110254,7.8977502 L 24.550756,7.9566447 L 22.548343,8.0744337 C 21.075966,8.1726327 20.241629,8.6339724 20.045327,9.4584543 C 19.790105,10.714909 19.6625,12.138191 19.662513,13.728305 L 19.662513,42.056558 C 19.6625,43.214823 19.73121,44.314186 19.868644,45.35465 C 19.986419,46.10065 20.12384,46.591437 20.280905,46.827012 C 20.65389,47.317802 21.409702,47.602459 22.548343,47.680983 L 24.550756,47.828219 L 25.110254,47.857666 L 25.110254,49.683395 L 8.03085,49.683395 L 8.03085,47.857666 L 8.5903477,47.828219 L 10.563313,47.680983 C 12.055302,47.563196 12.899455,47.101856 13.095777,46.296962 C 13.350979,45.079814 13.478584,43.666347 13.478591,42.056558 M 33.620509,42.056558 L 33.620509,13.728305 C 33.620502,12.570084 33.551792,11.470721 33.414378,10.430214 C 33.296583,9.6646251 33.159162,9.1640224 33.002117,8.9284039 C 32.648744,8.4180262 31.883116,8.1333697 30.705232,8.0744337 L 28.732266,7.9566447 L 28.172768,7.8977502 L 28.172768,6.101468 L 45.252172,6.101468 L 45.252172,7.8977502 L 44.692674,7.9566447 L 42.690262,8.0744337 C 41.217885,8.1726327 40.383547,8.6339724 40.187245,9.4584543 C 39.932023,10.714909 39.804418,12.138191 39.804431,13.728305 L 39.804431,42.056558 C 39.804418,43.214823 39.873128,44.314186 40.010562,45.35465 C 40.128337,46.10065 40.265758,46.591437 40.422823,46.827012 C 40.795808,47.317802 41.55162,47.602459 42.690262,47.680983 L 44.692674,47.828219 L 45.252172,47.857666 L 45.252172,49.683395 L 28.172768,49.683395 L 28.172768,47.857666 L 28.732266,47.828219 L 30.705232,47.680983 C 32.19722,47.563196 33.041374,47.101856 33.237695,46.296962 C 33.492898,45.079814 33.620502,43.666347 33.620509,42.056558 M 53.762427,42.056558 L 53.762427,13.728305 C 53.76242,12.570084 53.69371,11.470721 53.556297,10.430214 C 53.438501,9.6646251 53.301081,9.1640224 53.144035,8.9284039 C 52.790662,8.4180262 52.025034,8.1333697 50.84715,8.0744337 L 48.874184,7.9566447 L 48.314686,7.8977502 L 48.314686,6.101468 L 65.39409,6.101468 L 65.39409,7.8977502 L 64.834593,7.9566447 L 62.83218,8.0744337 C 61.359803,8.1726327 60.525465,8.6339724 60.329164,9.4584543 C 60.073941,10.714909 59.946336,12.138191 59.946349,13.728305 L 59.946349,42.056558 C 59.946336,43.214823 60.015046,44.314186 60.15248,45.35465 C 60.270256,46.10065 60.407676,46.591437 60.564742,46.827012 C 60.937726,47.317802 61.693538,47.602459 62.83218,47.680983 L 64.834593,47.828219 L 65.39409,47.857666 L 65.39409,49.683395 L 48.314686,49.683395 L 48.314686,47.857666 L 48.874184,47.828219 L 50.84715,47.680983 C 52.339138,47.563196 53.183292,47.101856 53.379613,46.296962 C 53.634816,45.079814 53.76242,43.666347 53.762427,42.056558"
       id="kamala" />
  </g>
</svg>
