<?xml version="1.0" encoding="UTF-8" standalone="no"?>
<!-- Created with Inkscape (http://www.inkscape.org/) -->
<svg
   xmlns:dc="http://purl.org/dc/elements/1.1/"
   xmlns:cc="http://creativecommons.org/ns#"
   xmlns:rdf="http://www.w3.org/1999/02/22-rdf-syntax-ns#"
   xmlns:svg="http://www.w3.org/2000/svg"
   xmlns="http://www.w3.org/2000/svg"
   xmlns:sodipodi="http://sodipodi.sourceforge.net/DTD/sodipodi-0.dtd"
   xmlns:inkscape="http://www.inkscape.org/namespaces/inkscape"
   width="64px"
   height="64px"
   id="svg2383"
   sodipodi:version="0.32"
   inkscape:version="0.46"
   sodipodi:docname="cusp_04.svg"
   inkscape:output_extension="org.inkscape.output.svg.inkscape">
  <defs
     id="defs2385">
    <inkscape:perspective
       sodipodi:type="inkscape:persp3d"
       inkscape:vp_x="0 : 32 : 1"
       inkscape:vp_y="0 : 1000 : 0"
       inkscape:vp_z="64 : 32 : 1"
       inkscape:persp3d-origin="32 : 21.333333 : 1"
       id="perspective2391" />
  </defs>
  <sodipodi:namedview
     id="base"
     pagecolor="#ffffff"
     bordercolor="#666666"
     borderopacity="1.0"
     inkscape:pageopacity="0.0"
     inkscape:pageshadow="2"
     inkscape:zoom="5.5"
     inkscape:cx="1.5454545"
     inkscape:cy="32"
     inkscape:current-layer="layer1"
     showgrid="true"
     inkscape:document-units="px"
     inkscape:grid-bbox="true"
     inkscape:window-width="1280"
     inkscape:window-height="967"
     inkscape:window-x="-5"
     inkscape:window-y="-3" />
  <metadata
     id="metadata2388">
    <rdf:RDF>
      <cc:Work
         rdf:about="">
        <dc:format>image/svg+xml</dc:format>
        <dc:type
           rdf:resource="http://purl.org/dc/dcmitype/StillImage" />
      </cc:Work>
    </rdf:RDF>
  </metadata>
  <g
     id="layer1"
     inkscape:label="Layer 1"
     inkscape:groupmode="layer">
    <path
       transform="scale(0.8424689,1.1869875)"
       style="font-size:57.55090714px;font-style:normal;font-variant:normal;font-weight:normal;font-stretch:normal;text-align:start;line-height:125%;writing-mode:lr-tb;text-anchor:start;fill:#0000ff;fill-opacity:1;stroke:none;stroke-width:1px;stroke-linecap:butt;stroke-linejoin:miter;stroke-opacity:1;font-family:Luxi Serif;-inkscape-font-specification:Luxi Serif"
       d="M 13.507602,40.208638 L 13.507602,13.175449 C 13.507595,12.070177 13.442026,11.021073 13.310895,10.028133 C 13.198484,9.2975449 13.067346,8.8198279 12.91748,8.594981 C 12.580262,8.1079359 11.849636,7.8362929 10.7256,7.7800512 L 8.8428311,7.667647 L 8.3089116,7.611445 L 8.3089116,5.8972822 L 24.607508,5.8972822 L 24.607508,7.611445 L 24.073589,7.667647 L 22.162719,7.7800512 C 20.757654,7.8737609 19.961458,8.3140099 19.774131,9.1007995 C 19.530576,10.299814 19.408805,11.658029 19.408818,13.175449 L 19.408818,40.208638 C 19.408805,41.313952 19.474374,42.363056 19.605525,43.355954 C 19.717916,44.06785 19.849054,44.5362 19.99894,44.761005 C 20.354872,45.229358 21.076132,45.501001 22.162719,45.575935 L 24.073589,45.71644 L 24.607508,45.744541 L 24.607508,47.486805 L 8.3089116,47.486805 L 8.3089116,45.744541 L 8.8428311,45.71644 L 10.7256,45.575935 C 12.14938,45.463533 12.954942,45.023284 13.142289,44.255187 C 13.385824,43.093682 13.507595,41.744834 13.507602,40.208638 M 46.442008,48.020725 L 31.520361,13.315954 L 29.946704,9.7752242 C 29.497084,8.7261579 29.066202,8.1266699 28.654056,7.9767584 C 28.223172,7.8269259 27.567482,7.7238889 26.686984,7.667647 L 26.096863,7.611445 L 26.096863,5.8972822 L 41.355721,5.8972822 L 41.355721,7.611445 L 40.7656,7.611445 C 37.861815,7.6114849 36.40993,7.9767979 36.40994,8.7073851 C 36.40993,8.9696999 36.728408,9.8782989 37.365375,11.433185 L 38.124103,13.315954 L 49.364515,39.506113 L 60.099108,13.287853 L 60.661128,11.8547 C 61.260582,10.337282 61.560326,9.3256459 61.560361,8.8197892 C 61.560326,8.0892019 60.914003,7.7051549 59.62139,7.667647 L 57.485712,7.611445 L 56.867489,7.611445 L 56.867489,5.8972822 L 67.658284,5.8972822 L 67.658284,7.611445 L 67.040062,7.667647 C 65.859779,7.7426229 65.110419,7.9393299 64.79198,8.2577687 C 64.454729,8.5575519 64.117517,9.1289389 63.780343,9.9719314 L 62.459594,13.287853 L 48.352878,48.020725 L 46.442008,48.020725"
       id="kamala"
       inkscape:label="#text2393" />
  </g>
</svg>
