<?xml version="1.0" encoding="UTF-8" standalone="no"?>
<!-- Created with Inkscape (http://www.inkscape.org/) -->
<svg
   xmlns:dc="http://purl.org/dc/elements/1.1/"
   xmlns:cc="http://creativecommons.org/ns#"
   xmlns:rdf="http://www.w3.org/1999/02/22-rdf-syntax-ns#"
   xmlns:svg="http://www.w3.org/2000/svg"
   xmlns="http://www.w3.org/2000/svg"
   xmlns:sodipodi="http://sodipodi.sourceforge.net/DTD/sodipodi-0.dtd"
   xmlns:inkscape="http://www.inkscape.org/namespaces/inkscape"
   width="64px"
   height="64px"
   id="svg2383"
   sodipodi:version="0.32"
   inkscape:version="0.46"
   sodipodi:docname="cusp_05.svg"
   inkscape:output_extension="org.inkscape.output.svg.inkscape">
  <defs
     id="defs2385">
    <inkscape:perspective
       sodipodi:type="inkscape:persp3d"
       inkscape:vp_x="0 : 32 : 1"
       inkscape:vp_y="0 : 1000 : 0"
       inkscape:vp_z="64 : 32 : 1"
       inkscape:persp3d-origin="32 : 21.333333 : 1"
       id="perspective2391" />
  </defs>
  <sodipodi:namedview
     id="base"
     pagecolor="#ffffff"
     bordercolor="#666666"
     borderopacity="1.0"
     inkscape:pageopacity="0.0"
     inkscape:pageshadow="2"
     inkscape:zoom="5.5"
     inkscape:cx="1.5454545"
     inkscape:cy="32"
     inkscape:current-layer="layer1"
     showgrid="true"
     inkscape:document-units="px"
     inkscape:grid-bbox="true"
     inkscape:window-width="1280"
     inkscape:window-height="967"
     inkscape:window-x="-5"
     inkscape:window-y="-3" />
  <metadata
     id="metadata2388">
    <rdf:RDF>
      <cc:Work
         rdf:about="">
        <dc:format>image/svg+xml</dc:format>
        <dc:type
           rdf:resource="http://purl.org/dc/dcmitype/StillImage" />
      </cc:Work>
    </rdf:RDF>
  </metadata>
  <g
     id="layer1"
     inkscape:label="Layer 1"
     inkscape:groupmode="layer">
    <path
       transform="scale(1.0067386,0.9933065)"
       style="font-size:68.77253723px;font-style:normal;font-variant:normal;font-weight:normal;font-stretch:normal;text-align:start;line-height:125%;writing-mode:lr-tb;text-anchor:start;fill:#ff0000;fill-opacity:1;stroke:none;stroke-width:1px;stroke-linecap:butt;stroke-linejoin:miter;stroke-opacity:1;font-family:Luxi Serif;-inkscape-font-specification:Luxi Serif"
       d="M 31.265313,57.384101 L 13.434152,15.912381 L 11.553653,11.681258 C 11.016364,10.427638 10.501466,9.7112582 10.008957,9.532116 C 9.4940563,9.3530683 8.7105159,9.2299405 7.6583336,9.1627323 L 6.9531465,9.0955716 L 6.9531465,7.0471708 L 25.187271,7.0471708 L 25.187271,9.0955716 L 24.482084,9.0955716 C 21.012102,9.0956192 19.277119,9.5321632 19.277131,10.405205 C 19.277119,10.718667 19.657696,11.804431 20.418863,13.662498 L 21.325532,15.912381 L 34.757668,47.209258 L 47.585358,15.8788 L 48.256965,14.166203 C 48.973304,12.352909 49.331494,11.144018 49.331536,10.539526 C 49.331494,9.6664845 48.559147,9.2075536 47.014493,9.1627323 L 44.462387,9.0955716 L 43.723619,9.0955716 L 43.723619,7.0471708 L 56.61847,7.0471708 L 56.61847,9.0955716 L 55.879702,9.1627323 C 54.469281,9.2523273 53.573806,9.4873895 53.193275,9.8679194 C 52.790265,10.226156 52.387302,10.908956 51.984383,11.91632 L 50.406107,15.8788 L 33.548776,57.384101 L 31.265313,57.384101"
       id="kamala"
       inkscape:label="#text2393" />
  </g>
</svg>
