<?xml version="1.0" encoding="UTF-8" standalone="no"?>
<!-- Created with Inkscape (http://www.inkscape.org/) -->
<svg
   xmlns:dc="http://purl.org/dc/elements/1.1/"
   xmlns:cc="http://creativecommons.org/ns#"
   xmlns:rdf="http://www.w3.org/1999/02/22-rdf-syntax-ns#"
   xmlns:svg="http://www.w3.org/2000/svg"
   xmlns="http://www.w3.org/2000/svg"
   xmlns:sodipodi="http://sodipodi.sourceforge.net/DTD/sodipodi-0.dtd"
   xmlns:inkscape="http://www.inkscape.org/namespaces/inkscape"
   width="64px"
   height="64px"
   id="svg9277"
   sodipodi:version="0.32"
   inkscape:version="0.46"
   sodipodi:docname="dsc.svg"
   inkscape:output_extension="org.inkscape.output.svg.inkscape">
  <defs
     id="defs9279">
    <inkscape:perspective
       sodipodi:type="inkscape:persp3d"
       inkscape:vp_x="0 : 32 : 1"
       inkscape:vp_y="0 : 1000 : 0"
       inkscape:vp_z="64 : 32 : 1"
       inkscape:persp3d-origin="32 : 21.333333 : 1"
       id="perspective9285" />
  </defs>
  <sodipodi:namedview
     id="base"
     pagecolor="#ffffff"
     bordercolor="#666666"
     borderopacity="1.0"
     inkscape:pageopacity="0.0"
     inkscape:pageshadow="2"
     inkscape:zoom="5.5"
     inkscape:cx="20.027726"
     inkscape:cy="32"
     inkscape:current-layer="layer1"
     showgrid="true"
     inkscape:document-units="px"
     inkscape:grid-bbox="true"
     inkscape:window-width="1280"
     inkscape:window-height="970"
     inkscape:window-x="-4"
     inkscape:window-y="27" />
  <metadata
     id="metadata9282">
    <rdf:RDF>
      <cc:Work
         rdf:about="">
        <dc:format>image/svg+xml</dc:format>
        <dc:type
           rdf:resource="http://purl.org/dc/dcmitype/StillImage" />
      </cc:Work>
    </rdf:RDF>
  </metadata>
  <g
     id="layer1"
     inkscape:label="Layer 1"
     inkscape:groupmode="layer">
    <path
       transform="scale(0.7381399,1.3547568)"
       style="font-size:46.08873367px;font-style:normal;font-variant:normal;font-weight:normal;font-stretch:normal;text-align:start;line-height:125%;writing-mode:lr-tb;text-anchor:start;fill:#00ffff;fill-opacity:1;stroke:none;stroke-width:1px;stroke-linecap:butt;stroke-linejoin:miter;stroke-opacity:1;font-family:StarFont Serif;-inkscape-font-specification:StarFont Serif"
       d="M 57.732441,11.108104 L 57.124825,11.108104 C 56.734702,9.2477813 56.149591,7.9650395 55.369493,7.2598748 C 54.589297,6.5397709 53.674125,6.179703 52.623973,6.1796701 C 51.63374,6.179703 50.876097,6.4572553 50.351042,7.0123279 C 49.825899,7.5524618 49.56335,8.1300706 49.563393,8.7451563 C 49.56335,10.020427 50.133457,10.988109 51.273717,11.648206 L 55.707057,14.236197 C 56.802214,14.896346 57.634871,15.578975 58.20503,16.284085 C 58.775086,16.989241 59.06014,17.88941 59.060192,18.984597 C 59.06014,19.839778 58.880106,20.604922 58.52009,21.280032 C 58.15997,21.940174 57.694883,22.487777 57.124825,22.922843 C 56.554668,23.357941 55.924549,23.688003 55.234467,23.913031 C 54.544289,24.138088 53.869161,24.250609 53.209083,24.250595 C 52.563915,24.250609 51.723757,24.130587 50.688606,23.890526 C 49.653367,23.635493 48.940733,23.507969 48.550701,23.507954 C 48.295611,23.507969 48.115577,23.537975 48.010598,23.597971 C 47.905537,23.642995 47.778013,23.763017 47.628026,23.958039 L 47.087923,23.958039 L 47.087923,17.701854 L 47.785556,17.701854 C 48.13058,19.337183 48.648177,20.694939 49.33835,21.775125 C 50.04344,22.840343 51.258669,23.372944 52.984041,23.372928 C 53.794147,23.372944 54.536787,23.132899 55.211963,22.652792 C 55.902045,22.172718 56.24711,21.415075 56.247159,20.379861 C 56.24711,19.239665 55.55698,18.234475 54.176767,17.36429 L 51.836323,16.036538 C 50.245979,15.151394 49.045752,14.288732 48.235641,13.448548 C 47.44045,12.608415 47.042875,11.505707 47.042915,10.140421 C 47.042875,9.3753054 47.252914,8.6176626 47.673034,7.86749 C 48.108076,7.1023769 48.753197,6.4797596 49.608401,5.999636 C 50.478522,5.5045757 51.52872,5.2570291 52.758998,5.2569953 C 53.464085,5.2570291 54.221728,5.3845531 55.031929,5.6395678 C 55.857036,5.8796464 56.344628,5.9996691 56.494706,5.999636 C 56.749704,5.9996691 56.959744,5.872145 57.124825,5.6170635 L 57.597415,5.6170635 L 57.732441,11.108104 M 76.681031,17.521819 L 77.221134,17.881888 C 76.155862,20.132333 74.963138,21.76014 73.642956,22.765313 C 72.337643,23.755516 70.844861,24.250609 69.164607,24.250595 C 68.279378,24.250609 67.401712,24.078077 66.531608,23.732996 C 65.676387,23.372944 64.858733,22.810338 64.078643,22.045177 C 63.313442,21.280049 62.705827,20.32737 62.255798,19.187135 C 61.82066,18.04694 61.603119,16.71919 61.603174,15.20388 C 61.603119,13.583599 61.858167,12.15833 62.368319,10.92807 C 62.87836,9.6828633 63.56849,8.6401668 64.438711,7.7999772 C 65.323821,6.9448472 66.291503,6.307227 67.341761,5.8871147 C 68.406902,5.4670687 69.502108,5.2570291 70.627384,5.2569953 C 71.362459,5.2570291 72.135105,5.3770517 72.945323,5.6170635 C 73.770413,5.8421394 74.430537,6.1196917 74.925699,6.4497213 C 75.45073,6.8248246 75.870809,7.2899123 76.185937,7.8449857 C 76.51593,8.4001215 76.680961,8.8727106 76.681031,9.2627544 C 76.680961,9.7878831 76.51593,10.215464 76.185937,10.545497 C 75.855806,10.875588 75.390718,11.048121 74.790673,11.063096 C 74.325517,11.063124 73.91294,10.875588 73.552938,10.500489 C 73.192804,10.125447 72.96026,9.6978662 72.855306,9.2177459 L 72.562751,8.295071 C 72.337643,7.5599632 72.082595,7.0648699 71.797606,6.8097896 C 71.52749,6.5397709 70.912374,6.4047454 69.952256,6.4047128 C 69.262063,6.4047454 68.519423,6.614785 67.724334,7.0348322 C 66.929123,7.4549434 66.22399,8.1975834 65.608933,9.2627544 C 64.993758,10.327985 64.6862,11.775758 64.686258,13.606077 C 64.6862,15.07638 64.956251,16.40413 65.496412,17.589332 C 66.051458,18.774577 66.801599,19.68975 67.746838,20.334853 C 68.706958,20.979993 69.764658,21.302554 70.91994,21.302536 C 72.225122,21.302554 73.297824,20.987494 74.138049,20.357357 C 74.993143,19.712254 75.840803,18.767076 76.681031,17.521819 M 61.873225,27.60373 C 63.778529,26.343504 65.503855,25.713385 67.049206,25.713372 C 67.619253,25.713385 68.121848,25.773396 68.556992,25.893406 C 69.382086,26.073453 70.004703,26.388512 70.424846,26.838585 C 70.844861,27.273679 71.054901,27.80628 71.054965,28.436388 C 71.054901,28.736455 71.009892,29.044013 70.91994,29.359063 C 70.739842,29.839163 70.432284,30.236738 69.997265,30.551789 C 69.56212,30.866856 69.082029,31.024386 68.556992,31.024378 C 68.406902,31.024386 68.181859,30.99438 67.881864,30.934361 C 67.28169,30.799344 66.816602,30.559298 66.486599,30.214225 C 66.156478,29.854166 65.818914,29.464092 65.473908,29.044003 C 65.128784,28.608931 64.761215,28.346381 64.371199,28.256354 C 63.636003,28.256364 63.020887,28.361384 62.525849,28.571413 C 61.775652,28.87148 60.927992,29.224047 59.982867,29.629114 C 59.052639,30.0342 58.287494,30.326755 57.687432,30.50678 C 57.087268,30.686823 56.547166,30.776839 56.067125,30.776831 C 55.842033,30.776839 55.459461,30.716828 54.919407,30.596797 C 53.32906,30.281746 52.53391,29.471593 52.533955,28.166337 C 52.53391,27.866291 52.578918,27.558733 52.668981,27.243662 C 52.848969,26.703572 53.149026,26.283493 53.569152,25.983423 C 54.004187,25.683379 54.484277,25.533351 55.009425,25.533338 C 55.174408,25.533351 55.406951,25.563357 55.707057,25.623355 C 56.292118,25.773396 56.742203,26.028444 57.057313,26.3885 C 57.372322,26.74858 57.694883,27.138654 58.024996,27.558721 C 58.355007,27.963809 58.715075,28.211356 59.105201,28.301362 C 60.170349,28.301373 61.093023,28.068829 61.873225,27.60373 M 9.4832975,42.073972 L 9.4832975,41.016272 C 10.893561,40.941255 11.943759,40.761222 12.633895,40.476169 C 13.324019,40.191114 13.781605,39.718525 14.006655,39.058401 C 14.246693,38.398276 14.366715,37.378084 14.366723,35.997821 L 14.366723,11.24313 C 14.366715,9.7878831 14.254194,8.7451866 14.029159,8.1150369 C 13.804109,7.4699462 13.361526,7.0273628 12.701407,6.7872853 C 12.05628,6.5322695 10.983578,6.3447341 9.4832975,6.2246787 L 9.4832975,5.1669782 L 22.693301,5.1669782 C 26.068921,5.1670121 29.121997,5.5495842 31.852536,6.3146957 C 34.598029,7.0798727 36.945972,8.2350904 38.896371,9.7803525 C 40.86171,11.325673 42.361992,13.276041 43.397224,15.631461 C 44.447386,17.971926 44.972485,20.672435 44.972523,23.732996 C 44.972485,25.803402 44.627419,27.873792 43.937326,29.944173 C 43.262162,32.014573 42.099443,33.979943 40.449165,35.840291 C 38.813824,37.700645 36.570901,39.200927 33.72039,40.341144 C 30.884829,41.49636 27.471686,42.073969 23.48095,42.073972 L 9.4832975,42.073972 M 20.037798,9.39778 L 20.037798,37.753153 C 20.037784,38.68333 20.262827,39.298446 20.712925,39.598503 C 21.177999,39.898559 22.08567,40.048587 23.435941,40.048588 C 24.966213,40.048587 26.496502,39.921063 28.026811,39.666016 C 29.572082,39.42597 31.177384,38.803352 32.842724,37.798162 C 34.523015,36.777971 35.948283,35.12766 37.118534,32.847224 C 38.288725,30.5668 38.873835,27.54373 38.873867,23.778005 C 38.873835,21.302554 38.468759,18.992118 37.658637,16.846692 C 36.848453,14.686306 35.535706,12.773446 33.72039,11.108104 C 32.550143,10.042931 31.604965,9.277787 30.884853,8.8126691 C 30.179696,8.3326088 29.197011,7.9425353 27.936794,7.6424473 C 26.691539,7.3424222 24.943709,7.1923939 22.693301,7.192362 C 21.523064,7.1923939 20.787926,7.3724278 20.487883,7.7324644 C 20.187813,8.0925636 20.037784,8.6476682 20.037798,9.39778"
       id="kamala" />
  </g>
</svg>
