<?xml version="1.0" encoding="UTF-8" standalone="no"?>
<!-- Created with Inkscape (http://www.inkscape.org/) -->
<svg
   xmlns:dc="http://purl.org/dc/elements/1.1/"
   xmlns:cc="http://creativecommons.org/ns#"
   xmlns:rdf="http://www.w3.org/1999/02/22-rdf-syntax-ns#"
   xmlns:svg="http://www.w3.org/2000/svg"
   xmlns="http://www.w3.org/2000/svg"
   xmlns:sodipodi="http://sodipodi.sourceforge.net/DTD/sodipodi-0.dtd"
   xmlns:inkscape="http://www.inkscape.org/namespaces/inkscape"
   width="64px"
   height="64px"
   id="svg9347"
   sodipodi:version="0.32"
   inkscape:version="0.46"
   sodipodi:docname="ic.svg"
   inkscape:output_extension="org.inkscape.output.svg.inkscape">
  <defs
     id="defs9349">
    <inkscape:perspective
       sodipodi:type="inkscape:persp3d"
       inkscape:vp_x="0 : 32 : 1"
       inkscape:vp_y="0 : 1000 : 0"
       inkscape:vp_z="64 : 32 : 1"
       inkscape:persp3d-origin="32 : 21.333333 : 1"
       id="perspective9355" />
  </defs>
  <sodipodi:namedview
     id="base"
     pagecolor="#ffffff"
     bordercolor="#666666"
     borderopacity="1.0"
     inkscape:pageopacity="0.0"
     inkscape:pageshadow="2"
     inkscape:zoom="5.5"
     inkscape:cx="-4.2727273"
     inkscape:cy="32"
     inkscape:current-layer="layer1"
     showgrid="true"
     inkscape:document-units="px"
     inkscape:grid-bbox="true"
     inkscape:window-width="1280"
     inkscape:window-height="970"
     inkscape:window-x="-4"
     inkscape:window-y="27" />
  <metadata
     id="metadata9352">
    <rdf:RDF>
      <cc:Work
         rdf:about="">
        <dc:format>image/svg+xml</dc:format>
        <dc:type
           rdf:resource="http://purl.org/dc/dcmitype/StillImage" />
      </cc:Work>
    </rdf:RDF>
  </metadata>
  <g
     id="layer1"
     inkscape:label="Layer 1"
     inkscape:groupmode="layer">
    <path
       transform="scale(1.015961,0.9842898)"
       style="font-size:63.59070969px;font-style:normal;font-variant:normal;font-weight:normal;font-stretch:normal;text-align:start;line-height:125%;writing-mode:lr-tb;text-anchor:start;fill:#0000ff;fill-opacity:1;stroke:none;stroke-width:1px;stroke-linecap:butt;stroke-linejoin:miter;stroke-opacity:1;font-family:StarFont Serif;-inkscape-font-specification:StarFont Serif"
       d="M 51.726446,24.034062 L 52.53375,24.530864 C 51.043295,27.615205 49.376938,29.850814 47.534675,31.237697 C 45.713024,32.624625 43.653366,33.318077 41.355695,33.318057 C 40.134352,33.318077 38.923398,33.080026 37.722827,32.603903 C 36.542888,32.107122 35.414734,31.330869 34.338361,30.275142 C 33.282626,29.219461 32.444273,27.905006 31.823299,26.331773 C 31.222968,24.758594 30.922817,22.926637 30.922844,20.835896 C 30.922817,18.60032 31.274718,16.633813 31.978549,14.936367 C 32.682324,13.218299 33.634527,11.779644 34.835163,10.620396 C 36.056437,9.4405348 37.391592,8.5607814 38.840633,7.9811334 C 40.310303,7.4015769 41.821409,7.1117758 43.373955,7.1117292 C 44.408919,7.1117758 45.495673,7.2670264 46.634221,7.5774814 C 47.772682,7.8880288 48.683485,8.2813303 49.366634,8.7573872 C 50.111791,9.2956342 50.691393,9.9476867 51.105443,10.713547 C 51.519396,11.458793 51.726397,12.100495 51.726446,12.638656 C 51.726397,13.3632 51.498696,13.953152 51.043342,14.408515 C 50.587893,14.863956 49.94619,15.102007 49.118233,15.122668 C 48.497185,15.122707 47.938283,14.874306 47.441525,14.377465 C 46.965379,13.860002 46.634178,13.2597 46.44792,12.576556 L 46.106368,11.3035 C 45.920025,10.70324 45.723374,10.216788 45.516415,9.8441425 C 45.330072,9.4715849 44.988521,9.1921338 44.49176,9.0057884 C 44.015617,8.7988323 43.332515,8.6953319 42.44245,8.6952869 C 41.510908,8.6953319 40.496604,8.985133 39.399536,9.5646911 C 38.302395,10.144338 37.329492,11.168991 36.480821,12.638656 C 35.652785,14.108403 35.238783,16.105961 35.238815,18.631335 C 35.238783,20.659978 35.611385,22.491935 36.356621,24.127212 C 37.122491,25.762548 38.147145,27.025253 39.430586,27.91533 C 40.734655,28.80546 42.18366,29.250511 43.777607,29.250487 C 45.578473,29.250511 47.058529,28.81581 48.217779,27.946381 C 49.397638,27.056303 50.567193,25.752198 51.726446,24.034062 M 43.498156,37.944529 C 46.127026,36.205738 48.486835,35.336335 50.57759,35.336317 C 51.364146,35.336335 52.057598,35.419135 52.65795,35.584718 C 53.796405,35.833137 54.655459,36.267839 55.235113,36.888824 C 55.814663,37.489143 56.104464,38.223996 56.104517,39.093385 C 56.104464,39.507401 56.042364,39.931753 55.918216,40.366441 C 55.669762,41.028857 55.245411,41.577409 54.64516,42.012099 C 54.044806,42.446813 53.382404,42.664163 52.65795,42.664152 C 52.4509,42.664163 52.140399,42.622763 51.726446,42.539952 C 50.898394,42.353662 50.256692,42.022461 49.801336,41.546347 C 49.345888,41.049557 48.880136,40.511355 48.404079,39.931739 C 47.927933,39.33145 47.420781,38.969199 46.882622,38.844984 C 45.909675,38.844999 45.060971,38.989899 44.33651,39.279686 C 43.529165,39.610902 42.421711,40.076653 41.014143,40.676943 C 39.6272,41.277258 38.519746,41.70161 37.691777,41.949999 C 36.86374,42.198412 36.128887,42.322612 35.487217,42.322601 C 35.093883,42.322612 34.566031,42.239812 33.903659,42.074199 C 31.70942,41.639509 30.612316,40.542405 30.612343,38.782883 C 30.612316,38.327497 30.674416,37.882445 30.798644,37.447727 C 31.336818,35.874537 32.392522,35.087934 33.965759,35.087915 C 34.193429,35.087934 34.514281,35.129334 34.928314,35.212116 C 35.735585,35.419135 36.366938,35.771037 36.822373,36.267821 C 37.277741,36.764641 37.733143,37.302843 38.18858,37.882429 C 38.643947,38.441347 39.140749,38.782898 39.678987,38.907084 C 41.086556,38.907099 42.359611,38.586248 43.498156,37.944529 M 6.8900273,57.909777 L 6.8900273,56.51252 C 9.042832,56.471117 10.636738,56.264116 11.671751,55.891517 C 12.706746,55.518913 13.389849,54.866861 13.721061,53.935357 C 14.072951,53.003853 14.248902,51.554848 14.248913,49.588336 L 14.248913,15.43317 C 14.248902,13.508101 14.062601,12.079795 13.69001,11.148249 C 13.338099,10.196088 12.665346,9.5440352 11.671751,9.1920893 C 10.698838,8.8402325 9.1049323,8.6125316 6.8900273,8.508986 L 6.8900273,7.1117292 L 29.649788,7.1117292 L 29.649788,8.508986 C 27.538354,8.5711314 25.985848,8.7574321 24.992265,9.0678887 C 23.99864,9.3784345 23.274137,10.009787 22.818755,10.961948 C 22.363334,11.914194 22.135633,13.4046 22.135652,15.43317 L 22.135652,49.588336 C 22.135633,51.534148 22.363334,52.993503 22.818755,53.966407 C 23.274137,54.939311 24.01934,55.591363 25.054366,55.922567 C 26.110048,56.274466 27.641854,56.471117 29.649788,56.51252 L 29.649788,57.909777 L 6.8900273,57.909777"
       id="kamala" />
  </g>
</svg>
