<?xml version="1.0" encoding="UTF-8" standalone="no"?>
<!-- Created with Inkscape (http://www.inkscape.org/) -->
<svg
   xmlns:dc="http://purl.org/dc/elements/1.1/"
   xmlns:cc="http://creativecommons.org/ns#"
   xmlns:rdf="http://www.w3.org/1999/02/22-rdf-syntax-ns#"
   xmlns:svg="http://www.w3.org/2000/svg"
   xmlns="http://www.w3.org/2000/svg"
   xmlns:sodipodi="http://sodipodi.sourceforge.net/DTD/sodipodi-0.dtd"
   xmlns:inkscape="http://www.inkscape.org/namespaces/inkscape"
   width="64px"
   height="64px"
   id="svg8084"
   sodipodi:version="0.32"
   inkscape:version="0.46"
   sodipodi:docname="jupiter.svg"
   inkscape:output_extension="org.inkscape.output.svg.inkscape">
  <defs
     id="defs8086">
    <inkscape:perspective
       sodipodi:type="inkscape:persp3d"
       inkscape:vp_x="0 : 32 : 1"
       inkscape:vp_y="0 : 1000 : 0"
       inkscape:vp_z="64 : 32 : 1"
       inkscape:persp3d-origin="32 : 21.333333 : 1"
       id="perspective8092" />
  </defs>
  <sodipodi:namedview
     id="base"
     pagecolor="#ffffff"
     bordercolor="#666666"
     borderopacity="1.0"
     inkscape:pageopacity="0.0"
     inkscape:pageshadow="2"
     inkscape:zoom="5.5"
     inkscape:cx="-6.4438986"
     inkscape:cy="32"
     inkscape:current-layer="layer1"
     showgrid="true"
     inkscape:document-units="px"
     inkscape:grid-bbox="true"
     inkscape:window-width="1280"
     inkscape:window-height="970"
     inkscape:window-x="-4"
     inkscape:window-y="27" />
  <metadata
     id="metadata8089">
    <rdf:RDF>
      <cc:Work
         rdf:about="">
        <dc:format>image/svg+xml</dc:format>
        <dc:type
           rdf:resource="http://purl.org/dc/dcmitype/StillImage" />
      </cc:Work>
    </rdf:RDF>
  </metadata>
  <g
     id="layer1"
     inkscape:label="Layer 1"
     inkscape:groupmode="layer">
    <path
       transform="scale(1.1082546,0.9023197)"
       style="font-size:69.36752319px;font-style:normal;font-variant:normal;font-weight:normal;font-stretch:normal;text-align:start;line-height:125%;writing-mode:lr-tb;text-anchor:start;fill:#ff0000;fill-opacity:1;stroke:none;stroke-width:1px;stroke-linecap:butt;stroke-linejoin:miter;stroke-opacity:1;font-family:StarFont Serif;-inkscape-font-specification:StarFont Serif"
       d="M 29.009715,52.568933 L 10.211387,52.568933 L 10.211387,51.993128 C 12.921046,48.94476 14.942005,46.404448 16.274271,44.372185 C 17.629091,42.339949 18.532313,40.714149 18.98394,39.494781 C 19.458116,38.252869 19.841985,36.898036 20.135549,35.430277 C 20.496821,33.35289 20.677465,31.32064 20.677483,29.333522 C 20.677465,27.391624 20.508111,25.483568 20.16942,23.609347 C 19.830695,21.712615 19.198439,19.793269 18.272652,17.8513 C 17.369415,15.909414 16.138775,14.159421 14.580728,12.601317 C 14.219428,12.601363 13.801688,12.770717 13.327506,13.10938 C 12.875885,13.425553 12.458145,13.752971 12.074285,14.091635 C 11.690406,14.430388 11.272666,14.723935 10.821063,14.972277 C 10.392024,15.198126 9.8613813,15.311029 9.2291322,15.310986 C 8.3259038,15.311029 7.6146164,14.983611 7.095268,14.328731 C 6.5759111,13.651359 6.3162347,12.849749 6.3162382,11.9239 C 6.3162347,10.614274 6.6775236,9.5981497 7.4001057,8.8755223 C 8.1452594,8.1304138 9.1726745,7.7578347 10.482354,7.7577839 C 12.108146,7.7578347 13.406528,8.1304138 14.377503,8.8755223 C 18.329088,11.65298 21.422624,15.085224 23.658119,19.172264 C 25.916153,23.259383 27.146793,28.05775 27.350043,33.56738 C 27.146793,35.464171 26.819375,37.123842 26.367788,38.546396 C 25.916153,39.946411 25.238737,41.380276 24.335536,42.847996 C 23.432293,44.293167 22.032298,46.144772 20.135549,48.402817 L 20.135549,48.877009 L 29.009715,48.877009 C 29.619364,48.606052 29.924201,48.289924 29.924228,47.928625 L 29.924228,42.23832 C 29.924201,41.989951 29.800008,41.775435 29.551649,41.594774 C 29.325817,41.414147 29.05485,41.323824 28.738748,41.323807 L 28.738748,40.985098 L 37.816139,40.985098 L 37.816139,41.323807 C 37.499976,41.323824 37.217719,41.414147 36.969367,41.594774 C 36.743528,41.775435 36.630625,41.989951 36.630659,42.23832 L 36.630659,47.928625 C 36.630625,48.267344 36.912882,48.583472 37.47743,48.877009 L 38.866136,48.877009 C 41.033832,48.877019 42.772535,48.741535 44.082248,48.470559 C 45.391879,48.199602 46.566068,47.578637 47.604818,46.607661 C 48.666059,45.63671 49.614442,44.202845 50.44997,42.306062 L 51.432225,42.306062 L 48.722556,52.568933 L 37.47743,52.568933 C 37.274171,52.636681 37.082236,52.749583 36.901626,52.907642 C 36.720947,53.065711 36.630625,53.246355 36.630659,53.449575 L 36.630659,55.752794 C 36.653206,57.491499 36.879011,58.801171 37.308076,59.681814 C 37.759653,60.562454 38.414489,61.126968 39.272586,61.375357 C 40.153191,61.646321 41.541895,61.804384 43.438702,61.849549 L 43.438702,63.170512 L 23.387152,63.170512 L 23.387152,61.849549 C 25.396801,61.804384 26.841956,61.61245 27.722622,61.273744 C 28.603239,60.957614 29.190333,60.3931 29.483907,59.580201 C 29.777428,58.789881 29.924201,57.51408 29.924228,55.752794 L 29.924228,53.449575 C 29.924201,53.246355 29.833879,53.065711 29.653261,52.907642 C 29.47259,52.749583 29.258075,52.636681 29.009715,52.568933"
       id="kamala" />
  </g>
</svg>
