<?xml version="1.0" encoding="UTF-8" standalone="no"?>
<!-- Created with Inkscape (http://www.inkscape.org/) -->
<svg
   xmlns:dc="http://purl.org/dc/elements/1.1/"
   xmlns:cc="http://creativecommons.org/ns#"
   xmlns:rdf="http://www.w3.org/1999/02/22-rdf-syntax-ns#"
   xmlns:svg="http://www.w3.org/2000/svg"
   xmlns="http://www.w3.org/2000/svg"
   xmlns:sodipodi="http://sodipodi.sourceforge.net/DTD/sodipodi-0.dtd"
   xmlns:inkscape="http://www.inkscape.org/namespaces/inkscape"
   width="64px"
   height="64px"
   id="svg9382"
   sodipodi:version="0.32"
   inkscape:version="0.46"
   sodipodi:docname="ketu.svg"
   inkscape:output_extension="org.inkscape.output.svg.inkscape">
  <defs
     id="defs9384">
    <inkscape:perspective
       sodipodi:type="inkscape:persp3d"
       inkscape:vp_x="0 : 32 : 1"
       inkscape:vp_y="0 : 1000 : 0"
       inkscape:vp_z="64 : 32 : 1"
       inkscape:persp3d-origin="32 : 21.333333 : 1"
       id="perspective9390" />
  </defs>
  <sodipodi:namedview
     id="base"
     pagecolor="#ffffff"
     bordercolor="#666666"
     borderopacity="1.0"
     inkscape:pageopacity="0.0"
     inkscape:pageshadow="2"
     inkscape:zoom="5.5"
     inkscape:cx="-1.0083056"
     inkscape:cy="32"
     inkscape:current-layer="layer1"
     showgrid="true"
     inkscape:document-units="px"
     inkscape:grid-bbox="true"
     inkscape:window-width="1280"
     inkscape:window-height="970"
     inkscape:window-x="-4"
     inkscape:window-y="27" />
  <metadata
     id="metadata9387">
    <rdf:RDF>
      <cc:Work
         rdf:about="">
        <dc:format>image/svg+xml</dc:format>
        <dc:type
           rdf:resource="http://purl.org/dc/dcmitype/StillImage" />
      </cc:Work>
    </rdf:RDF>
  </metadata>
  <g
     id="layer1"
     inkscape:label="Layer 1"
     inkscape:groupmode="layer">
    <path
       transform="scale(1.0003054,0.9996947)"
       style="font-size:62.53435516px;font-style:normal;font-variant:normal;font-weight:normal;font-stretch:normal;text-align:start;line-height:125%;writing-mode:lr-tb;text-anchor:start;fill:#008080;fill-opacity:1;stroke:none;stroke-width:1px;stroke-linecap:butt;stroke-linejoin:miter;stroke-opacity:1;font-family:StarFont Serif;-inkscape-font-specification:StarFont Serif"
       d="M 16.402443,21.994505 C 17.379529,21.994536 18.295558,21.780796 19.150535,21.353284 C 20.005481,20.905479 20.687414,20.193011 21.196336,19.215879 C 21.705225,18.238814 21.959677,17.017441 21.959695,15.551757 C 21.959677,14.086146 21.695046,12.88513 21.165802,11.948703 C 20.636523,11.012358 19.944412,10.330425 19.089466,9.9029013 C 18.254846,9.4754638 17.359173,9.2617235 16.402443,9.2616799 C 14.896071,9.2617235 13.572917,9.780807 12.432977,10.818932 C 11.313377,11.857141 10.753581,13.434748 10.753588,15.551757 C 10.753581,17.709553 11.293021,19.327872 12.371908,20.406719 C 13.450779,21.465274 14.79429,21.994536 16.402443,21.994505 M 47.608552,21.994505 C 49.196293,21.994536 50.529625,21.475453 51.608552,20.437253 C 52.687384,19.378762 53.226824,17.750265 53.226873,15.551757 C 53.226824,14.106503 52.952015,12.915664 52.402445,11.979237 C 51.852779,11.022536 51.15049,10.330425 50.295575,9.9029013 C 49.440568,9.4754638 48.544894,9.2617235 47.608552,9.2616799 C 46.061436,9.2617235 44.728104,9.780807 43.608552,10.818932 C 42.509276,11.857141 41.959658,13.434748 41.959697,15.551757 C 41.959658,17.729909 42.48892,19.348228 43.547483,20.406719 C 44.626323,21.465274 45.980011,21.994536 47.608552,21.994505 M 38.203971,15.551757 C 38.203937,13.760447 38.641595,12.213375 39.516948,10.910535 C 40.39223,9.6077792 41.552534,8.6306808 42.997865,7.9792371 C 44.443117,7.3278831 45.980011,7.0021836 47.608552,7.0021378 C 49.237005,7.0021836 50.763721,7.3278831 52.188705,7.9792371 C 53.613592,8.6306808 54.763718,9.6077792 55.639087,10.910535 C 56.534708,12.193018 56.982545,13.740091 56.982598,15.551757 C 56.982545,17.322785 56.565243,18.859679 55.73069,20.162444 C 54.896033,21.465274 53.756085,22.462729 52.310842,23.154811 C 50.885859,23.846952 49.31843,24.193007 47.608552,24.192979 C 45.898586,24.193007 44.453295,23.918198 43.272674,23.368551 C 43.537265,24.304966 43.873143,25.159927 44.280307,25.933437 C 44.687391,26.686644 45.2879,27.582317 46.081834,28.62046 C 46.896041,29.638295 47.883317,30.839311 49.043666,32.223513 C 50.203926,33.5874 51.455833,35.083582 52.799392,36.712063 C 54.448196,38.64592 55.272623,40.722254 55.272675,42.941071 C 55.272623,44.752784 54.702649,46.513597 53.562751,48.223514 C 52.422753,49.913085 50.82479,51.419445 48.768857,52.742599 C 46.712835,54.065753 44.351514,55.093742 41.684887,55.826568 C 39.018185,56.579745 36.219206,56.956335 33.28794,56.956339 L 31.822291,56.956339 C 31.51692,56.956335 31.262467,56.956335 31.058933,56.956339 C 30.855343,56.976692 30.631425,56.997048 30.387177,57.017408 C 26.539826,57.017404 22.946954,56.366005 19.60855,55.06321 C 16.270115,53.76041 13.603451,52.019953 11.60855,49.841835 C 9.633989,47.663723 8.6467126,45.363471 8.6467173,42.941071 C 8.6467126,40.722254 9.4813174,38.64592 11.150534,36.712063 C 13.002943,34.493252 14.509302,32.691727 15.669619,31.307483 C 16.850267,29.902926 17.705228,28.85458 18.234504,28.162445 C 18.784108,27.470358 19.262479,26.717178 19.669619,25.902902 C 20.097084,25.068324 20.422783,24.223542 20.646718,23.368551 C 19.466041,23.918198 18.051284,24.193007 16.402443,24.192979 C 14.672152,24.193007 13.074189,23.846952 11.60855,23.154811 C 10.163251,22.442373 9.0334806,21.43474 8.2192364,20.13191 C 7.4049834,18.829145 6.9978591,17.302428 6.9978623,15.551757 C 6.9978591,13.760447 7.4355178,12.213375 8.3108394,10.910535 C 9.1861523,9.6077792 10.346457,8.6306808 11.791756,7.9792371 C 13.237039,7.3278831 14.773933,7.0021836 16.402443,7.0021378 C 18.946957,7.0021836 21.13525,7.7350074 22.967329,9.2006112 C 24.799369,10.666302 25.715399,12.742636 25.715421,15.429619 C 25.715399,19.419475 24.962219,23.266799 23.455879,26.971605 C 21.949499,30.676462 19.801918,34.757883 17.01313,39.21588 C 16.056375,40.722254 15.578004,42.198079 15.578015,43.643362 C 15.578004,45.536499 16.290471,47.266777 17.71542,48.834202 C 19.160698,50.381278 21.145429,51.612829 23.669619,52.528858 C 26.214126,53.444888 28.982571,53.902903 31.974963,53.902904 C 34.967299,53.902903 37.725566,53.444888 40.249773,52.528858 C 42.794263,51.612829 44.789172,50.3711 46.234506,48.803667 C 47.679755,47.236243 48.402401,45.516143 48.402445,43.643362 C 48.402401,42.198079 47.924029,40.722254 46.96733,39.21588 C 45.053803,36.142105 43.496553,33.444907 42.295574,31.124277 C 41.114876,28.783334 40.137777,26.289697 39.364277,23.64336 C 38.590705,20.976725 38.203937,18.279527 38.203971,15.551757"
       id="kamala" />
  </g>
</svg>
