<?xml version="1.0" encoding="UTF-8" standalone="no"?>
<!-- Created with Inkscape (http://www.inkscape.org/) -->
<svg
   xmlns:dc="http://purl.org/dc/elements/1.1/"
   xmlns:cc="http://creativecommons.org/ns#"
   xmlns:rdf="http://www.w3.org/1999/02/22-rdf-syntax-ns#"
   xmlns:svg="http://www.w3.org/2000/svg"
   xmlns="http://www.w3.org/2000/svg"
   xmlns:sodipodi="http://sodipodi.sourceforge.net/DTD/sodipodi-0.dtd"
   xmlns:inkscape="http://www.inkscape.org/namespaces/inkscape"
   width="64px"
   height="64px"
   id="svg2383"
   sodipodi:version="0.32"
   inkscape:version="0.46"
   sodipodi:docname="kronos.svg"
   inkscape:output_extension="org.inkscape.output.svg.inkscape">
  <defs
     id="defs2385">
    <inkscape:perspective
       sodipodi:type="inkscape:persp3d"
       inkscape:vp_x="0 : 32 : 1"
       inkscape:vp_y="0 : 1000 : 0"
       inkscape:vp_z="64 : 32 : 1"
       inkscape:persp3d-origin="32 : 21.333333 : 1"
       id="perspective2391" />
  </defs>
  <sodipodi:namedview
     id="base"
     pagecolor="#ffffff"
     bordercolor="#666666"
     borderopacity="1.0"
     inkscape:pageopacity="0.0"
     inkscape:pageshadow="2"
     inkscape:zoom="5.5"
     inkscape:cx="-4.2727273"
     inkscape:cy="32"
     inkscape:current-layer="layer1"
     showgrid="true"
     inkscape:document-units="px"
     inkscape:grid-bbox="true"
     inkscape:window-width="1280"
     inkscape:window-height="970"
     inkscape:window-x="-4"
     inkscape:window-y="27" />
  <metadata
     id="metadata2388">
    <rdf:RDF>
      <cc:Work
         rdf:about="">
        <dc:format>image/svg+xml</dc:format>
        <dc:type
           rdf:resource="http://purl.org/dc/dcmitype/StillImage" />
      </cc:Work>
    </rdf:RDF>
  </metadata>
  <g
     id="layer1"
     inkscape:label="Layer 1"
     inkscape:groupmode="layer">
    <path
       transform="scale(0.9396237,1.0642559)"
       style="font-size:58.81263733px;font-style:normal;font-variant:normal;font-weight:normal;font-stretch:normal;text-align:start;line-height:125%;writing-mode:lr-tb;text-anchor:start;fill:#800080;fill-opacity:1;stroke:none;stroke-width:1px;stroke-linecap:butt;stroke-linejoin:miter;stroke-opacity:1;font-family:StarFont Serif;-inkscape-font-specification:StarFont Serif"
       d="M 36.970977,39.199995 L 44.207688,39.199995 L 44.207688,42.445029 L 36.970977,42.445029 L 36.970977,45.862364 C 36.970944,47.661972 37.181536,49.011675 37.602753,49.911477 C 38.023904,50.830423 38.713114,51.443054 39.670385,51.749372 C 40.627586,52.055685 42.034723,52.227988 43.8918,52.26628 L 43.8918,53.558549 L 24.249298,53.558549 L 24.249298,52.26628 C 26.240329,52.227988 27.714472,52.026968 28.671733,51.66322 C 29.648089,51.318613 30.289437,50.715555 30.595779,49.854042 C 30.921213,49.011675 31.083943,47.681117 31.08397,45.862364 L 31.08397,42.445029 L 24.076995,42.445029 L 24.076995,39.199995 L 31.08397,39.199995 L 31.08397,19.758513 C 31.083943,18.514136 30.720193,17.154861 29.99272,15.680684 C 29.284339,14.206574 28.240952,12.97174 26.862555,11.976177 C 25.484112,10.961544 23.828094,10.454209 21.894495,10.45417 C 20.401189,10.569078 18.840895,10.990262 17.213607,11.717723 C 15.586292,12.44526 14.1983,13.268483 13.049626,14.187394 C 11.920079,15.087232 11.307448,15.805159 11.211731,16.341177 C 11.211724,16.896408 11.31702,17.384598 11.527619,17.80575 C 11.757349,18.226966 11.977513,18.648149 12.188113,19.069303 C 12.398697,19.490517 12.503993,19.969135 12.504001,20.505158 C 12.427414,21.232687 12.044519,21.864462 11.355317,22.400487 C 10.685244,22.936567 10.043896,23.204593 9.4312703,23.204566 C 8.1102795,22.974856 7.4497866,22.055909 7.4497898,20.447724 C 7.4497866,20.237161 7.4880761,19.844694 7.5646582,19.270322 C 7.9092599,17.336736 8.5123186,15.85302 9.3738361,14.819171 C 10.522514,13.421641 11.920079,12.110228 13.566534,10.884927 C 15.21297,9.6405588 17.050863,8.6163163 19.080219,7.8121962 C 21.128689,6.9890152 23.110167,6.5774037 25.02466,6.5773606 C 26.843388,6.5774037 28.298386,6.7497062 29.38966,7.0942685 C 30.500029,7.4197714 31.342397,7.8313828 31.916766,8.3291042 C 32.510225,8.8269082 33.189862,9.5352629 33.955681,10.45417 C 34.855453,9.458684 35.582952,8.7311846 36.138181,8.27167 C 36.693346,7.8122381 37.526141,7.4197714 38.636569,7.0942685 C 39.746929,6.7497062 41.2115,6.5774037 43.030287,6.5773606 C 44.94472,6.5774037 46.916626,6.9890152 48.946011,7.8121962 C 50.975307,8.6163163 52.832344,9.6501312 54.51713,10.913644 C 56.201815,12.158089 57.59938,13.45993 58.709828,14.819171 C 59.475562,15.738152 60.088193,17.221868 60.547723,19.270322 C 60.624245,19.729826 60.662535,20.084003 60.662591,20.332855 C 60.662535,21.136963 60.490232,21.787883 60.145683,22.285619 C 59.801022,22.783409 59.30326,23.089724 58.652394,23.204566 C 58.077998,23.204593 57.446222,22.946139 56.757064,22.429204 C 56.067802,21.893179 55.665763,21.251831 55.550946,20.505158 C 55.550895,19.969135 55.665763,19.490517 55.895551,19.069303 C 56.125236,18.648149 56.3454,18.226966 56.556045,17.80575 C 56.785729,17.384598 56.900597,16.896408 56.90065,16.341177 C 56.824018,15.824303 56.192243,15.106376 55.005321,14.187394 C 53.837442,13.249338 52.44945,12.426116 50.84134,11.717723 C 49.233137,10.990262 47.682415,10.569078 46.189169,10.45417 C 44.25551,10.454209 42.589919,10.961544 41.192392,11.976177 C 39.813935,12.97174 38.760975,14.206574 38.03351,15.680684 C 37.325122,17.154861 36.970944,18.514136 36.970977,19.758513 L 36.970977,39.199995"
       id="kamala" />
  </g>
</svg>
