<?xml version="1.0" encoding="UTF-8" standalone="no"?>
<!-- Created with Inkscape (http://www.inkscape.org/) -->
<svg
   xmlns:dc="http://purl.org/dc/elements/1.1/"
   xmlns:cc="http://creativecommons.org/ns#"
   xmlns:rdf="http://www.w3.org/1999/02/22-rdf-syntax-ns#"
   xmlns:svg="http://www.w3.org/2000/svg"
   xmlns="http://www.w3.org/2000/svg"
   xmlns:sodipodi="http://sodipodi.sourceforge.net/DTD/sodipodi-0.dtd"
   xmlns:inkscape="http://www.inkscape.org/namespaces/inkscape"
   width="64px"
   height="64px"
   id="svg6996"
   sodipodi:version="0.32"
   inkscape:version="0.46"
   sodipodi:docname="mars.svg"
   inkscape:output_extension="org.inkscape.output.svg.inkscape">
  <defs
     id="defs6998">
    <inkscape:perspective
       sodipodi:type="inkscape:persp3d"
       inkscape:vp_x="0 : 32 : 1"
       inkscape:vp_y="0 : 1000 : 0"
       inkscape:vp_z="64 : 32 : 1"
       inkscape:persp3d-origin="32 : 21.333333 : 1"
       id="perspective7004" />
  </defs>
  <sodipodi:namedview
     id="base"
     pagecolor="#ffffff"
     bordercolor="#666666"
     borderopacity="1.0"
     inkscape:pageopacity="0.0"
     inkscape:pageshadow="2"
     inkscape:zoom="5.5"
     inkscape:cx="-7.7127757"
     inkscape:cy="32"
     inkscape:current-layer="layer1"
     showgrid="true"
     inkscape:document-units="px"
     inkscape:grid-bbox="true"
     inkscape:window-width="1280"
     inkscape:window-height="970"
     inkscape:window-x="-4"
     inkscape:window-y="27" />
  <metadata
     id="metadata7001">
    <rdf:RDF>
      <cc:Work
         rdf:about="">
        <dc:format>image/svg+xml</dc:format>
        <dc:type
           rdf:resource="http://purl.org/dc/dcmitype/StillImage" />
      </cc:Work>
    </rdf:RDF>
  </metadata>
  <g
     id="layer1"
     inkscape:label="Layer 1"
     inkscape:groupmode="layer">
    <path
       transform="scale(1.0296952,0.9711612)"
       style="font-size:64.45036316px;font-style:normal;font-variant:normal;font-weight:normal;font-stretch:normal;text-align:start;line-height:125%;writing-mode:lr-tb;text-anchor:start;fill:#ff0000;fill-opacity:1;stroke:none;stroke-width:1px;stroke-linecap:butt;stroke-linejoin:miter;stroke-opacity:1;font-family:StarFont Serif;-inkscape-font-specification:StarFont Serif"
       d="M 25.176551,54.63301 C 27.27452,54.63301 29.183693,54.181942 30.904073,53.279805 C 32.624399,52.377669 33.988093,50.951035 34.995161,48.999898 C 36.023145,47.048771 36.537153,44.604611 36.537186,41.66741 C 36.537153,38.646315 35.981185,36.160195 34.869281,34.209043 C 33.778294,32.257931 32.37264,30.862767 30.652314,30.023546 C 28.952914,29.163393 27.127661,28.733305 25.176551,28.73328 C 22.029542,28.733305 19.344113,29.771811 17.120255,31.8488 C 14.896371,33.925834 13.784435,37.198701 13.784445,41.66741 C 13.784435,45.989285 14.875391,49.230682 17.057315,51.39161 C 19.260193,53.552545 21.966602,54.63301 25.176551,54.63301 M 47.614592,19.009079 L 40.124755,27.631833 C 39.76806,28.198317 39.558261,28.817225 39.495357,29.488557 C 39.495321,29.761321 39.537281,30.10749 39.621236,30.527064 C 42.28565,33.464276 43.617874,37.177721 43.617914,41.66741 C 43.617874,45.087149 42.810148,48.087277 41.194732,50.667803 C 39.579241,53.248336 37.34488,55.230938 34.491642,56.615614 C 31.659323,58.000287 28.554295,58.692624 25.176551,58.692628 C 22.637959,58.692624 20.246249,58.304495 18.001412,57.528242 C 15.777527,56.751982 13.815905,55.608576 12.11654,54.098022 C 10.417159,52.587469 9.1059141,50.793686 8.1828025,48.716668 C 7.2596816,46.639663 6.7981235,44.289912 6.7981267,41.66741 C 6.7981235,38.058877 7.6583,34.96434 9.3786588,32.383788 C 11.099006,29.803281 13.364837,27.873129 16.176158,26.593326 C 18.987454,25.313579 21.987582,24.673692 25.176551,24.673662 C 27.2955,24.673692 29.204673,24.904471 30.904073,25.366 C 31.743242,25.366029 32.529989,25.271619 33.264316,25.082771 C 33.998583,24.873001 34.565041,24.537322 34.963691,24.075734 L 43.145866,14.729172 C 42.033891,14.876071 40.775096,14.949501 39.369477,14.949462 C 37.061651,14.949501 35.425217,14.645292 34.460172,14.036834 C 33.474085,14.036875 32.529989,13.585807 31.627881,12.683629 C 30.809636,12.159172 30.400528,11.466835 30.400555,10.606615 C 30.400528,9.9353014 30.683757,9.3583538 31.250242,8.8757702 C 31.774712,8.3513178 32.498519,8.0890689 33.421665,8.0890226 C 34.134953,8.0890689 34.648961,8.2464183 34.963691,8.5610711 C 35.236398,8.8548358 35.372768,9.3478638 35.372799,10.040157 C 35.372768,10.33392 35.362278,10.575189 35.34133,10.763964 C 35.341298,10.931847 35.330808,11.120667 35.30986,11.330423 C 35.309828,11.708104 35.456687,11.896923 35.750438,11.896881 C 37.386839,11.896923 39.296012,11.624185 41.477961,11.078663 C 43.659834,10.512249 46.166934,9.7779521 48.999268,8.8757702 C 51.831511,7.9526995 53.688233,7.3967317 54.569441,7.2078652 C 54.44351,8.1520087 54.034402,9.9038316 53.342115,12.463339 C 52.649728,15.022931 52.09376,17.236312 51.67421,19.103489 C 51.275543,20.949757 51.076234,22.60717 51.076281,24.075734 C 51.076234,24.831041 51.149664,25.460438 51.296571,25.963928 C 51.359463,26.341595 51.548282,26.530414 51.863029,26.530386 C 51.96788,26.530414 52.188169,26.509434 52.523897,26.467446 C 52.859527,26.425515 53.132266,26.404535 53.342115,26.404507 C 53.908523,26.404535 54.401551,26.551394 54.8212,26.845085 C 55.177807,27.159812 55.356137,27.684309 55.356188,28.41858 C 55.356137,29.194863 55.114868,29.792791 54.632381,30.212365 C 54.086852,30.820807 53.488924,31.125016 52.838596,31.124992 C 52.06229,31.125016 51.327993,30.757867 50.635703,30.023546 C 49.71254,29.037514 49.198532,28.177337 49.093678,27.443013 C 48.527174,26.666784 48.139046,25.533868 47.929291,24.044264 C 47.719448,22.53374 47.614548,20.855347 47.614592,19.009079"
       id="kamala" />
  </g>
</svg>
