<?xml version="1.0" encoding="UTF-8" standalone="no"?>
<!-- Created with Inkscape (http://www.inkscape.org/) -->
<svg
   xmlns:dc="http://purl.org/dc/elements/1.1/"
   xmlns:cc="http://creativecommons.org/ns#"
   xmlns:rdf="http://www.w3.org/1999/02/22-rdf-syntax-ns#"
   xmlns:svg="http://www.w3.org/2000/svg"
   xmlns="http://www.w3.org/2000/svg"
   xmlns:sodipodi="http://sodipodi.sourceforge.net/DTD/sodipodi-0.dtd"
   xmlns:inkscape="http://www.inkscape.org/namespaces/inkscape"
   width="64px"
   height="64px"
   id="svg9312"
   sodipodi:version="0.32"
   inkscape:version="0.46"
   sodipodi:docname="mc.svg"
   inkscape:output_extension="org.inkscape.output.svg.inkscape">
  <defs
     id="defs9314">
    <inkscape:perspective
       sodipodi:type="inkscape:persp3d"
       inkscape:vp_x="0 : 32 : 1"
       inkscape:vp_y="0 : 1000 : 0"
       inkscape:vp_z="64 : 32 : 1"
       inkscape:persp3d-origin="32 : 21.333333 : 1"
       id="perspective9320" />
  </defs>
  <sodipodi:namedview
     id="base"
     pagecolor="#ffffff"
     bordercolor="#666666"
     borderopacity="1.0"
     inkscape:pageopacity="0.0"
     inkscape:pageshadow="2"
     inkscape:zoom="5.5"
     inkscape:cx="20.717213"
     inkscape:cy="32"
     inkscape:current-layer="layer1"
     showgrid="true"
     inkscape:document-units="px"
     inkscape:grid-bbox="true"
     inkscape:window-width="1280"
     inkscape:window-height="970"
     inkscape:window-x="-4"
     inkscape:window-y="27" />
  <metadata
     id="metadata9317">
    <rdf:RDF>
      <cc:Work
         rdf:about="">
        <dc:format>image/svg+xml</dc:format>
        <dc:type
           rdf:resource="http://purl.org/dc/dcmitype/StillImage" />
      </cc:Work>
    </rdf:RDF>
  </metadata>
  <g
     id="layer1"
     inkscape:label="Layer 1"
     inkscape:groupmode="layer">
    <path
       transform="scale(0.7392065,1.352802)"
       style="font-size:46.26818085px;font-style:normal;font-variant:normal;font-weight:normal;font-stretch:normal;text-align:start;line-height:125%;writing-mode:lr-tb;text-anchor:start;fill:#008000;fill-opacity:1;stroke:none;stroke-width:1px;stroke-linecap:butt;stroke-linejoin:miter;stroke-opacity:1;font-family:StarFont Serif;-inkscape-font-specification:StarFont Serif"
       d="M 57.115897,5.1744459 L 57.115897,6.145897 C 55.82058,6.2212361 54.841599,6.3718485 54.178952,6.5977347 C 53.531271,6.8236858 53.049311,7.2830537 52.733071,7.9758397 C 52.416739,8.6686879 52.258596,9.7380361 52.258641,11.183887 L 52.258641,36.034961 C 52.258596,37.420598 52.409209,38.459824 52.710479,39.152641 C 53.026719,39.86052 53.51621,40.334949 54.178952,40.57593 C 54.85666,40.83197 55.835641,40.997643 57.115897,41.072951 L 57.115897,42.13477 L 41.482312,42.13477 L 41.482312,41.072951 C 42.943218,40.997643 44.027627,40.809378 44.735544,40.508154 C 45.458445,40.206928 45.940405,39.679785 46.181424,38.926722 C 46.437426,38.17366 46.565447,37.006414 46.565486,35.42498 L 46.565486,10.25762 L 46.429935,10.25762 L 32.219639,42.13477 L 31.383739,42.13477 L 17.467138,11.500174 L 17.376771,11.500174 L 17.376771,33.86614 C 17.37676,35.372269 17.459597,36.577169 17.625281,37.480842 C 17.806006,38.384518 18.092169,39.084866 18.483773,39.581887 C 18.875354,40.093969 19.402497,40.455439 20.065205,40.666298 C 20.742948,40.892215 21.6165,41.027766 22.685864,41.072951 L 22.685864,42.13477 L 9.4696108,42.13477 L 9.4696108,41.072951 C 10.975733,40.982582 12.097795,40.756663 12.835802,40.395195 C 13.588858,40.033724 14.123532,39.371029 14.439826,38.407109 C 14.756104,37.428129 14.914247,35.914474 14.914255,33.86614 L 14.914255,11.183887 C 14.914247,9.7380361 14.763635,8.6762185 14.462417,7.9984316 C 14.161185,7.3056455 13.656634,6.8462777 12.948761,6.6203266 C 12.240877,6.3793792 11.126345,6.2212361 9.6051621,6.145897 L 9.6051621,5.1744459 L 20.652594,5.1744459 L 33.620336,33.301343 L 45.955505,5.1744459 L 57.115897,5.1744459 M 73.901667,17.487023 L 74.511648,17.848494 C 73.427171,20.09264 72.214741,21.719254 70.874355,22.728341 C 69.548902,23.73746 68.050308,24.242012 66.37857,24.241997 C 65.489897,24.242012 64.608814,24.068808 63.735319,23.722384 C 62.876772,23.360929 62.055934,22.796133 61.272804,22.027992 C 60.504626,21.259886 59.894646,20.303497 59.442861,19.158823 C 59.006032,18.014188 58.787644,16.681269 58.787696,15.160059 C 58.787644,13.533469 59.043685,12.102651 59.55582,10.867601 C 60.06785,9.6175461 60.760667,8.5707898 61.634274,7.7273289 C 62.522832,6.8688695 63.494282,6.2287667 64.548627,5.8070187 C 65.617918,5.3853372 66.717388,5.1744798 67.847042,5.1744459 C 68.584982,5.1744798 69.368167,5.2949698 70.196598,5.5359161 C 71.024903,5.7618683 71.695129,6.0405012 72.207276,6.3718158 C 72.704232,6.7333183 73.110885,7.2002168 73.427238,7.7725127 C 73.743457,8.32981 73.9016,8.8042391 73.901667,9.1958015 C 73.9016,9.7229748 73.735927,10.15222 73.404646,10.483539 C 73.073232,10.814915 72.606334,10.988119 72.003949,11.003152 C 71.552047,11.00318 71.152924,10.822445 70.806579,10.460947 C 70.475168,10.099506 70.226657,9.6627299 70.061047,9.1506177 L 69.835128,8.2243504 C 69.699514,7.772544 69.556432,7.4186048 69.405882,7.1625318 C 69.255207,6.8914614 68.999166,6.6881346 68.637758,6.5525509 C 68.276227,6.401971 67.779206,6.3266648 67.146694,6.3266321 C 66.483939,6.3266648 65.753469,6.5375222 64.955281,6.9592048 C 64.156977,7.3809517 63.449099,8.1264832 62.831644,9.1958015 C 62.229138,10.26518 61.927913,11.718589 61.927968,13.556035 C 61.927913,15.032063 62.199016,16.364982 62.741276,17.554799 C 63.298486,18.744659 64.051548,19.663394 65.000465,20.311009 C 65.949265,20.958661 66.988491,21.282478 68.118145,21.28246 C 69.036819,21.282478 69.835065,21.124335 70.512885,20.80803 C 71.205638,20.476701 71.823149,20.032395 72.365419,19.475109 C 72.907559,18.902802 73.419641,18.240107 73.901667,17.487023 M 67.892226,27.608188 C 69.835065,26.343055 71.567108,25.710483 73.088359,25.71047 C 73.660621,25.710483 74.165172,25.770728 74.602016,25.891205 C 75.430316,26.071953 76.055358,26.388239 76.477142,26.840064 C 76.898788,27.276852 77.109645,27.811526 77.109715,28.444088 C 77.109645,28.745323 77.064461,29.054079 76.974164,29.370355 C 76.793359,29.852324 76.484603,30.251447 76.047896,30.567725 C 75.611051,30.884019 75.129092,31.042162 74.602016,31.042154 C 74.466397,31.042162 74.232948,31.01204 73.901667,30.951787 C 73.314212,30.816244 72.854844,30.575264 72.523562,30.228847 C 72.19215,29.867386 71.853272,29.475793 71.506928,29.054069 C 71.160454,28.617303 70.791454,28.353731 70.399925,28.263353 C 69.661861,28.263363 69.04435,28.368792 68.547391,28.579639 C 67.959941,28.820629 67.154164,29.159507 66.130059,29.596274 C 65.120897,30.033059 64.31512,30.341815 63.712727,30.522541 C 63.110221,30.703285 62.575547,30.793652 62.108703,30.793644 C 61.822485,30.793652 61.438423,30.733407 60.956517,30.612909 C 59.34491,30.296631 58.539134,29.498385 58.539185,28.218169 C 58.539134,27.947077 58.591848,27.623261 58.697329,27.246718 C 59.088869,26.102075 59.856993,25.529748 61.001701,25.529734 C 61.137198,25.529748 61.370647,25.559871 61.702049,25.620102 C 62.289383,25.770728 62.748751,26.026769 63.080154,26.388226 C 63.411446,26.749709 63.742793,27.141301 64.074197,27.563004 C 64.405488,27.969669 64.766957,28.21818 65.158608,28.308536 C 66.197775,28.308547 67.10898,28.075098 67.892226,27.608188"
       id="kamala" />
  </g>
</svg>
