<?xml version="1.0" encoding="UTF-8" standalone="no"?>
<!-- Created with Inkscape (http://www.inkscape.org/) -->
<svg
   xmlns:dc="http://purl.org/dc/elements/1.1/"
   xmlns:cc="http://creativecommons.org/ns#"
   xmlns:rdf="http://www.w3.org/1999/02/22-rdf-syntax-ns#"
   xmlns:svg="http://www.w3.org/2000/svg"
   xmlns="http://www.w3.org/2000/svg"
   xmlns:sodipodi="http://sodipodi.sourceforge.net/DTD/sodipodi-0.dtd"
   xmlns:inkscape="http://www.inkscape.org/namespaces/inkscape"
   width="64px"
   height="64px"
   id="svg4820"
   sodipodi:version="0.32"
   inkscape:version="0.46"
   sodipodi:docname="mercury.svg"
   inkscape:output_extension="org.inkscape.output.svg.inkscape">
  <defs
     id="defs4822">
    <inkscape:perspective
       sodipodi:type="inkscape:persp3d"
       inkscape:vp_x="0 : 32 : 1"
       inkscape:vp_y="0 : 1000 : 0"
       inkscape:vp_z="64 : 32 : 1"
       inkscape:persp3d-origin="32 : 21.333333 : 1"
       id="perspective4828" />
  </defs>
  <sodipodi:namedview
     id="base"
     pagecolor="#ffffff"
     bordercolor="#666666"
     borderopacity="1.0"
     inkscape:pageopacity="0.0"
     inkscape:pageshadow="2"
     inkscape:zoom="5.5"
     inkscape:cx="-3.8151631"
     inkscape:cy="32"
     inkscape:current-layer="layer1"
     showgrid="true"
     inkscape:document-units="px"
     inkscape:grid-bbox="true"
     inkscape:window-width="1280"
     inkscape:window-height="970"
     inkscape:window-x="-4"
     inkscape:window-y="27" />
  <metadata
     id="metadata4825">
    <rdf:RDF>
      <cc:Work
         rdf:about="">
        <dc:format>image/svg+xml</dc:format>
        <dc:type
           rdf:resource="http://purl.org/dc/dcmitype/StillImage" />
      </cc:Work>
    </rdf:RDF>
  </metadata>
  <g
     id="layer1"
     inkscape:label="Layer 1"
     inkscape:groupmode="layer">
    <path
       transform="scale(1.4185556,0.7049424)"
       style="font-size:88.78978729px;font-style:normal;font-variant:normal;font-weight:normal;font-stretch:normal;text-align:start;line-height:125%;writing-mode:lr-tb;text-anchor:start;fill:#00ffff;fill-opacity:1;stroke:none;stroke-width:1px;stroke-linecap:butt;stroke-linejoin:miter;stroke-opacity:1;font-family:StarFont Serif;-inkscape-font-specification:StarFont Serif"
       d="M 22.53648,54.06466 C 25.657971,54.064681 28.230328,53.067531 30.253561,51.073207 C 32.276734,49.050028 33.288335,45.928515 33.288368,41.708659 C 33.288335,37.48887 32.23338,34.367357 30.123498,32.344111 C 28.013557,30.292048 25.484553,29.265995 22.53648,29.26595 C 20.715575,29.265995 18.981402,29.685087 17.333953,30.523227 C 15.715374,31.361455 14.37139,32.734343 13.301995,34.641894 C 12.232575,36.520623 11.697872,38.876209 11.697883,41.708659 C 11.697872,45.899612 12.723924,49.006674 14.776044,51.029853 C 16.857039,53.053079 19.443848,54.064681 22.53648,54.06466 M 29.213056,26.447914 C 32.507957,27.575176 35.152572,29.439413 37.146909,32.040631 C 39.170075,34.641934 40.181676,37.864607 40.181716,41.708659 C 40.181676,45.17704 39.329041,48.154038 37.623807,50.639663 C 35.918499,53.125337 33.577364,55.090734 30.600396,56.53586 C 29.184124,57.258451 28.215877,57.793154 27.695652,58.139972 C 27.204276,58.486824 26.958601,58.963722 26.958627,59.570667 L 26.958627,62.56212 L 37.363681,62.56212 L 37.363681,67.287748 L 26.958627,67.287748 L 26.958627,71.363061 C 26.987504,73.588587 27.276533,75.264955 27.825715,76.39217 C 28.403746,77.519381 29.24193,78.241954 30.34027,78.559889 C 31.467453,78.90672 33.244981,79.109041 35.67286,79.166851 L 35.67286,80.857672 L 9.8336441,80.857672 L 9.8336441,79.166851 C 11.68342,79.109041 13.114114,78.964526 14.125729,78.733307 C 15.166219,78.530983 15.961049,78.169697 16.51022,77.649447 C 17.088262,77.129192 17.492902,76.377717 17.724143,75.395019 C 17.984252,74.41232 18.114315,73.068335 18.114332,71.363061 L 18.114332,67.287748 L 7.7959878,67.287748 L 7.7959878,62.56212 L 18.114332,62.56212 L 18.114332,59.570667 C 18.114315,58.963722 17.854189,58.486824 17.333953,58.139972 C 16.842587,57.793154 15.87434,57.258451 14.429209,56.53586 C 13.012953,55.813306 11.755677,55.004025 10.657377,54.108014 C 9.5590572,53.183142 8.5474558,52.055929 7.6225703,50.726372 C 6.7265734,49.396863 6.0473553,47.980621 5.584914,46.477642 C 5.1513655,44.97472 4.9345938,43.38506 4.9345982,41.708659 C 4.9345938,39.078529 5.3970401,36.766297 6.3219386,34.771957 C 7.2757284,32.748795 8.5908102,31.043524 10.267188,29.656139 C 11.943546,28.268846 13.836686,27.199438 15.946613,26.447914 C 12.651667,25.11843 9.9926007,22.979615 7.9694054,20.031465 C 5.9461951,17.054522 4.9345938,13.687334 4.9345982,9.9298925 L 6.8855457,9.9298925 C 6.8855393,11.982063 7.4057914,13.831849 8.4463036,15.479254 C 9.4868,17.097876 10.801882,18.427409 12.391553,19.467858 C 13.9812,20.508418 15.715374,21.303247 17.59408,21.852349 C 19.472751,22.372655 21.120216,22.632781 22.53648,22.632728 C 24.588563,22.632781 26.857441,22.170334 29.343119,21.245388 C 31.828739,20.291646 33.924199,18.860953 35.629505,16.953303 C 37.363644,15.016867 38.230731,12.675733 38.230768,9.9298925 L 40.181716,9.9298925 C 40.181676,13.687334 39.170075,17.054522 37.146909,20.031465 C 35.123669,22.979615 32.479054,25.11843 29.213056,26.447914"
       id="kamala" />
  </g>
</svg>
