<?xml version="1.0" encoding="UTF-8" standalone="no"?>
<!-- Created with Inkscape (http://www.inkscape.org/) -->
<svg
   xmlns:dc="http://purl.org/dc/elements/1.1/"
   xmlns:cc="http://creativecommons.org/ns#"
   xmlns:rdf="http://www.w3.org/1999/02/22-rdf-syntax-ns#"
   xmlns:svg="http://www.w3.org/2000/svg"
   xmlns="http://www.w3.org/2000/svg"
   xmlns:sodipodi="http://sodipodi.sourceforge.net/DTD/sodipodi-0.dtd"
   xmlns:inkscape="http://www.inkscape.org/namespaces/inkscape"
   width="64px"
   height="64px"
   id="svg5577"
   sodipodi:version="0.32"
   inkscape:version="0.46"
   sodipodi:docname="nak_23.svg"
   inkscape:output_extension="org.inkscape.output.svg.inkscape">
  <defs
     id="defs5579">
    <inkscape:perspective
       sodipodi:type="inkscape:persp3d"
       inkscape:vp_x="0 : 32 : 1"
       inkscape:vp_y="0 : 1000 : 0"
       inkscape:vp_z="64 : 32 : 1"
       inkscape:persp3d-origin="32 : 21.333333 : 1"
       id="perspective5585" />
    <inkscape:perspective
       id="perspective5632"
       inkscape:persp3d-origin="372.04724 : 350.78739 : 1"
       inkscape:vp_z="744.09448 : 526.18109 : 1"
       inkscape:vp_y="0 : 1000 : 0"
       inkscape:vp_x="0 : 526.18109 : 1"
       sodipodi:type="inkscape:persp3d" />
  </defs>
  <sodipodi:namedview
     id="base"
     pagecolor="#ffffff"
     bordercolor="#666666"
     borderopacity="1.0"
     inkscape:pageopacity="0.0"
     inkscape:pageshadow="2"
     inkscape:zoom="5.5"
     inkscape:cx="-0.81818182"
     inkscape:cy="32"
     inkscape:current-layer="layer1"
     showgrid="true"
     inkscape:document-units="px"
     inkscape:grid-bbox="true"
     inkscape:window-width="1280"
     inkscape:window-height="967"
     inkscape:window-x="-5"
     inkscape:window-y="-3" />
  <metadata
     id="metadata5582">
    <rdf:RDF>
      <cc:Work
         rdf:about="">
        <dc:format>image/svg+xml</dc:format>
        <dc:type
           rdf:resource="http://purl.org/dc/dcmitype/StillImage" />
      </cc:Work>
    </rdf:RDF>
  </metadata>
  <g
     id="layer1"
     inkscape:label="Layer 1"
     inkscape:groupmode="layer">
    <path
       style="fill:#ff0000"
       d="M 18.143585,56.568964 C 17.313157,56.127527 15.559753,49.605729 14.171188,41.793601 C 13.381404,37.350242 12.912862,35.217956 8.5911454,16.399391 C 7.4866927,11.590141 6.7951941,7.4889388 7.0544815,7.2856094 C 7.7333542,6.7532472 56.163129,7.0322951 56.856241,7.5725626 C 57.174947,7.8209863 56.94571,9.9383419 56.346818,12.277798 C 55.747934,14.617254 54.918678,17.952355 54.504025,19.689135 C 54.089371,21.425914 52.451038,27.885011 50.863289,34.042684 C 49.275533,40.200357 47.604216,47.434545 47.14925,50.118659 C 46.694285,52.802773 46.151014,55.451003 45.941978,56.003614 C 45.597919,56.91318 44.300804,57.00753 32.249509,56.999571 C 24.927684,56.994735 18.580018,56.800962 18.143585,56.568964 z M 29.68851,48.135938 C 29.815476,44.804209 29.706603,42.078794 29.446569,42.07946 C 28.351392,42.082266 20.541348,52.8121 21.109633,53.533163 C 21.285517,53.756332 23.235777,53.996232 25.443542,54.066275 L 29.457661,54.193626 L 29.68851,48.135938 z M 41.145666,53.648571 C 40.386227,52.126638 32.062984,41.50653 31.629647,41.50653 C 31.08338,41.50653 30.432404,53.493865 30.956571,53.900812 C 31.560241,54.369483 41.384044,54.126285 41.145666,53.648571 z M 46.36388,47.50023 C 46.867863,44.165426 47.162905,41.346895 47.019521,41.236829 C 46.876136,41.126762 43.663211,40.847783 39.879693,40.616874 C 34.109632,40.264726 33.094417,40.32574 33.582688,40.99532 C 38.984372,48.402803 43.655633,53.563511 44.958898,53.563511 C 45.227655,53.563511 45.859897,50.835034 46.36388,47.50023 z M 23.192039,47.369284 C 29.087947,40.076026 29.161222,40.593282 22.172286,40.170646 C 18.878905,39.971489 15.95634,39.919033 15.677698,40.054078 C 15.195543,40.287756 16.723901,50.722985 17.472436,52.308082 C 18.025582,53.479424 18.77731,52.830318 23.192039,47.369284 z M 28.987556,38.313932 C 29.436612,37.961788 11.727866,14.194884 9.9766737,12.799431 C 9.0187323,12.036088 8.9434526,12.06871 9.3142371,13.086502 C 9.5443147,13.718058 10.735191,19.014518 11.960628,24.856413 C 13.186066,30.698307 14.35412,36.049334 14.556304,36.747583 C 14.895681,37.919635 15.415351,38.031817 21.323409,38.20841 C 24.843133,38.313615 27.915096,38.452821 28.149994,38.517756 C 28.384892,38.582691 28.761795,38.49097 28.987556,38.313932 z M 49.565223,34.186219 C 51.619139,26.492345 54.544286,12.742636 54.266303,12.088669 C 54.031099,11.535336 33.695094,35.836409 32.711805,37.845814 C 32.398149,38.486786 33.839333,38.63582 40.351301,38.63582 L 48.377382,38.63582 L 49.565223,34.186219 z M 46.589822,18.540851 L 53.466648,10.215792 L 50.112732,9.8354839 C 48.268079,9.6263139 43.75369,9.4325409 40.080751,9.4048779 L 33.402682,9.3545789 L 32.966029,12.081754 C 32.72587,13.5817 32.331099,19.717842 32.08876,25.717625 L 31.648143,36.626323 L 35.680573,31.746116 C 37.898408,29.062002 42.807572,23.119633 46.589822,18.540851 z M 31.227862,15.526605 L 31.591997,9.3545789 L 24.166322,9.3482599 C 20.082201,9.3447849 15.510982,9.182541 14.008058,8.9877186 C 9.7306602,8.4332433 9.838186,9.6870009 14.615025,16.065003 C 25.823074,31.029907 28.378501,34.390554 29.118859,35.139017 C 29.920989,35.949929 30.146852,33.849543 31.227862,15.526605 z"
       id="kamala"
       inkscape:label="#path5638" />
  </g>
</svg>
