<?xml version="1.0" encoding="UTF-8" standalone="no"?>
<!-- Created with Inkscape (http://www.inkscape.org/) -->
<svg
   xmlns:dc="http://purl.org/dc/elements/1.1/"
   xmlns:cc="http://creativecommons.org/ns#"
   xmlns:rdf="http://www.w3.org/1999/02/22-rdf-syntax-ns#"
   xmlns:svg="http://www.w3.org/2000/svg"
   xmlns="http://www.w3.org/2000/svg"
   xmlns:sodipodi="http://sodipodi.sourceforge.net/DTD/sodipodi-0.dtd"
   xmlns:inkscape="http://www.inkscape.org/namespaces/inkscape"
   width="64px"
   height="64px"
   id="svg5409"
   sodipodi:version="0.32"
   inkscape:version="0.46"
   sodipodi:docname="nak_21.svg"
   inkscape:output_extension="org.inkscape.output.svg.inkscape">
  <defs
     id="defs5411">
    <inkscape:perspective
       sodipodi:type="inkscape:persp3d"
       inkscape:vp_x="0 : 32 : 1"
       inkscape:vp_y="0 : 1000 : 0"
       inkscape:vp_z="64 : 32 : 1"
       inkscape:persp3d-origin="32 : 21.333333 : 1"
       id="perspective5417" />
    <inkscape:perspective
       id="perspective5464"
       inkscape:persp3d-origin="372.04724 : 350.78739 : 1"
       inkscape:vp_z="744.09448 : 526.18109 : 1"
       inkscape:vp_y="0 : 1000 : 0"
       inkscape:vp_x="0 : 526.18109 : 1"
       sodipodi:type="inkscape:persp3d" />
  </defs>
  <sodipodi:namedview
     id="base"
     pagecolor="#ffffff"
     bordercolor="#666666"
     borderopacity="1.0"
     inkscape:pageopacity="0.0"
     inkscape:pageshadow="2"
     inkscape:zoom="5.5"
     inkscape:cx="-0.81818182"
     inkscape:cy="32"
     inkscape:current-layer="layer1"
     showgrid="true"
     inkscape:document-units="px"
     inkscape:grid-bbox="true"
     inkscape:window-width="1280"
     inkscape:window-height="967"
     inkscape:window-x="-5"
     inkscape:window-y="-3" />
  <metadata
     id="metadata5414">
    <rdf:RDF>
      <cc:Work
         rdf:about="">
        <dc:format>image/svg+xml</dc:format>
        <dc:type
           rdf:resource="http://purl.org/dc/dcmitype/StillImage" />
      </cc:Work>
    </rdf:RDF>
  </metadata>
  <g
     id="layer1"
     inkscape:label="Layer 1"
     inkscape:groupmode="layer">
    <path
       style="fill:#ff0000"
       d="M 27.471737,56.10965 C 17.44837,55.746479 9.001675,55.195398 8.701305,54.885024 C 8.400935,54.57465 11.744505,51.458666 16.13146,47.960614 C 20.518416,44.462563 24.013601,41.177058 23.898539,40.659492 C 23.783476,40.141925 21.677784,37.196766 19.219222,34.114693 C 13.540566,26.995886 7.525686,17.862713 7.536443,16.375214 C 7.540999,15.745187 8.290331,16.607128 9.201626,18.290639 C 10.112921,19.97415 11.725136,22.589333 12.784326,24.102158 C 15.703157,28.271081 25.549708,40.295029 26.023482,40.268928 C 26.252662,40.256302 27.288256,39.457424 28.324802,38.493644 L 30.209431,36.741317 L 20.282739,26.348733 C 12.798699,18.513445 10.001044,15.074815 8.913356,12.374495 C 7.529398,8.9386505 7.520831,8.7460941 8.702905,7.644565 C 9.380636,7.0130134 9.703041,6.8104745 9.41936,7.1944787 C 7.708259,9.5107147 10.237438,14.212923 17.310629,21.865793 C 21.282918,26.163628 21.493968,26.287396 23.229003,25.336555 C 27.904859,22.774073 37.164673,23.239264 40.500474,26.204233 L 42.511659,27.99184 L 47.432761,23.517846 C 53.474136,18.025361 55.113517,15.424953 54.821297,11.798051 C 54.572356,8.7083122 55.124494,9.021073 56.26168,12.613962 C 57.345583,16.038505 57.2386,18.891544 55.923892,21.622134 C 55.308247,22.900804 50.969327,28.055442 46.281849,33.076886 L 37.759162,42.206784 L 42.650216,47.773898 C 45.340296,50.83581 48.15433,54.164283 48.903626,55.170506 L 50.265981,57 L 47.981011,56.88498 C 46.724278,56.821719 37.495104,56.47282 27.471737,56.10965 z M 47.387157,55.002291 C 47.37167,54.702634 43.691003,50.557068 39.207897,45.789921 L 31.056795,37.122382 L 23.007278,43.610602 C 18.580044,47.179123 13.912966,50.916067 12.635993,51.914921 C 11.35902,52.913776 10.306298,53.96582 10.296611,54.252797 C 10.286923,54.539774 13.915262,54.878103 18.359585,55.004638 C 36.403812,55.518382 47.413783,55.517492 47.387157,55.002291 z M 48.242973,29.598075 C 54.848042,22.476614 56.35554,20.067839 56.35554,16.635299 C 56.35554,14.207341 55.532315,14.44517 54.248862,17.243917 C 53.342577,19.220195 37.320625,33.776175 33.661123,35.947924 C 32.804592,36.456237 32.968207,36.933844 34.625393,38.762722 L 36.621228,40.965332 L 39.095506,38.879157 C 40.456358,37.731761 44.572718,33.555274 48.242973,29.598075 z M 36.466432,32.455683 C 38.516795,30.942565 40.194364,29.425079 40.194364,29.083492 C 40.194364,28.741904 39.32063,27.773348 38.252733,26.931146 C 35.60497,24.842973 27.46723,24.713291 25.605097,26.729593 C 24.422119,28.010512 24.515876,28.190199 28.159447,31.625049 C 30.239768,33.5862 32.121096,35.194384 32.340175,35.198791 C 32.559254,35.203199 34.41607,33.9688 36.466432,32.455683 z M 7,12.687171 C 7,11.288774 7.141527,10.716703 7.314505,11.415901 C 7.487483,12.1151 7.487483,13.259242 7.314505,13.958441 C 7.141527,14.657639 7,14.085568 7,12.687171 z"
       id="kamala"
       inkscape:label="#path5470" />
  </g>
</svg>
