<?xml version="1.0" encoding="UTF-8" standalone="no"?>
<!-- Created with Inkscape (http://www.inkscape.org/) -->
<svg
   xmlns:dc="http://purl.org/dc/elements/1.1/"
   xmlns:cc="http://creativecommons.org/ns#"
   xmlns:rdf="http://www.w3.org/1999/02/22-rdf-syntax-ns#"
   xmlns:svg="http://www.w3.org/2000/svg"
   xmlns="http://www.w3.org/2000/svg"
   xmlns:sodipodi="http://sodipodi.sourceforge.net/DTD/sodipodi-0.dtd"
   xmlns:inkscape="http://www.inkscape.org/namespaces/inkscape"
   width="64px"
   height="64px"
   id="svg3937"
   sodipodi:version="0.32"
   inkscape:version="0.46"
   sodipodi:docname="nak_04.svg"
   inkscape:output_extension="org.inkscape.output.svg.inkscape">
  <defs
     id="defs3939">
    <inkscape:perspective
       sodipodi:type="inkscape:persp3d"
       inkscape:vp_x="0 : 32 : 1"
       inkscape:vp_y="0 : 1000 : 0"
       inkscape:vp_z="64 : 32 : 1"
       inkscape:persp3d-origin="32 : 21.333333 : 1"
       id="perspective3945" />
    <inkscape:perspective
       id="perspective3992"
       inkscape:persp3d-origin="372.04724 : 350.78739 : 1"
       inkscape:vp_z="744.09448 : 526.18109 : 1"
       inkscape:vp_y="0 : 1000 : 0"
       inkscape:vp_x="0 : 526.18109 : 1"
       sodipodi:type="inkscape:persp3d" />
  </defs>
  <sodipodi:namedview
     id="base"
     pagecolor="#ffffff"
     bordercolor="#666666"
     borderopacity="1.0"
     inkscape:pageopacity="0.0"
     inkscape:pageshadow="2"
     inkscape:zoom="11.921875"
     inkscape:cx="32"
     inkscape:cy="32"
     inkscape:current-layer="layer1"
     showgrid="true"
     inkscape:document-units="px"
     inkscape:grid-bbox="true"
     inkscape:window-width="1280"
     inkscape:window-height="967"
     inkscape:window-x="-5"
     inkscape:window-y="-3" />
  <metadata
     id="metadata3942">
    <rdf:RDF>
      <cc:Work
         rdf:about="">
        <dc:format>image/svg+xml</dc:format>
        <dc:type
           rdf:resource="http://purl.org/dc/dcmitype/StillImage" />
      </cc:Work>
    </rdf:RDF>
  </metadata>
  <g
     id="layer1"
     inkscape:label="Layer 1"
     inkscape:groupmode="layer">
    <path
       style="fill:#0000ff"
       d="M 30.064996,56.37945 C 25.7707,54.713336 24.045805,48.711954 25.984186,42.181184 C 26.648735,39.942197 27.356128,37.55781 27.556173,36.882545 C 27.895462,35.737248 27.785583,35.720119 25.920109,36.6275 C 22.749002,38.169951 16.836212,39.285345 14.275769,38.824099 C 11.671034,38.354873 7.96696,34.815498 7.2633293,32.123459 C 5.5023834,25.386213 12.772731,23.06149 23.108396,27.056934 C 26.083941,28.207186 28.819187,29.148302 29.18672,29.148302 C 29.554253,29.148302 29.038083,27.809817 28.039676,26.173891 C 25.707794,22.35302 24.917321,16.996222 26.107165,13.077851 C 28.884472,3.9316821 40.858039,5.5297715 40.858039,15.046621 C 40.858039,16.792825 39.440076,22.790017 38.44465,25.253905 C 38.041936,26.250709 38.310775,26.257075 41.769595,25.332633 C 46.996991,23.935503 51.337178,24.634968 54.452726,27.376648 C 56.498023,29.17651 56.869881,29.959625 56.977827,32.694385 C 57.087115,35.463171 56.83934,36.120397 55.164691,37.503754 C 52.102083,40.033643 44.784102,39.441443 38.101065,36.122898 C 35.900199,35.030031 35.895241,35.031335 36.406737,36.568561 C 39.063398,44.552764 39.539453,51.052049 37.656678,53.633226 C 36.762096,54.859647 32.64328,57.187175 31.720054,56.987991 C 31.612782,56.964847 30.868007,56.691004 30.064996,56.37945 z M 35.318264,52.523669 C 36.535844,51.576928 36.836334,50.669507 36.802131,48.042671 C 36.760282,44.828568 35.541203,39.458874 33.944334,35.454892 C 33.169294,33.511564 33.124865,33.495488 32.109558,34.791041 C 27.598195,40.547633 26.04062,48.152104 28.602778,51.912016 C 30.064647,54.057277 33.001872,54.324802 35.318264,52.523669 z M 54.016975,36.098262 C 57.023257,33.485772 56.173674,29.677938 52.231626,28.096324 C 47.559435,26.221765 43.075264,27.116784 37.415813,31.053489 L 34.463076,33.107408 L 37.833392,34.499151 C 45.832313,37.802237 51.420723,38.354432 54.016975,36.098262 z M 24.385908,34.069204 C 27.059533,32.776313 29.062794,31.541568 28.837599,31.325326 C 27.505877,30.046545 17.974738,27.003981 15.352337,27.020513 C 9.66612,27.056358 6.9421012,31.100841 10.235272,34.618067 C 13.178187,37.761206 17.062621,37.61054 24.385908,34.069204 z M 34.105009,27.524827 C 37.929399,22.47253 39.730394,12.027515 37.096394,10.176042 C 34.767954,8.5393501 31.955775,9.0182726 29.381876,11.489848 C 27.475122,13.320801 27.031337,14.259478 27.031337,16.461615 C 27.031337,20.380452 30.771234,29.195263 32.405121,29.12744 C 32.681531,29.115966 33.446481,28.39479 34.105009,27.524827 z"
       id="kamala"
       inkscape:label="#path3998" />
  </g>
</svg>
