<?xml version="1.0" encoding="UTF-8" standalone="no"?>
<!-- Created with Inkscape (http://www.inkscape.org/) -->
<svg
   xmlns:dc="http://purl.org/dc/elements/1.1/"
   xmlns:cc="http://creativecommons.org/ns#"
   xmlns:rdf="http://www.w3.org/1999/02/22-rdf-syntax-ns#"
   xmlns:svg="http://www.w3.org/2000/svg"
   xmlns="http://www.w3.org/2000/svg"
   xmlns:sodipodi="http://sodipodi.sourceforge.net/DTD/sodipodi-0.dtd"
   xmlns:inkscape="http://www.inkscape.org/namespaces/inkscape"
   width="64px"
   height="64px"
   id="svg5241"
   sodipodi:version="0.32"
   inkscape:version="0.46"
   sodipodi:docname="nak_19.svg"
   inkscape:output_extension="org.inkscape.output.svg.inkscape">
  <defs
     id="defs5243">
    <inkscape:perspective
       sodipodi:type="inkscape:persp3d"
       inkscape:vp_x="0 : 32 : 1"
       inkscape:vp_y="0 : 1000 : 0"
       inkscape:vp_z="64 : 32 : 1"
       inkscape:persp3d-origin="32 : 21.333333 : 1"
       id="perspective5249" />
    <inkscape:perspective
       id="perspective5296"
       inkscape:persp3d-origin="372.04724 : 350.78739 : 1"
       inkscape:vp_z="744.09448 : 526.18109 : 1"
       inkscape:vp_y="0 : 1000 : 0"
       inkscape:vp_x="0 : 526.18109 : 1"
       sodipodi:type="inkscape:persp3d" />
  </defs>
  <sodipodi:namedview
     id="base"
     pagecolor="#ffffff"
     bordercolor="#666666"
     borderopacity="1.0"
     inkscape:pageopacity="0.0"
     inkscape:pageshadow="2"
     inkscape:zoom="5.5"
     inkscape:cx="-0.81818182"
     inkscape:cy="32"
     inkscape:current-layer="layer1"
     showgrid="true"
     inkscape:document-units="px"
     inkscape:grid-bbox="true"
     inkscape:window-width="1280"
     inkscape:window-height="967"
     inkscape:window-x="-5"
     inkscape:window-y="-3" />
  <metadata
     id="metadata5246">
    <rdf:RDF>
      <cc:Work
         rdf:about="">
        <dc:format>image/svg+xml</dc:format>
        <dc:type
           rdf:resource="http://purl.org/dc/dcmitype/StillImage" />
      </cc:Work>
    </rdf:RDF>
  </metadata>
  <g
     id="layer1"
     inkscape:label="Layer 1"
     inkscape:groupmode="layer">
    <path
       style="fill:#008080"
       d="M 27.890241,55.695684 C 25.034756,52.025423 18.122657,40.097418 18.048133,38.711449 C 17.98734,37.580851 18.795155,36.604247 21.460928,34.585565 C 24.335768,32.408566 24.929408,31.64962 24.817882,30.293826 C 24.5534,27.078598 24.665417,27.116373 15.395545,27.116373 C 8.7620953,27.116373 6.8117018,26.947325 7.0140068,26.389913 C 7.2030272,25.869102 9.644704,25.617548 15.639274,25.501293 C 23.109041,25.356428 24.000884,25.23075 24.000884,24.322978 C 24.000884,23.764093 24.471555,22.691803 25.04682,21.940111 C 26.063948,20.61104 26.020227,20.510238 23.459347,18.280093 C 20.874806,16.029342 20.073216,14.330679 21.59564,14.330679 C 22.018975,14.330679 23.569612,15.412404 25.041498,16.734513 L 27.717656,19.138347 L 30.145446,18.250577 L 32.573236,17.362807 L 32.696531,12.795612 C 32.764343,10.283654 32.835779,7.8860745 32.855278,7.4676574 C 32.874777,7.0492398 33.196227,6.8797027 33.569612,7.0909078 C 33.942997,7.3021129 34.201056,8.4290312 34.143076,9.5951701 C 33.857317,15.34259 34.137023,17.236472 35.27194,17.238691 C 35.883117,17.239885 37.348692,17.779603 38.528775,18.438063 L 40.674378,19.635263 L 43.095211,17.854723 C 44.426669,16.875426 45.818546,16.074182 46.188268,16.074182 C 47.696285,16.074182 46.702203,17.760002 44.293207,19.287938 C 41.978602,20.756003 41.76708,21.092684 42.144068,22.708693 C 42.865104,25.7995 43.312517,25.975956 50.100677,25.846717 C 53.537657,25.78128 56.563774,25.92364 56.825383,26.163073 C 57.622459,26.892588 55.564682,27.726485 53.210377,27.628022 C 51.988024,27.5769 49.254935,27.571628 47.136847,27.616307 C 43.386557,27.695415 43.2578,27.75123 42.216863,29.749072 L 41.147958,31.800604 L 44.557769,34.705198 L 47.967584,37.609791 L 42.894466,46.746987 C 40.104245,51.772445 37.707298,55.997512 37.567914,56.136023 C 37.42853,56.274535 37.049705,56.143772 36.726081,55.845439 C 36.363981,55.511638 37.002954,54.073634 38.387425,52.106593 C 40.791988,48.690214 45.591645,39.645902 45.588794,38.536573 C 45.587848,38.168846 44.467969,36.691114 43.100171,35.252723 C 40.910729,32.950281 40.474213,32.725758 39.450703,33.375612 C 38.811292,33.781591 37.375328,34.49823 36.25967,34.968144 L 34.231203,35.822532 L 34.609124,41.930475 C 34.882489,46.348578 34.784899,48.038417 34.256383,48.038417 C 33.854519,48.038417 33.485267,47.319222 33.435825,46.440206 C 33.386383,45.561189 33.292386,44.318943 33.226942,43.679658 C 33.161498,43.040373 33.059079,40.882788 32.999342,38.885023 C 32.900622,35.583509 32.766078,35.252723 31.521943,35.252723 C 30.769109,35.252723 29.173544,34.568868 27.976241,33.733046 L 25.799327,32.213368 L 23.509102,34.168921 C 22.249478,35.244476 20.815864,36.459113 20.323292,36.868115 C 18.989487,37.975625 19.622251,39.402644 25.245807,47.969445 C 28.053539,52.246682 30.350775,55.957987 30.350775,56.216789 C 30.350775,57.457117 29.04559,57.180698 27.890241,55.695684 z M 32.890731,30.893964 C 32.890731,29.042381 32.609296,27.697541 32.221815,27.697541 C 31.22801,27.697541 27.17587,30.790869 27.175848,31.549538 C 27.175821,32.493897 29.788637,34.024201 31.462005,34.059904 C 32.774505,34.087908 32.890731,33.83036 32.890731,30.893964 z M 38.129391,33.281375 C 38.740568,32.85675 39.240621,32.289085 39.240621,32.019899 C 39.240621,31.386951 35.34027,27.697541 34.671134,27.697541 C 34.3904,27.697541 34.160709,29.135931 34.160709,30.893964 C 34.160709,33.826805 34.278524,34.088863 35.589434,34.071905 C 36.375233,34.061739 37.518214,33.706001 38.129391,33.281375 z M 41.581488,28.011625 C 41.333901,27.319199 37.335654,26.816662 37.335654,27.47797 C 37.335654,27.717352 37.971271,28.532447 38.748135,29.289291 C 40.075338,30.58229 40.210035,30.603515 40.979156,29.640833 C 41.429352,29.077336 41.700402,28.344193 41.581488,28.011625 z M 28.706251,28.917573 C 29.953226,27.65647 29.312147,27.01784 27.286026,27.502773 C 26.485425,27.69439 25.905851,28.292739 25.905851,28.927659 C 25.905851,30.336302 27.308411,30.331251 28.706251,28.917573 z M 30.204015,25.372869 L 31.858354,25.372869 L 30.03328,23.629365 C 27.80165,21.497477 26.804213,21.427492 26.272757,23.365508 C 25.77945,25.164407 26.342039,26.148215 27.609488,25.703074 C 28.126591,25.521461 29.294129,25.372869 30.204015,25.372869 z M 41.780578,24.281694 C 41.780578,22.066689 40.248498,21.804226 37.926179,23.621392 L 35.748182,25.325631 L 38.76438,25.34925 C 41.300848,25.369112 41.780578,25.199317 41.780578,24.281694 z M 39.240621,20.085204 C 39.240621,19.501281 35.397454,18.349055 34.722757,18.730697 C 34.0638,19.103436 33.960092,23.252029 34.595201,23.833307 C 35.034919,24.235755 39.240621,20.842433 39.240621,20.085204 z M 32.890731,21.304693 C 32.890731,18.891315 31.867222,18.303104 29.776156,19.514743 C 29.04404,19.938957 29.157924,20.348517 30.411145,21.798359 C 32.448056,24.154848 32.890731,24.066714 32.890731,21.304693 z"
       id="kamala"
       inkscape:label="#path5302" />
  </g>
</svg>
