<?xml version="1.0" encoding="UTF-8" standalone="no"?>
<!-- Created with Inkscape (http://www.inkscape.org/) -->
<svg
   xmlns:dc="http://purl.org/dc/elements/1.1/"
   xmlns:cc="http://creativecommons.org/ns#"
   xmlns:rdf="http://www.w3.org/1999/02/22-rdf-syntax-ns#"
   xmlns:svg="http://www.w3.org/2000/svg"
   xmlns="http://www.w3.org/2000/svg"
   xmlns:sodipodi="http://sodipodi.sourceforge.net/DTD/sodipodi-0.dtd"
   xmlns:inkscape="http://www.inkscape.org/namespaces/inkscape"
   width="64px"
   height="64px"
   id="svg5073"
   sodipodi:version="0.32"
   inkscape:version="0.46"
   sodipodi:docname="nak_17.svg"
   inkscape:output_extension="org.inkscape.output.svg.inkscape">
  <defs
     id="defs5075">
    <inkscape:perspective
       sodipodi:type="inkscape:persp3d"
       inkscape:vp_x="0 : 32 : 1"
       inkscape:vp_y="0 : 1000 : 0"
       inkscape:vp_z="64 : 32 : 1"
       inkscape:persp3d-origin="32 : 21.333333 : 1"
       id="perspective5081" />
    <inkscape:perspective
       id="perspective5128"
       inkscape:persp3d-origin="372.04724 : 350.78739 : 1"
       inkscape:vp_z="744.09448 : 526.18109 : 1"
       inkscape:vp_y="0 : 1000 : 0"
       inkscape:vp_x="0 : 526.18109 : 1"
       sodipodi:type="inkscape:persp3d" />
  </defs>
  <sodipodi:namedview
     id="base"
     pagecolor="#ffffff"
     bordercolor="#666666"
     borderopacity="1.0"
     inkscape:pageopacity="0.0"
     inkscape:pageshadow="2"
     inkscape:zoom="5.5"
     inkscape:cx="-0.81818182"
     inkscape:cy="32"
     inkscape:current-layer="layer1"
     showgrid="true"
     inkscape:document-units="px"
     inkscape:grid-bbox="true"
     inkscape:window-width="1280"
     inkscape:window-height="967"
     inkscape:window-x="-5"
     inkscape:window-y="-3" />
  <metadata
     id="metadata5078">
    <rdf:RDF>
      <cc:Work
         rdf:about="">
        <dc:format>image/svg+xml</dc:format>
        <dc:type
           rdf:resource="http://purl.org/dc/dcmitype/StillImage" />
      </cc:Work>
    </rdf:RDF>
  </metadata>
  <g
     id="layer1"
     inkscape:label="Layer 1"
     inkscape:groupmode="layer">
    <path
       style="fill:#008000"
       d="M 29.34623,56.65783 C 29.05883,56.46684 28.823685,54.097773 28.823685,51.393239 C 28.823685,47.048609 28.67389,46.514104 27.537519,46.803893 C 25.552111,47.310197 22.79474,45.79223 21.737144,43.610716 C 21.211391,42.52624 20.424218,41.340279 19.987869,40.975246 C 19.551521,40.610214 19.374579,40.191884 19.594665,40.045625 C 19.961153,39.802076 23.65686,40.291561 27.717755,41.121505 C 29.328539,41.450708 29.363609,41.288892 29.873249,31.176279 C 30.158186,25.522348 30.391318,18.223102 30.391318,14.955732 C 30.391318,8.9729122 31.071631,7 33.134673,7 C 35.505986,7 36.114529,9.1080307 35.645904,15.699075 C 35.39537,19.222721 35.386724,22.105704 35.626687,22.105704 C 35.866651,22.105704 37.268151,21.402507 38.741134,20.543045 C 41.537529,18.911392 44.5,18.472304 44.5,19.689483 C 44.5,20.151837 43.86245,20.317588 42.667789,20.165822 C 40.31002,19.866297 35.878027,22.688733 35.878027,24.489761 C 35.878027,26.878953 41.481525,25.315049 43.39814,22.39094 C 44.026795,21.431824 44.450784,21.163699 44.46932,21.713539 C 44.511835,22.974634 39.29184,26.694165 37.202115,26.891819 C 35.632234,27.040304 35.437694,27.453298 34.917402,31.742101 C 34.604609,34.320489 34.239454,40.766457 34.105945,46.066476 C 33.972438,51.366494 33.590289,55.995872 33.256725,56.353981 C 32.610009,57.048286 30.213934,57.234467 29.34623,56.65783 z M 28.823685,44.821966 C 28.823685,43.165065 26.60801,41.506206 23.80379,41.063609 C 21.571964,40.711354 21.537508,40.738381 22.049514,42.439656 C 22.715278,44.651831 24.640614,46.066476 26.985629,46.066476 C 28.400951,46.066476 28.823685,45.780251 28.823685,44.821966 z"
       id="kamala"
       inkscape:label="#path5134" />
  </g>
</svg>
