<?xml version="1.0" encoding="UTF-8" standalone="no"?>
<!-- Created with Inkscape (http://www.inkscape.org/) -->
<svg
   xmlns:dc="http://purl.org/dc/elements/1.1/"
   xmlns:cc="http://creativecommons.org/ns#"
   xmlns:rdf="http://www.w3.org/1999/02/22-rdf-syntax-ns#"
   xmlns:svg="http://www.w3.org/2000/svg"
   xmlns="http://www.w3.org/2000/svg"
   xmlns:sodipodi="http://sodipodi.sourceforge.net/DTD/sodipodi-0.dtd"
   xmlns:inkscape="http://www.inkscape.org/namespaces/inkscape"
   width="64px"
   height="64px"
   id="svg5493"
   sodipodi:version="0.32"
   inkscape:version="0.46"
   sodipodi:docname="nak_22.svg"
   inkscape:output_extension="org.inkscape.output.svg.inkscape">
  <defs
     id="defs5495">
    <inkscape:perspective
       sodipodi:type="inkscape:persp3d"
       inkscape:vp_x="0 : 32 : 1"
       inkscape:vp_y="0 : 1000 : 0"
       inkscape:vp_z="64 : 32 : 1"
       inkscape:persp3d-origin="32 : 21.333333 : 1"
       id="perspective5501" />
    <inkscape:perspective
       id="perspective5548"
       inkscape:persp3d-origin="372.04724 : 350.78739 : 1"
       inkscape:vp_z="744.09448 : 526.18109 : 1"
       inkscape:vp_y="0 : 1000 : 0"
       inkscape:vp_x="0 : 526.18109 : 1"
       sodipodi:type="inkscape:persp3d" />
  </defs>
  <sodipodi:namedview
     id="base"
     pagecolor="#ffffff"
     bordercolor="#666666"
     borderopacity="1.0"
     inkscape:pageopacity="0.0"
     inkscape:pageshadow="2"
     inkscape:zoom="5.5"
     inkscape:cx="-0.81818182"
     inkscape:cy="32"
     inkscape:current-layer="layer1"
     showgrid="true"
     inkscape:document-units="px"
     inkscape:grid-bbox="true"
     inkscape:window-width="1280"
     inkscape:window-height="967"
     inkscape:window-x="-5"
     inkscape:window-y="-3" />
  <metadata
     id="metadata5498">
    <rdf:RDF>
      <cc:Work
         rdf:about="">
        <dc:format>image/svg+xml</dc:format>
        <dc:type
           rdf:resource="http://purl.org/dc/dcmitype/StillImage" />
      </cc:Work>
    </rdf:RDF>
  </metadata>
  <g
     id="layer1"
     inkscape:label="Layer 1"
     inkscape:groupmode="layer">
    <path
       style="fill:#0000ff"
       d="M 30.440782,56.460634 C 29.781934,56.171853 28.929092,55.081141 28.545578,54.036831 C 27.770297,51.925735 28.606059,50.15563 31.216858,48.379184 C 32.282674,47.65398 32.689091,46.745923 32.689091,45.08978 C 32.689091,43.005586 32.534643,42.802116 30.952587,42.802116 C 28.253577,42.802116 23.511332,41.208828 20.481356,39.284018 L 17.727263,37.534463 L 16.104669,38.680556 C 15.150519,39.354505 14.482076,40.439535 14.482076,41.314382 C 14.482076,44.498601 8.9621367,46.2489 7.3435107,43.577927 C 6.1956047,41.68371 8.0739567,38.81182 10.763368,38.349166 C 11.845787,38.16296 13.305737,37.422077 14.007703,36.702761 C 15.251947,35.42776 15.24446,35.333494 13.709585,32.949633 C 11.843403,30.051207 11.0071,23.004004 12.340666,21.414281 C 13.083152,20.529176 13.130752,20.566828 12.795492,21.774056 C 12.262727,23.692478 13.592159,26.873293 16.048743,29.557819 L 18.160617,31.86565 L 19.461418,30.320978 C 20.733843,28.810001 20.731911,28.73161 19.372822,26.727327 C 17.816264,24.43183 17.511228,19.619183 18.715632,16.358614 C 20.537257,11.427102 28.329844,7.0002321 35.189534,6.9999999 C 39.729642,6.9998456 45.475103,9.1382048 48.410046,11.920439 C 50.457642,13.861493 50.545974,14.155439 50.545974,19.028236 C 50.545974,23.404912 50.31653,24.412251 48.89485,26.277404 C 47.537104,28.058668 47.38595,28.643372 48.044148,29.568051 C 48.484379,30.186518 49.109804,30.692536 49.433973,30.692536 C 50.152506,30.692536 52.555902,26.555274 53.715927,23.321487 C 54.526699,21.061311 54.596551,21.012827 55.233005,22.26848 C 56.115282,24.009118 54.816303,30.618511 52.977773,33.743464 C 51.699906,35.915452 51.671804,36.228959 52.653975,37.355973 C 53.2455,38.034736 54.030061,38.590088 54.397458,38.590088 C 54.764847,38.590088 55.582846,39.183802 56.215232,39.909454 C 57.18617,41.023586 57.229356,41.475077 56.492861,42.811919 C 54.362087,46.67959 48.958049,44.699797 49.822028,40.368029 C 50.06458,39.151937 49.999462,38.034482 49.677331,37.884795 C 49.3552,37.735107 47.528133,38.400479 45.617181,39.363399 C 43.706236,40.326318 40.567129,41.458128 38.641387,41.878531 C 35.299574,42.608073 35.12981,42.73456 34.91562,44.6545 C 34.723793,46.373992 35.003433,46.849818 36.841362,47.931288 C 42.443418,51.227634 36.517678,59.124208 30.440782,56.460634 z M 36.455941,53.702934 C 37.799529,52.344957 37.830385,52.120622 36.854242,50.807165 C 34.645981,47.83582 29.302375,49.450007 30.353674,52.770846 C 31.323628,55.834733 33.94984,56.235873 36.455941,53.702934 z M 12.395423,42.782228 C 14.031536,40.483719 11.176931,38.239539 9.2492167,40.308802 C 7.9603387,41.692318 7.9058067,42.385624 9.0199717,43.223319 C 10.263969,44.158628 11.533797,43.992692 12.395423,42.782228 z M 55.146438,42.494731 C 56.390432,41.367758 55.139127,39.906347 52.930182,39.906347 C 51.024692,39.906347 50.305725,41.369621 51.624291,42.564157 C 52.722517,43.559076 53.999361,43.533908 55.146438,42.494731 z M 43.366752,39.123691 C 47.538784,37.649232 51.296775,34.537369 52.304995,31.722236 C 52.736179,30.518286 52.959033,29.435545 52.800226,29.316145 C 52.641419,29.196744 51.622428,30.156561 50.535799,31.449071 C 47.01445,35.637622 37.334208,38.478422 30.049002,37.461206 C 24.404742,36.673111 19.684546,34.588242 16.412033,31.437879 C 13.027945,28.180105 12.201483,28.462568 14.591213,32.060187 C 16.809727,35.400047 22.823493,39.44321 26.576204,40.117911 C 31.2554,40.959184 39.565477,40.467119 43.366752,39.123691 z M 32.560537,34.51592 C 32.376703,33.31986 31.919712,33.023493 29.877937,32.776203 C 28.524376,32.612266 26.373909,32.017145 25.099122,31.45371 C 22.804961,30.439731 22.771144,30.439706 21.782915,31.451296 C 21.233789,32.013402 20.784505,32.613867 20.784505,32.785662 C 20.784505,33.3535 24.791009,34.88961 27.537326,35.374721 C 32.271834,36.211026 32.807011,36.119529 32.560537,34.51592 z M 43.368208,34.251383 C 46.875545,33.084834 47.120422,32.801203 45.990614,31.213975 C 45.319223,30.270763 45.105893,30.296656 41.367748,31.775092 C 39.212303,32.627571 37.008077,33.325053 36.469465,33.325053 C 35.894368,33.325053 35.49017,33.862898 35.49017,34.628149 C 35.49017,35.806131 35.708685,35.903712 37.766047,35.644479 C 39.017782,35.486757 41.538754,34.859865 43.368208,34.251383 z M 40.891221,29.031347 C 45.585045,27.215214 47.586262,24.242921 47.256162,19.577861 C 46.977553,15.640494 44.917856,12.98646 40.88106,11.363192 C 37.853804,10.145877 30.886369,10.182467 28.076472,11.430436 C 20.528227,14.782865 19.584238,24.165835 26.360952,28.482186 C 30.264552,30.968539 35.38441,31.162041 40.891221,29.031347 z"
       id="kamala"
       inkscape:label="#path5554" />
  </g>
</svg>
