<?xml version="1.0" encoding="UTF-8" standalone="no"?>
<!-- Created with Inkscape (http://www.inkscape.org/) -->
<svg
   xmlns:dc="http://purl.org/dc/elements/1.1/"
   xmlns:cc="http://creativecommons.org/ns#"
   xmlns:rdf="http://www.w3.org/1999/02/22-rdf-syntax-ns#"
   xmlns:svg="http://www.w3.org/2000/svg"
   xmlns="http://www.w3.org/2000/svg"
   xmlns:sodipodi="http://sodipodi.sourceforge.net/DTD/sodipodi-0.dtd"
   xmlns:inkscape="http://www.inkscape.org/namespaces/inkscape"
   width="64px"
   height="64px"
   id="svg5157"
   sodipodi:version="0.32"
   inkscape:version="0.46"
   sodipodi:docname="nak_18.svg"
   inkscape:output_extension="org.inkscape.output.svg.inkscape">
  <defs
     id="defs5159">
    <inkscape:perspective
       sodipodi:type="inkscape:persp3d"
       inkscape:vp_x="0 : 32 : 1"
       inkscape:vp_y="0 : 1000 : 0"
       inkscape:vp_z="64 : 32 : 1"
       inkscape:persp3d-origin="32 : 21.333333 : 1"
       id="perspective5165" />
    <inkscape:perspective
       id="perspective5212"
       inkscape:persp3d-origin="372.04724 : 350.78739 : 1"
       inkscape:vp_z="744.09448 : 526.18109 : 1"
       inkscape:vp_y="0 : 1000 : 0"
       inkscape:vp_x="0 : 526.18109 : 1"
       sodipodi:type="inkscape:persp3d" />
  </defs>
  <sodipodi:namedview
     id="base"
     pagecolor="#ffffff"
     bordercolor="#666666"
     borderopacity="1.0"
     inkscape:pageopacity="0.0"
     inkscape:pageshadow="2"
     inkscape:zoom="5.5"
     inkscape:cx="-0.81818182"
     inkscape:cy="32"
     inkscape:current-layer="layer1"
     showgrid="true"
     inkscape:document-units="px"
     inkscape:grid-bbox="true"
     inkscape:window-width="1280"
     inkscape:window-height="967"
     inkscape:window-x="-5"
     inkscape:window-y="-3" />
  <metadata
     id="metadata5162">
    <rdf:RDF>
      <cc:Work
         rdf:about="">
        <dc:format>image/svg+xml</dc:format>
        <dc:type
           rdf:resource="http://purl.org/dc/dcmitype/StillImage" />
      </cc:Work>
    </rdf:RDF>
  </metadata>
  <g
     id="layer1"
     inkscape:label="Layer 1"
     inkscape:groupmode="layer">
    <path
       style="fill:#00ffff"
       d="M 29.762218,56.865552 C 27.268966,56.623058 24.030965,55.913703 22.566659,55.289208 C 16.13407,52.545846 9.673041,44.19133 7.7600313,36.14331 C 6.7405585,31.854395 6.7429743,31.112864 7.7897453,27.022331 C 9.8685117,18.899004 14.142163,13.88308 22.931516,9.2506502 C 26.734752,7.2461541 27.937641,6.9463763 31.934427,7.0069911 C 39.502474,7.1217672 49.640393,11.769802 52.943062,16.639035 C 57.002564,22.624091 58.098005,31.483955 55.855466,40.194327 C 53.049648,51.092539 42.131039,58.068542 29.762218,56.865552 z M 36.313517,51.318524 C 35.116292,43.437545 35.248127,43.663541 31.848,43.663541 L 28.765619,43.663541 L 27.562992,47.405977 C 25.406325,54.117281 25.460399,54.210406 31.513992,54.210406 L 36.752832,54.210406 L 36.313517,51.318524 z M 44.390058,51.1594 C 47.933335,48.977053 52.332819,42.522065 53.493056,37.803348 C 54.645217,33.117457 54.048978,25.972697 52.221805,22.569811 C 50.820381,19.959853 45.899643,14.423341 45.407841,14.903171 C 45.277593,15.030255 46.019284,16.807238 47.056045,18.852021 C 49.165705,23.012844 49.470322,27.560468 47.937735,32.01484 C 46.878741,35.092746 42.960919,39.560598 40.019614,41.044594 C 38.042029,42.042359 37.98399,42.207652 38.42235,45.593533 C 39.582047,54.550998 39.304185,54.291846 44.390058,51.1594 z M 23.478556,46.97164 C 24.633107,44.487293 25.577739,42.401481 25.577739,42.336503 C 25.577739,42.271524 24.611263,41.521201 23.430016,40.669117 L 21.282292,39.119874 L 17.502004,41.568769 C 15.422846,42.915661 13.721717,44.328793 13.721717,44.709062 C 13.721717,45.609774 19.747352,51.488635 20.670551,51.488635 C 21.060403,51.488635 22.324006,49.455987 23.478556,46.97164 z M 16.075715,38.925346 L 19.851622,36.568702 L 18.90952,33.992135 C 15.810752,25.517275 20.046565,15.573333 28.367391,11.788961 C 31.011628,10.586343 31.256125,10.323919 29.920286,10.122207 C 26.867829,9.6612867 21.663195,11.994483 17.454354,15.710586 C 10.013203,22.280585 7.4669714,29.521757 9.8204547,37.420462 C 10.453271,39.544303 11.270004,41.281991 11.635417,41.281991 C 12.000832,41.281991 13.998965,40.221501 16.075715,38.925346 z M 38.899414,39.533692 C 43.793051,37.095572 47.020449,30.707761 46.223787,25.036936 C 45.291792,18.402735 38.959657,12.022946 33.307005,12.022946 C 30.108402,12.022946 25.133631,14.980292 22.356464,18.5327 C 20.625966,20.746265 20.314893,21.818444 20.11475,26.259246 C 19.901464,30.991645 20.044807,31.648907 21.858282,34.253736 C 24.401518,37.906776 26.867402,39.760346 30.216656,40.536606 C 33.212647,41.23099 36.180843,40.888144 38.899414,39.533692 z"
       id="kamala"
       inkscape:label="#path5218" />
  </g>
</svg>
