<?xml version="1.0" encoding="UTF-8" standalone="no"?>
<!-- Created with Inkscape (http://www.inkscape.org/) -->
<svg
   xmlns:dc="http://purl.org/dc/elements/1.1/"
   xmlns:cc="http://creativecommons.org/ns#"
   xmlns:rdf="http://www.w3.org/1999/02/22-rdf-syntax-ns#"
   xmlns:svg="http://www.w3.org/2000/svg"
   xmlns="http://www.w3.org/2000/svg"
   xmlns:sodipodi="http://sodipodi.sourceforge.net/DTD/sodipodi-0.dtd"
   xmlns:inkscape="http://www.inkscape.org/namespaces/inkscape"
   width="64px"
   height="64px"
   id="svg5661"
   sodipodi:version="0.32"
   inkscape:version="0.46"
   sodipodi:docname="nak_24.svg"
   inkscape:output_extension="org.inkscape.output.svg.inkscape">
  <defs
     id="defs5663">
    <inkscape:perspective
       sodipodi:type="inkscape:persp3d"
       inkscape:vp_x="0 : 32 : 1"
       inkscape:vp_y="0 : 1000 : 0"
       inkscape:vp_z="64 : 32 : 1"
       inkscape:persp3d-origin="32 : 21.333333 : 1"
       id="perspective5669" />
    <inkscape:perspective
       id="perspective5716"
       inkscape:persp3d-origin="372.04724 : 350.78739 : 1"
       inkscape:vp_z="744.09448 : 526.18109 : 1"
       inkscape:vp_y="0 : 1000 : 0"
       inkscape:vp_x="0 : 526.18109 : 1"
       sodipodi:type="inkscape:persp3d" />
  </defs>
  <sodipodi:namedview
     id="base"
     pagecolor="#ffffff"
     bordercolor="#666666"
     borderopacity="1.0"
     inkscape:pageopacity="0.0"
     inkscape:pageshadow="2"
     inkscape:zoom="5.5"
     inkscape:cx="-0.81818182"
     inkscape:cy="32"
     inkscape:current-layer="layer1"
     showgrid="true"
     inkscape:document-units="px"
     inkscape:grid-bbox="true"
     inkscape:window-width="1280"
     inkscape:window-height="967"
     inkscape:window-x="-5"
     inkscape:window-y="-3" />
  <metadata
     id="metadata5666">
    <rdf:RDF>
      <cc:Work
         rdf:about="">
        <dc:format>image/svg+xml</dc:format>
        <dc:type
           rdf:resource="http://purl.org/dc/dcmitype/StillImage" />
      </cc:Work>
    </rdf:RDF>
  </metadata>
  <g
     id="layer1"
     inkscape:label="Layer 1"
     inkscape:groupmode="layer">
    <path
       style="fill:#008080"
       d="M 52.984165,55.75487 C 50.928765,54.259909 45.787691,49.144273 45.787691,48.594005 C 45.787691,48.358769 47.092003,48.240332 48.686163,48.330813 C 50.280322,48.421293 51.574215,48.381565 51.561481,48.242528 C 51.504626,47.62176 46.37417,43.11631 45.91467,43.283628 C 45.632277,43.386455 43.893599,43.914556 42.050941,44.457187 L 38.700653,45.443788 L 39.110089,47.829262 C 39.685205,51.180036 37.703981,52.827032 33.098111,52.827032 C 30.880532,52.827032 29.375667,52.52117 28.516656,51.895857 C 27.120114,50.87925 26.770275,47.476271 28.010399,46.971356 C 29.400011,46.405576 28.825255,45.831205 26.572465,45.534385 C 25.356493,45.374173 23.306338,44.658126 22.016566,43.943169 C 19.018225,42.281104 17.96595,42.308173 15.338355,44.11496 C 12.938505,45.765144 13.12239,45.941649 17.769133,46.448187 C 19.575847,46.645135 21.05275,46.843418 21.051139,46.888815 C 21.049528,46.934212 18.108436,49.032227 14.515379,51.55107 C 9.8310042,54.834959 7.7459692,55.974932 7.1464312,55.579964 C 6.5468922,55.185001 7.7535692,54.002206 11.411076,51.399725 C 16.975154,47.440634 16.985053,47.49427 10.61957,47.110979 L 8.3007932,46.971356 L 12.715513,43.985005 L 17.130233,40.998655 L 15.633306,39.065646 C 12.126684,34.537479 12.29143,29.40674 16.088581,24.886945 L 17.958703,22.660914 L 14.289137,19.674457 C 9.7781002,16.003173 9.6584852,15.350676 13.53686,15.570802 L 16.454149,15.736379 L 13.730091,12.471579 C 11.032116,9.2380405 10.250177,7 11.818399,7 C 12.2652,7 13.132285,7.8592569 13.745254,8.9094597 C 14.358224,9.9596625 15.905651,12.120231 17.18398,13.710724 C 18.46231,15.301216 19.508216,16.733311 19.508216,16.893156 C 19.508216,17.053002 18.464766,17.183785 17.189439,17.183785 C 14.327897,17.183785 14.33305,17.48474 17.232864,19.719976 C 19.379656,21.374768 19.646846,21.443498 21.259311,20.755715 C 22.2092,20.350547 24.444939,19.545527 26.22762,18.966781 C 28.729151,18.154662 29.305136,17.743979 28.751464,17.167259 C 26.273065,14.585688 30.221965,10.506135 34.773289,10.946196 C 36.127661,11.077148 37.603861,11.476465 38.053734,11.833567 C 38.872374,12.48339 39.26853,15.284805 38.730711,16.620799 C 38.554568,17.058354 39.350988,17.493686 40.806263,17.755318 C 42.105015,17.988811 43.991681,18.757708 44.998855,19.46398 C 46.006029,20.170251 47.273256,20.74811 47.814915,20.74811 C 48.788125,20.74811 52.744023,18.595792 52.744023,18.066288 C 52.744023,17.915758 51.689556,17.550436 50.400762,17.254462 L 48.057503,16.716326 L 50.513964,13.767622 C 54.228682,9.3085256 55.028089,8.5275677 55.877802,8.5275677 C 57.805695,8.5275677 57.224955,10.157208 54.32527,12.884192 C 51.125969,15.892949 51.157459,16.647628 54.483106,16.666798 C 56.511782,16.678493 56.136834,17.470474 53.030114,19.735871 L 50.224503,21.781702 L 52.421724,24.956528 C 56.049133,30.197872 55.309573,34.772291 49.963388,40.162129 C 48.660246,41.475911 48.694113,41.565852 51.849611,45.171453 C 53.616865,47.190791 55.0628,49.051984 55.0628,49.307437 C 55.0628,49.56289 54.01935,49.771897 52.744023,49.771897 C 49.760652,49.771897 49.82415,50.332756 53.130486,53.185397 C 56.82202,56.370378 56.70304,58.459735 52.984165,55.75487 z M 35.356035,50.788207 C 36.508464,49.949301 36.603206,49.544159 35.888579,48.510902 C 35.006067,47.234907 31.862242,46.347169 30.373106,46.95347 C 29.005805,47.510166 29.400253,50.679815 30.908871,51.258679 C 32.89528,52.020875 33.793173,51.925885 35.356035,50.788207 z M 40.763674,42.123273 C 48.173987,40.030172 52.107281,35.172977 50.853215,29.663774 C 50.45039,27.894138 49.47248,26.762873 46.482526,24.607678 C 42.547005,21.770908 40.401141,21.055049 34.083036,20.471221 C 27.306826,19.84506 19.9431,23.709997 17.54098,29.153511 C 15.929192,32.806033 16.44177,34.59464 20.197286,38.4225 C 25.211138,43.532935 31.662842,44.693872 40.763674,42.123273 z M 36.357997,16.572758 C 37.716185,15.678008 37.492038,14.409616 35.797165,13.399152 C 32.833012,11.631955 29.258755,13.448918 30.934116,15.871269 C 31.916297,17.291373 34.717278,17.653634 36.357997,16.572758 z"
       id="kamala"
       inkscape:label="#path5722" />
  </g>
</svg>
