<?xml version="1.0" encoding="UTF-8" standalone="no"?>
<!-- Created with Inkscape (http://www.inkscape.org/) -->
<svg
   xmlns:dc="http://purl.org/dc/elements/1.1/"
   xmlns:cc="http://creativecommons.org/ns#"
   xmlns:rdf="http://www.w3.org/1999/02/22-rdf-syntax-ns#"
   xmlns:svg="http://www.w3.org/2000/svg"
   xmlns="http://www.w3.org/2000/svg"
   xmlns:sodipodi="http://sodipodi.sourceforge.net/DTD/sodipodi-0.dtd"
   xmlns:inkscape="http://www.inkscape.org/namespaces/inkscape"
   width="64px"
   height="64px"
   id="svg4275"
   sodipodi:version="0.32"
   inkscape:version="0.46"
   sodipodi:docname="nak_08.svg"
   inkscape:output_extension="org.inkscape.output.svg.inkscape">
  <defs
     id="defs4277">
    <inkscape:perspective
       sodipodi:type="inkscape:persp3d"
       inkscape:vp_x="0 : 32 : 1"
       inkscape:vp_y="0 : 1000 : 0"
       inkscape:vp_z="64 : 32 : 1"
       inkscape:persp3d-origin="32 : 21.333333 : 1"
       id="perspective4283" />
    <inkscape:perspective
       id="perspective4329"
       inkscape:persp3d-origin="372.04724 : 350.78739 : 1"
       inkscape:vp_z="744.09448 : 526.18109 : 1"
       inkscape:vp_y="0 : 1000 : 0"
       inkscape:vp_x="0 : 526.18109 : 1"
       sodipodi:type="inkscape:persp3d" />
  </defs>
  <sodipodi:namedview
     id="base"
     pagecolor="#ffffff"
     bordercolor="#666666"
     borderopacity="1.0"
     inkscape:pageopacity="0.0"
     inkscape:pageshadow="2"
     inkscape:zoom="5.5"
     inkscape:cx="-0.81818182"
     inkscape:cy="32"
     inkscape:current-layer="layer1"
     showgrid="true"
     inkscape:document-units="px"
     inkscape:grid-bbox="true"
     inkscape:window-width="1280"
     inkscape:window-height="967"
     inkscape:window-x="-5"
     inkscape:window-y="-3" />
  <metadata
     id="metadata4280">
    <rdf:RDF>
      <cc:Work
         rdf:about="">
        <dc:format>image/svg+xml</dc:format>
        <dc:type
           rdf:resource="http://purl.org/dc/dcmitype/StillImage" />
      </cc:Work>
    </rdf:RDF>
  </metadata>
  <g
     id="layer1"
     inkscape:label="Layer 1"
     inkscape:groupmode="layer">
    <path
       style="fill:#008000"
       d="M 27.587226,56.781549 C 25.220586,56.496277 22.190304,55.789636 20.853264,55.211237 C 17.142371,53.605915 11.521567,47.269372 9.084411,41.943767 C 6.6249291,36.569378 6.367565,34.280494 8.1768695,33.87249 C 9.2550167,33.629364 9.4270757,33.006955 9.4677635,29.20278 L 9.514709,24.813584 L 12.659188,24.813584 L 15.803668,24.813584 L 17.147763,20.863307 C 19.919885,12.716078 23.946836,8.2986188 29.584116,7.2209531 C 32.205316,6.7198643 33.166023,6.9800314 35.98428,8.9541696 C 37.808086,10.231713 40.147141,12.265275 41.18218,13.473195 C 42.678963,15.219985 43.292585,15.482292 44.180755,14.755005 C 44.794933,14.252078 45.949498,13.840594 46.746456,13.840594 C 47.958852,13.840594 48.309814,14.44982 48.895695,17.571411 C 49.280819,19.62336 49.639797,21.407679 49.693424,21.536565 C 49.747052,21.665451 51.108476,21.305573 52.718813,20.736837 C 56.656136,19.346257 57.504504,20.343416 56.750799,25.475973 C 55.353209,34.993245 48.007489,48.219817 41.345537,53.214414 C 36.872749,56.56775 33.362926,57.477747 27.587226,56.781549 z M 37.169866,50.253642 C 38.483417,48.81471 40.414644,45.480118 41.461481,42.843437 C 43.103285,38.708204 43.36482,37.260731 43.36482,32.309367 C 43.36482,27.674509 43.071538,25.808643 41.841658,22.618986 C 39.66585,16.976091 37.957461,14.855703 34.306434,13.266547 C 28.274811,10.641207 23.643146,13.306561 20.433445,21.249946 C 18.893529,25.060936 18.6944,26.323385 18.6944,32.275217 C 18.6944,38.222308 18.894116,39.490948 20.427888,43.286734 C 21.381305,45.646257 23.307351,48.914145 24.70799,50.548706 C 27.106084,53.347309 27.474094,53.501657 31.018097,53.195258 C 34.075185,52.930955 35.229869,52.378815 37.169866,50.253642 z M 16.972542,44.092441 C 16.527281,42.179678 16.151645,39.937289 16.137795,39.109356 C 16.123944,38.281423 15.613228,37.195097 15.002868,36.695298 C 13.706526,35.633775 9.2278437,35.465217 9.2278437,36.477952 C 9.2278437,37.938117 17.122547,48.579359 17.629909,47.803066 C 17.713618,47.674986 17.417803,46.005205 16.972542,44.092441 z M 48.957139,39.127016 C 53.349154,32.158709 54.542654,29.620979 55.379144,25.471963 C 55.744506,23.659755 55.596689,23.498865 53.587203,23.521554 C 52.382618,23.535154 50.235245,24.453796 48.815262,25.56298 C 46.265989,27.554279 46.229233,27.646624 45.896745,32.895261 C 45.711544,35.818831 45.001552,39.850199 44.318985,41.853855 C 42.881324,46.074072 42.849945,46.320643 43.750531,46.320643 C 44.120448,46.320643 46.463422,43.08351 48.957139,39.127016 z M 15.538881,30.93673 C 15.538881,28.379807 15.268823,27.685466 13.983516,26.93777 C 12.097271,25.840493 9.8015741,26.579797 9.8015741,28.284518 C 9.8015741,28.968106 10.053363,30.540691 10.361104,31.77915 C 10.833805,33.68146 11.278974,34.030895 13.229758,34.030895 C 15.489357,34.030895 15.538881,33.964534 15.538881,30.93673 z M 48.241531,21.767408 C 48.241531,20.850203 47.979472,19.045144 47.659177,17.756164 C 47.161128,15.751845 46.849831,15.499735 45.508862,16.014693 C 44.646485,16.345863 43.827135,16.79089 43.688085,17.003644 C 43.549035,17.216398 44.001158,19.172638 44.692803,21.350845 C 45.805856,24.856198 46.081961,25.20344 47.095935,24.373137 C 47.726013,23.857191 48.241531,22.684613 48.241531,21.767408 z"
       id="kamala"
       inkscape:label="#path4337" />
  </g>
</svg>
