<?xml version="1.0" encoding="UTF-8" standalone="no"?>
<!-- Created with Inkscape (http://www.inkscape.org/) -->
<svg
   xmlns:dc="http://purl.org/dc/elements/1.1/"
   xmlns:cc="http://creativecommons.org/ns#"
   xmlns:rdf="http://www.w3.org/1999/02/22-rdf-syntax-ns#"
   xmlns:svg="http://www.w3.org/2000/svg"
   xmlns="http://www.w3.org/2000/svg"
   xmlns:sodipodi="http://sodipodi.sourceforge.net/DTD/sodipodi-0.dtd"
   xmlns:inkscape="http://www.inkscape.org/namespaces/inkscape"
   width="64px"
   height="64px"
   id="svg5745"
   sodipodi:version="0.32"
   inkscape:version="0.46"
   sodipodi:docname="nak_25.svg"
   inkscape:output_extension="org.inkscape.output.svg.inkscape">
  <defs
     id="defs5747">
    <inkscape:perspective
       sodipodi:type="inkscape:persp3d"
       inkscape:vp_x="0 : 32 : 1"
       inkscape:vp_y="0 : 1000 : 0"
       inkscape:vp_z="64 : 32 : 1"
       inkscape:persp3d-origin="32 : 21.333333 : 1"
       id="perspective5753" />
    <inkscape:perspective
       id="perspective5800"
       inkscape:persp3d-origin="372.04724 : 350.78739 : 1"
       inkscape:vp_z="744.09448 : 526.18109 : 1"
       inkscape:vp_y="0 : 1000 : 0"
       inkscape:vp_x="0 : 526.18109 : 1"
       sodipodi:type="inkscape:persp3d" />
  </defs>
  <sodipodi:namedview
     id="base"
     pagecolor="#ffffff"
     bordercolor="#666666"
     borderopacity="1.0"
     inkscape:pageopacity="0.0"
     inkscape:pageshadow="2"
     inkscape:zoom="5.5"
     inkscape:cx="-0.81818182"
     inkscape:cy="32"
     inkscape:current-layer="layer1"
     showgrid="true"
     inkscape:document-units="px"
     inkscape:grid-bbox="true"
     inkscape:window-width="1280"
     inkscape:window-height="967"
     inkscape:window-x="-5"
     inkscape:window-y="-3" />
  <metadata
     id="metadata5750">
    <rdf:RDF>
      <cc:Work
         rdf:about="">
        <dc:format>image/svg+xml</dc:format>
        <dc:type
           rdf:resource="http://purl.org/dc/dcmitype/StillImage" />
      </cc:Work>
    </rdf:RDF>
  </metadata>
  <g
     id="layer1"
     inkscape:label="Layer 1"
     inkscape:groupmode="layer">
    <path
       style="fill:#ff0000"
       d="M 25.011016,55.974955 C 18.75487,54.194634 16.363245,52.813327 13.736315,49.46314 C 5.5610866,39.037074 4.8279468,28.437371 11.53164,17.588034 C 14.94938,12.056723 21.868918,8.5025665 31.488353,7.3374535 C 36.000098,6.790988 36.970567,6.8575634 39.880301,7.9131526 C 41.689925,8.5696459 44.963737,10.52832 47.155439,12.265761 C 51.661929,15.83822 54.007739,19.673729 56.058754,26.823104 C 57.229414,30.903757 57.256401,31.533737 56.425453,35.383328 C 54.727624,43.248943 47.921302,52.274514 41.38134,55.332675 C 37.196697,57.289462 30.547062,57.550357 25.011016,55.974955 z M 40.158041,51.951287 C 43.90044,50.231195 49.396702,44.747626 51.547022,40.588605 C 53.123632,37.539219 53.52509,30.020679 52.180648,28.722006 C 51.663073,28.222051 48.5822,27.991652 42.414432,27.991652 L 33.40431,27.991652 L 33.40431,31.643422 L 33.40431,35.295192 L 37.814859,35.295192 C 42.099393,35.295192 42.225408,35.338665 42.225408,36.816763 C 42.225408,38.481359 42.235627,38.478316 37.086581,38.347467 C 33.570961,38.258128 33.517048,38.282866 33.08485,40.18366 C 32.609395,42.274699 33.031534,42.970519 34.979506,43.306658 C 35.713531,43.433321 36.323726,44.093261 36.441005,44.887306 C 36.612043,46.04532 36.351242,46.250502 34.70829,46.250502 L 32.774232,46.250502 L 32.774232,50.254945 L 32.774232,54.259388 L 34.821987,53.861025 C 35.948252,53.641926 38.349476,52.782543 40.158041,51.951287 z M 29.860119,51.04345 C 30.594725,47.495459 30.355319,46.349074 28.836241,46.140675 C 27.797796,45.998214 27.418565,45.539164 27.418565,44.424617 C 27.418565,43.31007 27.797796,42.85102 28.836241,42.708558 C 29.978806,42.551813 30.253918,42.124957 30.253918,40.508929 C 30.253918,38.584895 30.13567,38.488132 27.330624,38.116746 C 25.722813,37.903874 23.45453,37.729705 22.289997,37.729705 C 20.458186,37.729705 20.172663,37.526901 20.172663,36.225785 C 20.172663,34.736969 20.224872,34.723215 25.37081,34.856371 L 30.568957,34.990878 L 30.568957,31.339108 L 30.568957,27.687338 L 21.186794,27.194633 C 15.273544,26.8841 11.579291,26.919597 11.195169,27.290643 C 10.859965,27.614436 10.446325,29.616391 10.275969,31.739432 C 9.8540438,36.997621 11.545695,41.20114 15.911993,45.744174 C 19.298986,49.268261 25.501368,52.945414 28.058578,52.945414 C 29.131186,52.945414 29.56007,52.492623 29.860119,51.04345 z M 50.416428,23.875287 C 50.416428,21.874056 46.138214,16.630712 42.742308,14.469948 C 39.07228,12.134765 35.054245,10.645524 34.046707,11.247018 C 33.676856,11.467817 33.40431,14.316146 33.40431,17.960589 L 33.40431,24.290653 L 38.602457,24.495698 C 51.153631,24.990789 50.416428,25.029503 50.416428,23.875287 z M 30.961941,17.900781 C 31.178082,14.580002 31.143265,11.637651 30.884569,11.362224 C 30.194469,10.627488 25.432288,12.005425 21.235863,14.154074 C 17.579255,16.026328 11.981643,21.296503 11.981643,22.866961 C 11.981643,23.518784 13.840982,23.73574 20.645222,23.877866 C 25.41019,23.977395 29.592335,24.031769 29.938879,23.998695 C 30.285422,23.965622 30.7458,21.22156 30.961941,17.900781 z"
       id="kamala"
       inkscape:label="#path5806" />
  </g>
</svg>
