<?xml version="1.0" encoding="UTF-8" standalone="no"?>
<!-- Created with Inkscape (http://www.inkscape.org/) -->
<svg
   xmlns:dc="http://purl.org/dc/elements/1.1/"
   xmlns:cc="http://creativecommons.org/ns#"
   xmlns:rdf="http://www.w3.org/1999/02/22-rdf-syntax-ns#"
   xmlns:svg="http://www.w3.org/2000/svg"
   xmlns="http://www.w3.org/2000/svg"
   xmlns:sodipodi="http://sodipodi.sourceforge.net/DTD/sodipodi-0.dtd"
   xmlns:inkscape="http://www.inkscape.org/namespaces/inkscape"
   width="64px"
   height="64px"
   id="svg5913"
   sodipodi:version="0.32"
   inkscape:version="0.46"
   sodipodi:docname="nak_27.svg"
   inkscape:output_extension="org.inkscape.output.svg.inkscape">
  <defs
     id="defs5915">
    <inkscape:perspective
       sodipodi:type="inkscape:persp3d"
       inkscape:vp_x="0 : 32 : 1"
       inkscape:vp_y="0 : 1000 : 0"
       inkscape:vp_z="64 : 32 : 1"
       inkscape:persp3d-origin="32 : 21.333333 : 1"
       id="perspective5921" />
    <inkscape:perspective
       id="perspective5968"
       inkscape:persp3d-origin="372.04724 : 350.78739 : 1"
       inkscape:vp_z="744.09448 : 526.18109 : 1"
       inkscape:vp_y="0 : 1000 : 0"
       inkscape:vp_x="0 : 526.18109 : 1"
       sodipodi:type="inkscape:persp3d" />
  </defs>
  <sodipodi:namedview
     id="base"
     pagecolor="#ffffff"
     bordercolor="#666666"
     borderopacity="1.0"
     inkscape:pageopacity="0.0"
     inkscape:pageshadow="2"
     inkscape:zoom="5.5"
     inkscape:cx="-0.81818182"
     inkscape:cy="32"
     inkscape:current-layer="layer1"
     showgrid="true"
     inkscape:document-units="px"
     inkscape:grid-bbox="true"
     inkscape:window-width="1280"
     inkscape:window-height="967"
     inkscape:window-x="-5"
     inkscape:window-y="-3" />
  <metadata
     id="metadata5918">
    <rdf:RDF>
      <cc:Work
         rdf:about="">
        <dc:format>image/svg+xml</dc:format>
        <dc:type
           rdf:resource="http://purl.org/dc/dcmitype/StillImage" />
      </cc:Work>
    </rdf:RDF>
  </metadata>
  <g
     id="layer1"
     inkscape:label="Layer 1"
     inkscape:groupmode="layer">
    <path
       style="fill:#00ffff"
       d="M 8.1890812,50.576226 C 7.6990342,48.26622 9.4983362,39.859728 11.321843,35.939698 C 12.11496,34.234718 12.763873,32.486146 12.763873,32.053982 C 12.763873,31.621816 11.955137,29.602076 10.96668,27.565666 C 7.6672762,20.768268 5.8612662,11.911939 7.7926162,12.000661 C 8.0505992,12.012512 9.0645752,14.468306 10.045896,17.457978 C 11.027216,20.447648 12.568031,24.172558 13.469929,25.735554 L 15.109743,28.577366 L 18.085487,26.261774 C 22.853083,22.551844 27.696641,20.665932 32.457199,20.665932 C 37.871029,20.665932 42.099172,22.779644 46.691601,27.781926 L 50.174606,31.575772 L 51.592091,29.166976 C 52.371707,27.842138 53.718073,24.138724 54.584015,20.937164 C 55.633498,17.05702 56.358581,15.478148 56.758666,16.20185 C 57.560842,17.652882 56.314127,22.977118 53.748544,29.056906 C 51.712107,33.882754 51.706284,34.685408 53.678855,38.663564 C 54.885784,41.097619 55.465328,48.959992 54.484235,49.58972 C 54.154074,49.801639 53.396122,47.829212 52.799896,45.206551 C 52.203672,42.583888 51.211129,39.611842 50.594246,38.602 C 49.536944,36.871192 49.213972,36.927424 44.960831,39.582822 C 36.38844,44.934894 26.02496,44.029959 18.212226,37.247144 C 14.710564,34.207092 14.520171,34.157194 13.581435,36.033519 C 13.042993,37.109747 12.026166,41.017522 11.32182,44.717463 C 10.016959,51.571924 8.8595152,53.736543 8.1890812,50.576226 z M 37.104402,38.423936 C 38.127402,36.427242 38.576471,34.298158 38.576471,31.444706 C 38.576471,25.787378 36.482104,22.837638 32.465301,22.837638 C 28.617707,22.837638 26.570612,26.155884 26.570612,32.392658 C 26.570612,38.664076 28.254426,40.746011 33.652718,41.149252 C 35.089001,41.25654 36.036362,40.50854 37.104402,38.423936 z M 44.879547,36.68773 C 47.955148,33.90482 47.890506,34.050634 46.953749,32.008918 C 46.228068,30.427256 40.899775,25.009342 40.069959,25.009342 C 39.878941,25.009342 39.891833,26.640568 40.098605,28.63429 C 40.33405,30.904484 40.124272,33.775694 39.537297,36.316852 L 38.600038,40.374464 L 40.539207,39.61743 C 41.605749,39.201059 43.558903,37.882694 44.879547,36.68773 z M 25.083537,35.98035 C 24.852813,34.080162 25.074661,31.22045 25.644014,28.755586 C 26.16231,26.511758 26.439077,24.409462 26.259051,24.083818 C 25.73239,23.131156 20.901265,25.812414 18.470958,28.406186 L 16.234417,30.793154 L 17.650683,32.776196 C 18.745702,34.309428 24.103687,38.735852 25.267649,39.068843 C 25.376423,39.099962 25.293572,37.710139 25.083537,35.98035 z"
       id="kamala"
       inkscape:label="#path5974" />
  </g>
</svg>
