<?xml version="1.0" encoding="UTF-8" standalone="no"?>
<!-- Created with Inkscape (http://www.inkscape.org/) -->
<svg
   xmlns:dc="http://purl.org/dc/elements/1.1/"
   xmlns:cc="http://creativecommons.org/ns#"
   xmlns:rdf="http://www.w3.org/1999/02/22-rdf-syntax-ns#"
   xmlns:svg="http://www.w3.org/2000/svg"
   xmlns="http://www.w3.org/2000/svg"
   xmlns:sodipodi="http://sodipodi.sourceforge.net/DTD/sodipodi-0.dtd"
   xmlns:inkscape="http://www.inkscape.org/namespaces/inkscape"
   width="64px"
   height="64px"
   id="svg4653"
   sodipodi:version="0.32"
   inkscape:version="0.46"
   sodipodi:docname="nak_12.svg"
   inkscape:output_extension="org.inkscape.output.svg.inkscape">
  <defs
     id="defs4655">
    <inkscape:perspective
       sodipodi:type="inkscape:persp3d"
       inkscape:vp_x="0 : 32 : 1"
       inkscape:vp_y="0 : 1000 : 0"
       inkscape:vp_z="64 : 32 : 1"
       inkscape:persp3d-origin="32 : 21.333333 : 1"
       id="perspective4661" />
    <inkscape:perspective
       id="perspective4708"
       inkscape:persp3d-origin="372.04724 : 350.78739 : 1"
       inkscape:vp_z="744.09448 : 526.18109 : 1"
       inkscape:vp_y="0 : 1000 : 0"
       inkscape:vp_x="0 : 526.18109 : 1"
       sodipodi:type="inkscape:persp3d" />
  </defs>
  <sodipodi:namedview
     id="base"
     pagecolor="#ffffff"
     bordercolor="#666666"
     borderopacity="1.0"
     inkscape:pageopacity="0.0"
     inkscape:pageshadow="2"
     inkscape:zoom="7.7781746"
     inkscape:cx="10.465384"
     inkscape:cy="32"
     inkscape:current-layer="layer1"
     showgrid="true"
     inkscape:document-units="px"
     inkscape:grid-bbox="true"
     inkscape:window-width="1280"
     inkscape:window-height="967"
     inkscape:window-x="-5"
     inkscape:window-y="-3" />
  <metadata
     id="metadata4658">
    <rdf:RDF>
      <cc:Work
         rdf:about="">
        <dc:format>image/svg+xml</dc:format>
        <dc:type
           rdf:resource="http://purl.org/dc/dcmitype/StillImage" />
      </cc:Work>
    </rdf:RDF>
  </metadata>
  <g
     id="layer1"
     inkscape:label="Layer 1"
     inkscape:groupmode="layer">
    <path
       style="fill:#ff0000"
       d="M 43.649608,55.471122 C 40.671361,53.053518 39.910087,50.76691 39.320278,42.467289 C 39.023308,38.288432 38.465215,34.363874 38.080069,33.746047 C 36.043169,30.478584 31.279116,29.415295 28.193634,31.539494 C 25.690532,33.262754 24.340084,36.35317 23.253986,42.843573 C 22.159402,49.384691 20.395156,53.033528 17.417507,54.914659 C 15.466493,56.147213 14.226115,56.019984 10.954996,54.251782 C 9.1415402,53.271521 7,47.436769 7,43.476164 C 7,37.949175 7.8398635,35.702892 9.7944028,36.002305 C 11.03688,36.19264 11.368279,36.613106 11.224157,37.81632 C 10.333519,45.251881 10.43901,48.038334 11.691113,50.150559 C 14.57597,55.017146 19.208667,51.792973 20.865095,43.765833 C 23.851855,29.291839 26.484032,25.820418 33.855021,26.634197 C 39.453475,27.252283 42.291551,31.763624 42.293204,40.047346 C 42.294829,48.192085 45.223652,53.140291 49.636873,52.454372 C 51.390048,52.181887 51.947028,51.61247 52.904552,49.113721 C 53.539401,47.457023 54.058824,44.677876 54.058824,42.937839 C 54.058824,40.085307 54.203465,39.774136 55.529412,39.774136 C 56.72583,39.774136 57,40.158704 57,41.836875 C 57,45.837776 55.534607,50.328714 53.146336,53.647066 C 51.013664,56.610281 50.426782,57.002572 48.130245,56.999987 C 46.591055,56.998255 44.762088,56.374182 43.649608,55.471122 z M 28.882745,20.957431 C 26.160524,17.581036 26.813655,11.098895 30.148879,8.391403 C 33.495435,5.6747126 36.633366,7.0297819 37.670795,11.639633 C 38.446149,15.08494 38.080858,17.584743 36.381852,20.460298 C 34.795326,23.145481 30.857341,23.406538 28.882745,20.957431 z M 34.747799,18.116788 C 36.854794,15.578232 35.442102,10.015337 32.690443,10.015337 C 29.979372,10.015337 28.141838,15.92099 30.058824,18.473101 C 31.068148,19.816829 33.489487,19.632833 34.747799,18.116788 z"
       id="kamala"
       inkscape:label="#path4714" />
  </g>
</svg>
