<?xml version="1.0" encoding="UTF-8" standalone="no"?>
<!-- Created with Inkscape (http://www.inkscape.org/) -->
<svg
   xmlns:dc="http://purl.org/dc/elements/1.1/"
   xmlns:cc="http://creativecommons.org/ns#"
   xmlns:rdf="http://www.w3.org/1999/02/22-rdf-syntax-ns#"
   xmlns:svg="http://www.w3.org/2000/svg"
   xmlns="http://www.w3.org/2000/svg"
   xmlns:sodipodi="http://sodipodi.sourceforge.net/DTD/sodipodi-0.dtd"
   xmlns:inkscape="http://www.inkscape.org/namespaces/inkscape"
   width="64px"
   height="64px"
   id="svg4021"
   sodipodi:version="0.32"
   inkscape:version="0.46"
   sodipodi:docname="nak_05.svg"
   inkscape:output_extension="org.inkscape.output.svg.inkscape">
  <defs
     id="defs4023">
    <inkscape:perspective
       sodipodi:type="inkscape:persp3d"
       inkscape:vp_x="0 : 32 : 1"
       inkscape:vp_y="0 : 1000 : 0"
       inkscape:vp_z="64 : 32 : 1"
       inkscape:persp3d-origin="32 : 21.333333 : 1"
       id="perspective4029" />
    <inkscape:perspective
       id="perspective4076"
       inkscape:persp3d-origin="372.04724 : 350.78739 : 1"
       inkscape:vp_z="744.09448 : 526.18109 : 1"
       inkscape:vp_y="0 : 1000 : 0"
       inkscape:vp_x="0 : 526.18109 : 1"
       sodipodi:type="inkscape:persp3d" />
  </defs>
  <sodipodi:namedview
     id="base"
     pagecolor="#ffffff"
     bordercolor="#666666"
     borderopacity="1.0"
     inkscape:pageopacity="0.0"
     inkscape:pageshadow="2"
     inkscape:zoom="7.7781746"
     inkscape:cx="8.7940411"
     inkscape:cy="32"
     inkscape:current-layer="layer1"
     showgrid="true"
     inkscape:document-units="px"
     inkscape:grid-bbox="true"
     inkscape:window-width="1280"
     inkscape:window-height="967"
     inkscape:window-x="-5"
     inkscape:window-y="-3" />
  <metadata
     id="metadata4026">
    <rdf:RDF>
      <cc:Work
         rdf:about="">
        <dc:format>image/svg+xml</dc:format>
        <dc:type
           rdf:resource="http://purl.org/dc/dcmitype/StillImage" />
      </cc:Work>
    </rdf:RDF>
  </metadata>
  <g
     id="layer1"
     inkscape:label="Layer 1"
     inkscape:groupmode="layer">
    <path
       style="fill:#ff0000"
       d="M 12.723584,56.859634 C 8.5738892,56.608235 8.3688606,56.489386 8.3688606,54.335315 C 8.3688606,52.23039 8.509927,52.137275 10.418565,52.98234 C 12.233766,53.786035 25.363355,54.251266 26.216116,53.542107 C 26.39881,53.390178 26.842827,48.139882 27.202823,41.874783 L 27.857358,30.483695 L 23.058787,28.624309 C 14.670503,25.373954 9.1912359,18.999647 7.0786651,10.033828 C 6.7411511,8.6014049 7.5015968,9.444353 9.1313369,12.309199 C 13.621378,20.202032 21.935371,24.790423 31.74685,24.790423 C 41.486617,24.790423 48.106368,20.79491 54.310609,11.171513 L 57,7 L 56.429632,10.413056 C 55.260575,17.408637 49.682228,24.376113 42.065772,28.353827 L 38.62273,30.151965 L 38.62273,41.519305 L 38.62273,52.886644 L 44.980534,52.886644 C 48.477328,52.886644 52.353562,52.567316 53.594391,52.177026 C 55.570417,51.555488 55.903943,51.698946 56.281475,53.332813 C 56.518544,54.358786 56.437165,55.339003 56.100632,55.511072 C 55.764099,55.683141 47.671509,56.036644 38.117099,56.296634 C 28.562688,56.556623 19.920338,56.849017 18.911876,56.946397 C 17.903413,57.043778 15.118682,57.004734 12.723584,56.859634 z M 35.66764,41.610493 C 35.895057,31.160639 35.768773,30.003534 34.446678,30.423254 C 33.63564,30.68073 32.386975,30.891393 31.671869,30.891393 C 30.606997,30.891393 30.371674,32.959613 30.371674,42.318625 L 30.371674,53.745858 L 32.89283,53.505865 L 35.413986,53.265872 L 35.66764,41.610493 z"
       id="kamala"
       inkscape:label="#path4082" />
  </g>
</svg>
