<?xml version="1.0" encoding="UTF-8" standalone="no"?>
<!-- Created with Inkscape (http://www.inkscape.org/) -->
<svg
   xmlns:dc="http://purl.org/dc/elements/1.1/"
   xmlns:cc="http://creativecommons.org/ns#"
   xmlns:rdf="http://www.w3.org/1999/02/22-rdf-syntax-ns#"
   xmlns:svg="http://www.w3.org/2000/svg"
   xmlns="http://www.w3.org/2000/svg"
   xmlns:sodipodi="http://sodipodi.sourceforge.net/DTD/sodipodi-0.dtd"
   xmlns:inkscape="http://www.inkscape.org/namespaces/inkscape"
   width="64px"
   height="64px"
   id="svg6452"
   sodipodi:version="0.32"
   inkscape:version="0.46"
   sodipodi:docname="neptune.svg"
   inkscape:output_extension="org.inkscape.output.svg.inkscape">
  <defs
     id="defs6454">
    <inkscape:perspective
       sodipodi:type="inkscape:persp3d"
       inkscape:vp_x="0 : 32 : 1"
       inkscape:vp_y="0 : 1000 : 0"
       inkscape:vp_z="64 : 32 : 1"
       inkscape:persp3d-origin="32 : 21.333333 : 1"
       id="perspective6460" />
  </defs>
  <sodipodi:namedview
     id="base"
     pagecolor="#ffffff"
     bordercolor="#666666"
     borderopacity="1.0"
     inkscape:pageopacity="0.0"
     inkscape:pageshadow="2"
     inkscape:zoom="5.5"
     inkscape:cx="-6.7373751"
     inkscape:cy="32"
     inkscape:current-layer="layer1"
     showgrid="true"
     inkscape:document-units="px"
     inkscape:grid-bbox="true"
     inkscape:window-width="1280"
     inkscape:window-height="970"
     inkscape:window-x="-4"
     inkscape:window-y="27" />
  <metadata
     id="metadata6457">
    <rdf:RDF>
      <cc:Work
         rdf:about="">
        <dc:format>image/svg+xml</dc:format>
        <dc:type
           rdf:resource="http://purl.org/dc/dcmitype/StillImage" />
      </cc:Work>
    </rdf:RDF>
  </metadata>
  <g
     id="layer1"
     inkscape:label="Layer 1"
     inkscape:groupmode="layer">
    <path
       transform="scale(1.0550504,0.947822)"
       style="font-size:65.35823059px;font-style:normal;font-variant:normal;font-weight:normal;font-stretch:normal;text-align:start;line-height:125%;writing-mode:lr-tb;text-anchor:start;fill:#0000ff;fill-opacity:1;stroke:none;stroke-width:1px;stroke-linecap:butt;stroke-linejoin:miter;stroke-opacity:1;font-family:StarFont Serif;-inkscape-font-specification:StarFont Serif"
       d="M 24.889104,34.862618 C 21.570113,34.139274 18.985147,32.575529 17.134197,30.171378 C 15.304495,27.767279 14.006693,24.203642 13.240787,19.480457 C 12.90037,17.374224 12.538687,15.672189 12.155738,14.374345 C 11.772771,13.076584 11.379175,12.151102 10.97495,11.597897 C 10.591984,11.023504 10.240939,10.736285 9.9218141,10.73624 C 9.7941549,10.736285 9.6665022,10.800112 9.5388557,10.92772 C 9.5175741,11.395824 9.4111969,11.714956 9.2197237,11.885115 C 9.0495143,12.034088 8.7622958,12.108552 8.3580674,12.108508 C 7.8687272,12.108552 7.453856,11.906435 7.1134526,11.502157 C 6.7943172,11.097968 6.6347514,10.661821 6.6347546,10.193716 C 6.6347514,8.3215225 7.8155386,7.3854029 10.17712,7.3853545 C 11.96425,7.7683609 13.442894,8.7363936 14.613054,10.289456 C 15.783192,11.842609 16.666123,13.512731 17.26185,15.299828 C 17.857548,17.06573 18.346884,18.852867 18.729857,20.661245 C 19.963817,26.235447 22.410493,29.543778 26.069893,30.58625 C 26.750684,30.245868 27.091091,29.745895 27.091115,29.086329 L 27.091115,20.086807 C 27.091091,19.618783 26.920888,19.257101 26.580504,19.001759 C 26.240073,18.725215 25.7401,18.448634 25.080583,18.172016 C 24.442298,17.874197 23.984876,17.618892 23.708316,17.406099 L 36.92038,17.406099 C 36.665041,17.618892 36.218257,17.863559 35.580026,18.140102 C 34.94173,18.416721 34.441757,18.693302 34.080105,18.969846 C 33.739668,19.246463 33.569464,19.618783 33.569494,20.086807 L 33.569494,29.022503 C 33.569464,29.660793 33.920509,30.182042 34.62263,30.58625 C 38.2607,29.543778 40.696738,26.235447 41.930752,20.661245 C 42.717905,17.29976 43.707213,14.374386 44.89868,11.885115 C 46.111338,9.3959324 47.983578,7.8960136 50.515403,7.3853545 C 51.642954,7.3854029 52.50461,7.6300705 53.100372,8.119358 C 53.71731,8.5874655 54.025804,9.2789175 54.025854,10.193716 C 54.025804,10.704372 53.866238,11.151157 53.547156,11.53407 C 53.227975,11.917073 52.823741,12.108552 52.334455,12.108508 C 51.930173,12.108552 51.642954,12.034088 51.472799,11.885115 C 51.302547,11.736231 51.19617,11.4171 51.153667,10.92772 C 51.025966,10.800112 50.898313,10.736285 50.770708,10.73624 C 50.430254,10.736285 50.057933,11.023504 49.653746,11.597897 C 49.270742,12.151102 48.887784,13.076584 48.504871,14.374345 C 48.121868,15.672189 47.760185,17.374224 47.419822,19.480457 C 46.909168,22.650534 46.164527,25.267414 45.185898,27.331104 C 44.228462,29.39485 42.994486,31.022422 41.483967,32.213823 C 39.994648,33.383996 38.186235,34.213738 36.058724,34.703052 C 35.186398,35.043481 34.548134,35.330699 34.143932,35.564709 C 33.760943,35.798759 33.569464,36.149804 33.569494,36.617844 L 33.569494,44.596144 L 42.537103,44.596144 L 42.537103,48.106596 L 33.569494,48.106596 L 33.569494,53.148881 C 33.63329,54.787093 33.909871,56.010431 34.399237,56.818899 C 34.909817,57.64864 35.611907,58.191164 36.505508,58.446472 C 37.420319,58.701775 38.792586,58.850703 40.622311,58.893257 L 40.622311,60.137872 L 20.293604,60.137872 L 20.293604,58.893257 C 22.314754,58.850703 23.761484,58.701775 24.633799,58.446472 C 25.527346,58.21244 26.154972,57.691191 26.516677,56.882725 C 26.899612,56.074257 27.091091,54.829644 27.091115,53.148881 L 27.091115,48.106596 L 18.155419,48.106596 L 18.155419,44.596144 L 27.091115,44.596144 L 27.091115,36.617844 C 27.091091,36.064702 26.357088,35.479627 24.889104,34.862618"
       id="kamala" />
  </g>
</svg>
