<?xml version="1.0" encoding="UTF-8" standalone="no"?>
<!-- Created with Inkscape (http://www.inkscape.org/) -->
<svg
   xmlns:dc="http://purl.org/dc/elements/1.1/"
   xmlns:cc="http://creativecommons.org/ns#"
   xmlns:rdf="http://www.w3.org/1999/02/22-rdf-syntax-ns#"
   xmlns:svg="http://www.w3.org/2000/svg"
   xmlns="http://www.w3.org/2000/svg"
   xmlns:sodipodi="http://sodipodi.sourceforge.net/DTD/sodipodi-0.dtd"
   xmlns:inkscape="http://www.inkscape.org/namespaces/inkscape"
   width="64px"
   height="64px"
   id="svg8628"
   sodipodi:version="0.32"
   inkscape:version="0.46"
   sodipodi:docname="pluto.svg"
   inkscape:output_extension="org.inkscape.output.svg.inkscape">
  <defs
     id="defs8630">
    <inkscape:perspective
       sodipodi:type="inkscape:persp3d"
       inkscape:vp_x="0 : 32 : 1"
       inkscape:vp_y="0 : 1000 : 0"
       inkscape:vp_z="64 : 32 : 1"
       inkscape:persp3d-origin="32 : 21.333333 : 1"
       id="perspective8636" />
  </defs>
  <sodipodi:namedview
     id="base"
     pagecolor="#ffffff"
     bordercolor="#666666"
     borderopacity="1.0"
     inkscape:pageopacity="0.0"
     inkscape:pageshadow="2"
     inkscape:zoom="5.5"
     inkscape:cx="-6.8471647"
     inkscape:cy="32"
     inkscape:current-layer="layer1"
     showgrid="true"
     inkscape:document-units="px"
     inkscape:grid-bbox="true"
     inkscape:window-width="1280"
     inkscape:window-height="970"
     inkscape:window-x="-4"
     inkscape:window-y="27" />
  <metadata
     id="metadata8633">
    <rdf:RDF>
      <cc:Work
         rdf:about="">
        <dc:format>image/svg+xml</dc:format>
        <dc:type
           rdf:resource="http://purl.org/dc/dcmitype/StillImage" />
      </cc:Work>
    </rdf:RDF>
  </metadata>
  <g
     id="layer1"
     inkscape:label="Layer 1"
     inkscape:groupmode="layer">
    <path
       transform="scale(1.0901403,0.9173131)"
       style="font-size:61.8793602px;font-style:normal;font-variant:normal;font-weight:normal;font-stretch:normal;text-align:start;line-height:125%;writing-mode:lr-tb;text-anchor:start;fill:#0000ff;fill-opacity:1;stroke:none;stroke-width:1px;stroke-linecap:butt;stroke-linejoin:miter;stroke-opacity:1;font-family:StarFont Serif;-inkscape-font-specification:StarFont Serif"
       d="M 23.462188,16.906841 C 23.462168,18.498179 24.026172,19.958547 25.154202,21.287948 C 26.282188,22.617423 27.672055,23.282142 29.323807,23.282107 C 31.035936,23.282142 32.456018,22.627494 33.584056,21.318162 C 34.712034,20.008904 35.276038,18.538465 35.27607,16.906841 C 35.276038,15.194727 34.712034,13.684002 33.584056,12.374661 C 32.456018,11.065412 31.035936,10.410764 29.323807,10.410717 C 27.651912,10.410764 26.251973,11.075483 25.123987,12.404876 C 24.0161,13.714216 23.462168,15.21487 23.462188,16.906841 M 29.323807,7.6309796 C 30.774077,7.63103 32.123658,7.8526031 33.372554,8.2956993 C 34.62139,8.7187521 35.688969,9.3230421 36.575294,10.108571 C 37.481696,10.874053 38.196773,11.830846 38.720526,12.978952 C 39.264352,14.127148 39.536282,15.436443 39.536318,16.906841 C 39.536282,18.84061 39.05285,20.512479 38.086021,21.922453 C 37.119122,23.312356 35.860185,24.359792 34.309205,25.064764 C 32.758163,25.769802 31.096365,26.122305 29.323807,26.122273 C 27.531054,26.122305 25.869256,25.769802 24.338409,25.064764 C 22.80752,24.359792 21.558654,23.312356 20.591807,21.922453 C 19.645069,20.512479 19.171709,18.84061 19.171724,16.906841 C 19.171709,14.127148 20.138573,11.891275 22.072319,10.199215 C 24.006029,8.4871076 26.423189,7.63103 29.323807,7.6309796 M 24.761413,36.96929 C 22.726948,36.546308 20.914078,35.750659 19.322797,34.582342 C 17.751627,33.393928 16.442332,31.772416 15.394908,29.717802 C 14.34746,27.643101 13.592097,25.165512 13.128818,22.285027 C 12.625233,19.021897 11.759084,16.866596 10.530368,15.819118 C 9.3217812,14.751581 7.9520571,14.147291 6.4211921,14.006246 L 6.4211921,12.707021 L 9.714576,12.707021 C 11.426725,13.06964 12.887092,13.865289 14.095683,15.093969 C 15.304252,16.302592 16.23083,17.621958 16.87542,19.052072 C 17.519982,20.482265 18.023557,21.932561 18.386147,23.402965 C 18.990422,26.162591 19.836428,28.267534 20.924167,29.717802 C 22.032015,31.168126 23.270809,32.13499 24.640555,32.618397 C 26.010257,33.081712 27.57134,33.313356 29.323807,33.313331 C 31.116508,33.313356 32.697734,33.081712 34.067488,32.618397 C 35.437182,32.13499 36.675976,31.158055 37.783876,29.687588 C 38.911849,28.217177 39.767927,26.122305 40.352111,23.402965 C 40.855649,21.066412 41.80237,18.830538 43.192277,16.695339 C 44.602247,14.540079 46.535975,13.210641 48.993467,12.707021 L 52.286851,12.707021 L 52.286851,14.006246 C 51.742941,14.046576 51.128579,14.177505 50.443764,14.399035 C 49.778998,14.600508 49.134422,14.973154 48.510034,15.516972 C 47.885556,16.040733 47.301409,16.866596 46.757591,17.994564 C 46.23383,19.122612 45.83097,20.552765 45.54901,22.285027 C 45.22668,24.400078 44.733176,26.313663 44.068498,28.025788 C 43.423881,29.737973 42.658447,31.168126 41.772194,32.316252 C 40.885863,33.444286 39.838427,34.370864 38.629883,35.095989 C 37.421267,35.82116 36.0314,36.375092 34.460277,36.757788 C 33.735098,37.039811 33.21138,37.281527 32.889122,37.482937 C 32.586947,37.684387 32.435875,38.026818 32.435904,38.510231 L 32.435904,47.423517 L 40.895972,47.423517 L 40.895972,50.747116 L 32.435904,50.747116 L 32.435904,55.521012 C 32.456018,57.051882 32.707805,58.210105 33.191267,58.995683 C 33.674669,59.781259 34.34946,60.294906 35.215641,60.536624 C 36.101901,60.778338 37.401124,60.919339 39.113315,60.959627 L 39.113315,62.137994 L 19.866659,62.137994 L 19.866659,60.959627 C 21.659369,60.919339 22.978736,60.778338 23.824762,60.536624 C 24.670748,60.294906 25.285109,59.791331 25.667849,59.025897 C 26.050543,58.280605 26.241902,57.112311 26.241925,55.521012 L 26.241925,50.747116 L 17.81207,50.747116 L 17.81207,47.423517 L 26.241925,47.423517 L 26.241925,38.510231 C 26.241902,37.885817 25.748398,37.372171 24.761413,36.96929"
       id="kamala" />
  </g>
</svg>
