<?xml version="1.0" encoding="UTF-8" standalone="no"?>
<!-- Created with Inkscape (http://www.inkscape.org/) -->
<svg
   xmlns:dc="http://purl.org/dc/elements/1.1/"
   xmlns:cc="http://creativecommons.org/ns#"
   xmlns:rdf="http://www.w3.org/1999/02/22-rdf-syntax-ns#"
   xmlns:svg="http://www.w3.org/2000/svg"
   xmlns="http://www.w3.org/2000/svg"
   xmlns:sodipodi="http://sodipodi.sourceforge.net/DTD/sodipodi-0.dtd"
   xmlns:inkscape="http://www.inkscape.org/namespaces/inkscape"
   width="64px"
   height="64px"
   id="svg3736"
   sodipodi:version="0.32"
   inkscape:version="0.46"
   sodipodi:docname="poseidon.svg"
   inkscape:output_extension="org.inkscape.output.svg.inkscape">
  <defs
     id="defs3738">
    <inkscape:perspective
       sodipodi:type="inkscape:persp3d"
       inkscape:vp_x="0 : 32 : 1"
       inkscape:vp_y="0 : 1000 : 0"
       inkscape:vp_z="64 : 32 : 1"
       inkscape:persp3d-origin="32 : 21.333333 : 1"
       id="perspective3744" />
  </defs>
  <sodipodi:namedview
     id="base"
     pagecolor="#ffffff"
     bordercolor="#666666"
     borderopacity="1.0"
     inkscape:pageopacity="0.0"
     inkscape:pageshadow="2"
     inkscape:zoom="5.5"
     inkscape:cx="32.659091"
     inkscape:cy="32"
     inkscape:current-layer="layer1"
     showgrid="true"
     inkscape:document-units="px"
     inkscape:grid-bbox="true"
     inkscape:window-width="1280"
     inkscape:window-height="970"
     inkscape:window-x="-4"
     inkscape:window-y="27" />
  <metadata
     id="metadata3741">
    <rdf:RDF>
      <cc:Work
         rdf:about="">
        <dc:format>image/svg+xml</dc:format>
        <dc:type
           rdf:resource="http://purl.org/dc/dcmitype/StillImage" />
      </cc:Work>
    </rdf:RDF>
  </metadata>
  <g
     id="layer1"
     inkscape:label="Layer 1"
     inkscape:groupmode="layer">
    <path
       transform="scale(1.002762,0.9972456)"
       style="font-size:62.76456451px;font-style:normal;font-variant:normal;font-weight:normal;font-stretch:normal;text-align:start;line-height:125%;writing-mode:lr-tb;text-anchor:start;fill:#800080;fill-opacity:1;stroke:none;stroke-width:1px;stroke-linecap:butt;stroke-linejoin:miter;stroke-opacity:1;font-family:StarFont Serif;-inkscape-font-specification:StarFont Serif"
       d="M 28.83186,26.418735 C 25.787593,26.21445 22.988525,25.5913 20.434648,24.549282 C 17.880737,23.486891 15.592448,22.097573 13.569774,20.381323 C 11.54708,18.665139 9.6878448,16.632239 7.9920632,14.282618 C 7.3178311,13.404117 6.980717,12.239541 6.9807202,10.788887 C 6.980717,9.6039226 7.3076155,8.6845207 7.9614165,8.0306788 C 8.6356404,7.3564958 9.5448267,7.0193817 10.688978,7.0193357 C 11.587942,7.0193817 12.323464,7.25434 12.895545,7.7242112 C 13.488039,8.194173 13.784291,8.8377544 13.784301,9.6549571 C 13.784291,10.18621 13.682135,10.645911 13.477833,11.034061 C 13.273512,11.422295 12.956829,11.861565 12.527784,12.351872 C 12.098721,12.84226 11.792254,13.230452 11.608381,13.516449 C 11.424493,13.782093 11.332553,14.108992 11.33256,14.497145 C 13.191788,16.683317 15.490292,18.103282 18.228081,18.757045 C 20.986272,19.390445 24.04073,19.707128 27.391462,19.707094 L 28.83186,19.707094 L 28.83186,11.861524 C 28.831835,10.676558 28.75011,9.7980185 28.586686,9.2259025 C 28.423212,8.6334428 28.147391,8.2350353 27.759223,8.0306788 C 27.391439,7.8059811 26.829582,7.6731786 26.073652,7.6322709 L 26.073652,7.0193357 L 37.750067,7.0193357 L 37.750067,7.6322709 C 36.994081,7.6731786 36.422008,7.8059811 36.033849,8.0306788 C 35.666056,8.2350353 35.400451,8.6334428 35.237033,9.2259025 C 35.073552,9.7980185 34.991828,10.676558 34.991859,11.861524 L 34.991859,19.707094 L 36.432257,19.707094 C 38.475339,19.707128 40.416299,19.604972 42.255141,19.400627 C 44.093906,19.175918 45.93271,18.68557 47.771558,17.929582 C 49.610318,17.153234 51.163085,16.009089 52.429865,14.497145 C 52.429817,14.129423 52.337876,13.81274 52.154044,13.547096 C 51.990547,13.261099 51.68408,12.872907 51.234642,12.382519 C 50.80554,11.871781 50.488857,11.432511 50.284592,11.064708 C 50.080234,10.676558 49.978078,10.206642 49.978124,9.6549571 C 49.978078,8.8377544 50.27433,8.194173 50.86688,7.7242112 C 51.479768,7.25434 52.21529,7.0193817 53.073447,7.0193357 C 54.217543,7.0193817 55.126729,7.3564958 55.801009,8.0306788 C 56.495616,8.6845207 56.842946,9.6039226 56.842999,10.788887 C 56.842946,12.239541 56.505832,13.404117 55.831656,14.282618 C 54.646597,15.93758 53.318572,17.480132 51.847577,18.910279 C 50.376486,20.340493 48.793071,21.586794 47.097329,22.649183 C 45.421931,23.711634 43.562696,24.590173 41.519619,25.284805 C 39.496897,25.95906 37.320979,26.39833 34.991859,26.602615 L 34.991859,37.696743 C 43.429894,38.26883 50.376486,42.314198 55.831656,49.832859 C 56.505832,50.772696 56.842946,51.957703 56.842999,53.387884 C 56.842946,54.57289 56.495616,55.492292 55.801009,56.146092 C 55.126729,56.820317 54.217543,57.157431 53.073447,57.157435 C 52.194858,57.157431 51.459337,56.912257 50.86688,56.421913 C 50.27433,55.951993 49.978078,55.318627 49.978124,54.521814 C 49.978078,53.94974 50.080234,53.459392 50.284592,53.050769 C 50.509288,52.662577 50.774893,52.294817 51.081408,51.947486 C 51.387828,51.600157 51.68408,51.232397 51.970164,50.844203 C 52.276583,50.435582 52.429817,50.04739 52.429865,49.679626 C 51.285672,48.249448 49.865707,47.156382 48.169966,46.400422 C 46.474136,45.644476 44.717056,45.154129 42.898723,44.929378 C 41.080311,44.684212 39.241507,44.561625 37.382306,44.561617 L 34.991859,44.561617 L 34.991859,52.253954 C 34.991828,53.459392 35.073552,54.358363 35.237033,54.950868 C 35.400451,55.54337 35.676271,55.941777 36.064495,56.146092 C 36.473086,56.370832 37.034943,56.483203 37.750067,56.483206 L 37.750067,57.157435 L 26.073652,57.157435 L 26.073652,56.483206 C 26.78872,56.483203 27.340361,56.370832 27.728577,56.146092 C 28.137176,55.941777 28.423212,55.54337 28.586686,54.950868 C 28.75011,54.358363 28.831835,53.459392 28.83186,52.253954 L 28.83186,44.561617 C 28.607092,44.582056 28.300625,44.592272 27.912457,44.592264 C 27.524241,44.571841 27.033894,44.561625 26.441413,44.561617 C 23.274561,44.561625 20.383553,44.898739 17.76838,45.57296 C 15.173609,46.247195 13.028338,47.616083 11.33256,49.679626 C 11.332553,50.067821 11.404062,50.374288 11.547087,50.599028 C 11.710529,50.803342 12.006781,51.160888 12.435843,51.671665 C 12.88532,52.182445 13.222434,52.642146 13.447187,53.050769 C 13.67192,53.479823 13.784291,53.970171 13.784301,54.521814 C 13.784291,55.318627 13.488039,55.951993 12.895545,56.421913 C 12.323464,56.912257 11.587942,57.157431 10.688978,57.157435 C 9.5448267,57.157431 8.6356404,56.820317 7.9614165,56.146092 C 7.3076155,55.492292 6.980717,54.57289 6.9807202,53.387884 C 6.980717,51.957703 7.3178311,50.772696 7.9920632,49.832859 C 13.447177,42.314198 20.393769,38.26883 28.83186,37.696743 L 28.83186,26.418735"
       id="kamala" />
  </g>
</svg>
