<?xml version="1.0" encoding="UTF-8" standalone="no"?>
<!-- Created with Inkscape (http://www.inkscape.org/) -->
<svg
   xmlns:dc="http://purl.org/dc/elements/1.1/"
   xmlns:cc="http://creativecommons.org/ns#"
   xmlns:rdf="http://www.w3.org/1999/02/22-rdf-syntax-ns#"
   xmlns:svg="http://www.w3.org/2000/svg"
   xmlns="http://www.w3.org/2000/svg"
   xmlns:sodipodi="http://sodipodi.sourceforge.net/DTD/sodipodi-0.dtd"
   xmlns:inkscape="http://www.inkscape.org/namespaces/inkscape"
   width="64px"
   height="64px"
   id="svg9172"
   sodipodi:version="0.32"
   inkscape:version="0.46"
   sodipodi:docname="rahu.svg"
   inkscape:output_extension="org.inkscape.output.svg.inkscape">
  <defs
     id="defs9174">
    <inkscape:perspective
       sodipodi:type="inkscape:persp3d"
       inkscape:vp_x="0 : 32 : 1"
       inkscape:vp_y="0 : 1000 : 0"
       inkscape:vp_z="64 : 32 : 1"
       inkscape:persp3d-origin="32 : 21.333333 : 1"
       id="perspective9180" />
  </defs>
  <sodipodi:namedview
     id="base"
     pagecolor="#ffffff"
     bordercolor="#666666"
     borderopacity="1.0"
     inkscape:pageopacity="0.0"
     inkscape:pageshadow="2"
     inkscape:zoom="5.5"
     inkscape:cx="-4.2727273"
     inkscape:cy="32"
     inkscape:current-layer="layer1"
     showgrid="true"
     inkscape:document-units="px"
     inkscape:grid-bbox="true"
     inkscape:window-width="1280"
     inkscape:window-height="970"
     inkscape:window-x="-4"
     inkscape:window-y="27" />
  <metadata
     id="metadata9177">
    <rdf:RDF>
      <cc:Work
         rdf:about="">
        <dc:format>image/svg+xml</dc:format>
        <dc:type
           rdf:resource="http://purl.org/dc/dcmitype/StillImage" />
      </cc:Work>
    </rdf:RDF>
  </metadata>
  <g
     id="layer1"
     inkscape:label="Layer 1"
     inkscape:groupmode="layer">
    <path
       transform="scale(1.0003054,0.9996947)"
       style="font-size:62.53435516px;font-style:normal;font-variant:normal;font-weight:normal;font-stretch:normal;text-align:start;line-height:125%;writing-mode:lr-tb;text-anchor:start;fill:#008080;fill-opacity:1;stroke:none;stroke-width:1px;stroke-linecap:butt;stroke-linejoin:miter;stroke-opacity:1;font-family:StarFont Serif;-inkscape-font-specification:StarFont Serif"
       d="M 16.402443,42.025042 C 14.79429,42.025052 13.450779,42.564492 12.371908,43.643362 C 11.293021,44.701895 10.753581,46.28968 10.753588,48.406721 C 10.753581,50.564485 11.303199,52.152269 12.402443,53.17008 C 13.522026,54.187891 14.855358,54.696796 16.402443,54.696798 C 17.969859,54.696796 19.282835,54.187891 20.341375,53.17008 C 21.420238,52.172626 21.959677,50.584841 21.959695,48.406721 C 21.959677,46.269323 21.430416,44.67136 20.371909,43.612828 C 19.313369,42.554314 17.990215,42.025052 16.402443,42.025042 M 47.608552,42.025042 C 45.980011,42.025052 44.626323,42.554314 43.547483,43.612828 C 42.48892,44.67136 41.959658,46.269323 41.959697,48.406721 C 41.959658,50.564485 42.509276,52.152269 43.608552,53.17008 C 44.707748,54.187891 46.04108,54.696796 47.608552,54.696798 C 49.135224,54.696796 50.4482,54.187891 51.547483,53.17008 C 52.667028,52.172626 53.226824,50.584841 53.226873,48.406721 C 53.226824,46.248967 52.687384,44.651004 51.608552,43.612828 C 50.529625,42.554314 49.196293,42.025052 47.608552,42.025042 M 43.272674,40.650996 C 44.453295,40.10139 45.898586,39.826581 47.608552,39.826568 C 48.952018,39.826581 50.193747,40.030143 51.333743,40.437255 C 52.494,40.844392 53.491454,41.424544 54.32611,42.177713 C 55.18102,42.910548 55.832419,43.796043 56.280308,44.834202 C 56.748449,45.852021 56.982545,47.042859 56.982598,48.406721 C 56.982545,50.218429 56.534708,51.775679 55.639087,53.078477 C 54.763718,54.381275 53.613592,55.358373 52.188705,56.009775 C 50.763721,56.681527 49.237005,57.017405 47.608552,57.017409 C 45.084337,57.017405 42.885866,56.254047 41.013132,54.727332 C 39.140323,53.200615 38.203937,51.093746 38.203971,48.406721 C 38.041087,47.511052 37.959662,46.544132 37.959696,45.505958 C 37.959662,43.755331 38.203937,42.035231 38.692521,40.345652 C 39.201391,38.656099 39.893503,36.935999 40.768857,35.185346 C 41.664493,33.43473 42.631414,31.724808 43.66962,30.055575 C 44.728104,28.366032 45.827339,26.615398 46.96733,24.803666 C 47.924029,23.297335 48.402401,21.821509 48.402445,20.376185 C 48.402401,18.503446 47.679755,16.783346 46.234506,15.21588 C 44.789172,13.648489 42.794263,12.40676 40.249773,11.490688 C 37.725566,10.5747 34.967299,10.116685 31.974963,10.116643 C 28.982571,10.116685 26.214126,10.5747 23.669619,11.490688 C 21.145429,12.40676 19.160698,13.648489 17.71542,15.21588 C 16.290471,16.76299 15.578004,18.48309 15.578015,20.376185 C 15.578004,21.821509 16.056375,23.297335 17.01313,24.803666 C 18.82482,27.673921 20.086905,29.679008 20.79939,30.818934 C 21.51184,31.958904 22.295555,33.363483 23.150535,35.032675 C 24.005477,36.681546 24.68741,38.391468 25.196337,40.162446 C 25.705221,41.913093 25.959673,43.65355 25.959696,45.38382 C 25.959673,46.50342 25.878249,47.511052 25.715421,48.406721 C 25.715399,50.198073 25.27774,51.745145 24.402444,53.047943 C 23.527106,54.371097 22.37698,55.358373 20.952062,56.009775 C 19.52711,56.681527 18.010571,57.017405 16.402443,57.017409 C 13.87826,57.017405 11.679789,56.254047 9.8070227,54.727332 C 7.934245,53.200615 6.9978591,51.093746 6.9978623,48.406721 C 6.9978591,45.780774 7.8833545,43.694262 9.654351,42.147179 C 11.425336,40.600117 13.674698,39.826581 16.402443,39.826568 C 18.051284,39.826581 19.466041,40.10139 20.646718,40.650996 C 20.422783,39.755334 20.097084,38.900373 19.669619,38.08611 C 19.262479,37.271876 18.784108,36.508518 18.234504,35.796034 C 17.684872,35.083583 16.94187,34.177732 16.005496,33.078476 C 15.089455,31.97926 13.471136,30.055598 11.150534,27.307483 C 9.4813174,25.3126 8.6467126,23.236266 8.6467173,21.078475 C 8.6467126,18.656118 9.633989,16.366043 11.60855,14.208246 C 13.603451,12.050526 16.280293,10.320248 19.639084,9.0174059 C 22.997844,7.714652 26.600894,7.0632531 30.448245,7.0632073 L 31.822291,7.0632073 C 32.086894,7.0428969 32.320991,7.0327188 32.524581,7.0326729 C 32.728115,7.0123626 32.982568,7.0021845 33.28794,7.0021386 C 36.219206,7.0021845 39.028364,7.3787745 41.715422,8.1319096 C 44.402404,8.8851344 46.763725,9.9233013 48.799392,11.246414 C 50.855324,12.569609 52.443109,14.075969 53.562751,15.765498 C 54.702649,17.455101 55.272623,19.226092 55.272675,21.078475 C 55.272623,23.297335 54.448196,25.373669 52.799392,27.307483 C 51.354052,29.037787 49.85787,30.829134 48.310842,32.68153 C 46.784081,34.513609 45.827339,35.673913 45.440613,36.162446 C 45.074159,36.651012 44.687391,37.282054 44.280307,38.055576 C 43.873143,38.80877 43.537265,39.67391 43.272674,40.650996"
       id="kamala" />
  </g>
</svg>
