<?xml version="1.0" encoding="UTF-8" standalone="no"?>
<!-- Created with Inkscape (http://www.inkscape.org/) -->
<svg
   xmlns:dc="http://purl.org/dc/elements/1.1/"
   xmlns:cc="http://creativecommons.org/ns#"
   xmlns:rdf="http://www.w3.org/1999/02/22-rdf-syntax-ns#"
   xmlns:svg="http://www.w3.org/2000/svg"
   xmlns="http://www.w3.org/2000/svg"
   xmlns:sodipodi="http://sodipodi.sourceforge.net/DTD/sodipodi-0.dtd"
   xmlns:inkscape="http://www.inkscape.org/namespaces/inkscape"
   width="64px"
   height="64px"
   id="svg4821"
   sodipodi:version="0.32"
   inkscape:version="0.46"
   sodipodi:docname="sign_11.svg"
   inkscape:output_extension="org.inkscape.output.svg.inkscape">
  <defs
     id="defs4823">
    <inkscape:perspective
       sodipodi:type="inkscape:persp3d"
       inkscape:vp_x="0 : 32 : 1"
       inkscape:vp_y="0 : 1000 : 0"
       inkscape:vp_z="64 : 32 : 1"
       inkscape:persp3d-origin="32 : 21.333333 : 1"
       id="perspective4829" />
  </defs>
  <sodipodi:namedview
     id="base"
     pagecolor="#ffffff"
     bordercolor="#666666"
     borderopacity="1.0"
     inkscape:pageopacity="0.0"
     inkscape:pageshadow="2"
     inkscape:zoom="5.5"
     inkscape:cx="-0.28012584"
     inkscape:cy="32"
     inkscape:current-layer="layer1"
     showgrid="true"
     inkscape:document-units="px"
     inkscape:grid-bbox="true"
     inkscape:window-width="1280"
     inkscape:window-height="970"
     inkscape:window-x="-4"
     inkscape:window-y="27" />
  <metadata
     id="metadata4826">
    <rdf:RDF>
      <cc:Work
         rdf:about="">
        <dc:format>image/svg+xml</dc:format>
        <dc:type
           rdf:resource="http://purl.org/dc/dcmitype/StillImage" />
      </cc:Work>
    </rdf:RDF>
  </metadata>
  <g
     id="layer1"
     inkscape:label="Layer 1"
     inkscape:groupmode="layer">
    <path
       transform="scale(0.6866358,1.4563762)"
       style="font-size:69.75347137px;font-style:normal;font-variant:normal;font-weight:normal;font-stretch:normal;text-align:start;line-height:125%;writing-mode:lr-tb;text-anchor:start;fill:#00ffff;fill-opacity:1;stroke:none;stroke-width:1px;stroke-linecap:butt;stroke-linejoin:miter;stroke-opacity:1;font-family:StarFont Serif;-inkscape-font-specification:StarFont Serif"
       d="M 74.634852,31.611131 C 76.133392,33.177871 77.268701,34.324534 78.040783,35.051122 C 78.812722,35.755023 79.562026,36.265913 80.288698,36.583791 C 81.037928,36.87898 81.946175,37.060629 83.013443,37.12874 L 83.013443,38.59329 L 64.655474,38.59329 L 64.655474,37.12874 C 66.017786,37.128748 67.153096,37.015217 68.061405,36.788147 C 68.96959,36.538387 69.423714,36.141029 69.423777,35.596071 C 69.423714,35.210075 69.185299,34.744598 68.708532,34.199639 L 64.451118,30.078462 L 53.790553,38.59329 L 45.411962,30.827767 L 35.432584,38.59329 L 27.428645,30.827767 L 22.796579,34.812707 C 21.207129,36.243206 19.810699,37.32175 18.607284,38.048341 C 17.426549,38.774946 16.223122,39.138245 14.996997,39.138239 C 13.816266,39.138245 12.680957,38.809005 11.591065,38.150519 C 10.660106,37.264985 10.194629,36.288619 10.194633,35.221418 C 10.194629,34.154237 10.660106,33.155165 11.591065,32.224199 C 12.476601,31.33867 13.407555,30.8959 14.383929,30.895886 C 15.133225,30.8959 15.689526,31.225139 16.052835,31.883606 C 16.325299,32.428567 16.461537,32.939456 16.461547,33.416275 C 16.461537,33.734173 16.359359,34.063413 16.155013,34.403995 C 15.950647,34.721892 15.84847,34.948954 15.848479,35.085181 C 15.84847,35.44849 15.962001,35.800436 16.189072,36.14102 C 16.279887,36.231853 16.370712,36.277266 16.461547,36.277257 C 16.892954,36.277266 17.426549,36.027498 18.062335,35.527952 C 18.698096,35.028425 19.186279,34.562949 19.526885,34.13152 L 29.574382,22.449176 L 38.429803,31.474894 L 47.591758,22.449176 L 56.379061,31.474894 L 65.506956,22.449176 L 74.634852,31.611131 M 73.102183,20.916507 L 64.451118,12.435738 L 53.790553,20.916507 L 45.411962,13.185043 L 35.432584,20.916507 L 27.428645,13.185043 L 22.796579,17.169983 C 21.207129,18.6005 19.810699,19.679044 18.607284,20.405617 C 17.426549,21.13224 16.223122,21.495539 14.996997,21.495515 C 13.816266,21.495539 12.680957,21.166299 11.591065,20.507795 C 10.660106,19.622279 10.194629,18.645913 10.194633,17.578695 C 10.194629,16.511531 10.660106,15.512459 11.591065,14.581475 C 12.476601,13.695964 13.407555,13.253194 14.383929,13.253162 C 15.155931,13.253194 15.712232,13.582433 16.052835,14.240882 C 16.325299,14.785861 16.461537,15.29675 16.461547,15.773551 C 16.461537,16.091467 16.359359,16.420707 16.155013,16.761271 C 15.950647,17.079186 15.84847,17.306248 15.848479,17.442457 C 15.84847,17.783078 15.962001,18.135024 16.189072,18.498296 C 16.279887,18.589147 16.370712,18.63456 16.461547,18.634533 C 16.892954,18.63456 17.426549,18.373438 18.062335,17.851169 C 18.720802,17.328954 19.208985,16.863477 19.526885,16.454737 L 29.574382,4.8064525 L 38.429803,13.83217 L 47.591758,4.8064525 L 56.379061,13.83217 L 65.506956,4.8064525 L 74.634852,13.968407 C 76.156098,15.580578 77.291407,16.738593 78.040783,17.442457 C 78.812722,18.12367 79.53932,18.611853 80.220579,18.907008 C 80.924397,19.202214 81.855351,19.383864 83.013443,19.451957 L 83.013443,20.916507 L 73.102183,20.916507"
       id="kamala" />
  </g>
</svg>
