<?xml version="1.0" encoding="UTF-8" standalone="no"?>
<!-- Created with Inkscape (http://www.inkscape.org/) -->
<svg
   xmlns:dc="http://purl.org/dc/elements/1.1/"
   xmlns:cc="http://creativecommons.org/ns#"
   xmlns:rdf="http://www.w3.org/1999/02/22-rdf-syntax-ns#"
   xmlns:svg="http://www.w3.org/2000/svg"
   xmlns="http://www.w3.org/2000/svg"
   xmlns:sodipodi="http://sodipodi.sourceforge.net/DTD/sodipodi-0.dtd"
   xmlns:inkscape="http://www.inkscape.org/namespaces/inkscape"
   width="64px"
   height="64px"
   id="svg5365"
   sodipodi:version="0.32"
   inkscape:version="0.46"
   sodipodi:docname="sign_10.svg"
   inkscape:output_extension="org.inkscape.output.svg.inkscape">
  <defs
     id="defs5367">
    <inkscape:perspective
       sodipodi:type="inkscape:persp3d"
       inkscape:vp_x="0 : 32 : 1"
       inkscape:vp_y="0 : 1000 : 0"
       inkscape:vp_z="64 : 32 : 1"
       inkscape:persp3d-origin="32 : 21.333333 : 1"
       id="perspective5373" />
  </defs>
  <sodipodi:namedview
     id="base"
     pagecolor="#ffffff"
     bordercolor="#666666"
     borderopacity="1.0"
     inkscape:pageopacity="0.0"
     inkscape:pageshadow="2"
     inkscape:zoom="5.5"
     inkscape:cx="-0.64124238"
     inkscape:cy="32"
     inkscape:current-layer="layer1"
     showgrid="true"
     inkscape:document-units="px"
     inkscape:grid-bbox="true"
     inkscape:window-width="1280"
     inkscape:window-height="970"
     inkscape:window-x="-4"
     inkscape:window-y="27" />
  <metadata
     id="metadata5370">
    <rdf:RDF>
      <cc:Work
         rdf:about="">
        <dc:format>image/svg+xml</dc:format>
        <dc:type
           rdf:resource="http://purl.org/dc/dcmitype/StillImage" />
      </cc:Work>
    </rdf:RDF>
  </metadata>
  <g
     id="layer1"
     inkscape:label="Layer 1"
     inkscape:groupmode="layer">
    <path
       transform="scale(1.0025132,0.9974931)"
       style="font-size:51.40578461px;font-style:normal;font-variant:normal;font-weight:normal;font-stretch:normal;text-align:start;line-height:125%;writing-mode:lr-tb;text-anchor:start;fill:#008000;fill-opacity:1;stroke:none;stroke-width:1px;stroke-linecap:butt;stroke-linejoin:miter;stroke-opacity:1;font-family:StarFont Serif;-inkscape-font-specification:StarFont Serif"
       d="M 46.415307,20.948359 C 47.854358,20.948387 49.034079,20.496579 49.954475,19.592933 C 50.891513,18.689346 51.360055,17.292087 51.360102,15.401153 C 51.360055,14.112696 51.125784,13.058477 50.657288,12.238492 C 50.1887,11.41858 49.561189,10.816169 48.774752,10.431258 C 48.00496,10.046422 47.218479,9.8539854 46.415307,9.8539466 C 45.628784,9.8539854 44.85067,10.046422 44.080962,10.431258 C 43.311175,10.816169 42.683664,11.41858 42.198426,12.238492 C 41.729847,13.058477 41.495576,14.112696 41.495613,15.401153 C 41.495576,17.25862 41.955751,18.647512 42.876139,19.567833 C 43.813184,20.488212 44.992906,20.948387 46.415307,20.948359 M 38.659258,20.120043 C 37.772341,18.697713 37.3289,17.124751 37.328933,15.401153 C 37.3289,13.644154 37.755608,12.12976 38.609057,10.857966 C 39.462439,9.5862472 40.575226,8.6324298 41.947421,7.996511 C 43.319542,7.3439398 44.808836,7.0176339 46.415307,7.0175923 C 48.021694,7.0176339 49.519355,7.3439398 50.908293,7.996511 C 52.313872,8.6324298 53.443393,9.5862472 54.296858,10.857966 C 55.150223,12.12976 55.576931,13.644154 55.576982,15.401153 C 55.576931,16.873746 55.275726,18.17897 54.673365,19.316828 C 54.070904,20.438011 53.234222,21.366728 52.163317,22.102981 C 51.092316,22.822554 49.845661,23.316196 48.423345,23.58391 C 50.046464,24.721822 51.376788,25.876443 52.414322,27.047776 C 53.468493,28.219152 54.254974,29.331939 54.773767,30.38614 C 55.309193,31.440377 55.7108,32.51133 55.97859,33.599001 C 56.246277,34.669969 56.472181,35.849691 56.656303,37.138169 C 56.79012,38.242601 56.857054,39.154584 56.857107,39.874122 C 56.857054,41.698097 56.614417,43.53043 56.129193,45.371127 C 55.660599,47.21183 54.882485,48.968862 53.794848,50.642228 C 52.707112,52.31559 51.259653,53.721215 49.452465,54.859109 C 47.645187,55.99699 45.469814,56.724903 42.92634,57.04285 C 42.223489,57.109777 41.74658,57.143244 41.495613,57.143252 C 39.872413,57.143244 38.374752,56.858772 37.002627,56.289836 C 35.630436,55.720885 34.626418,55.009705 33.990569,54.156295 C 33.572198,53.570612 33.363028,52.951468 33.363057,52.29886 C 33.363028,51.378506 33.839937,50.558558 34.793784,49.839012 C 35.345964,49.470871 35.898174,49.286801 36.450416,49.286802 C 37.153197,49.286801 37.69704,49.571273 38.081947,50.140218 C 38.43332,50.608759 38.609023,51.177702 38.609057,51.847051 C 38.609023,52.047851 38.600656,52.198454 38.583957,52.29886 C 38.583923,52.415991 38.575556,52.54986 38.558856,52.700467 C 38.542089,52.851066 38.516988,53.001669 38.483555,53.152276 C 38.466787,53.319608 38.45842,53.47021 38.458455,53.604085 C 38.45842,53.988953 38.542089,54.315259 38.709459,54.583003 C 39.01063,54.984605 39.613041,55.185408 40.516694,55.185415 C 41.754947,55.185408 42.951402,54.875836 44.106063,54.256697 C 45.511649,53.520411 46.741571,52.36579 47.795833,50.792831 C 48.850009,49.219867 49.653224,47.337332 50.20548,45.145223 C 50.774377,42.936386 51.058849,40.560209 51.058896,38.016686 C 51.058849,36.711473 51.017015,35.732555 50.933393,35.07993 C 50.799478,33.707785 50.37277,32.268692 49.653269,30.762647 C 48.933677,29.239904 47.938026,27.784078 46.666312,26.395163 C 45.394513,25.006294 43.921953,23.843306 42.248627,22.906197 C 41.696379,22.671951 41.370073,22.538082 41.269708,22.504589 C 40.934999,22.43768 40.700728,22.404213 40.566895,22.404187 C 39.495906,22.404213 38.684325,23.098659 38.132148,24.487527 L 25.607008,51.997654 L 13.056768,18.488512 C 12.337213,16.614375 11.692968,15.242217 11.124031,14.372033 C 10.571814,13.485185 9.9861369,12.89114 9.3669973,12.589899 C 8.7478478,12.271996 7.953,12.096293 6.9824516,12.062789 L 6.9824516,10.933267 L 22.168242,10.933267 L 22.168242,12.062789 C 20.427926,12.146494 19.281672,12.322197 18.729477,12.589899 C 18.177252,12.84094 17.901147,13.41825 17.901161,14.321832 C 17.901147,14.472469 17.876047,14.606338 17.825859,14.72344 C 17.792379,14.840609 17.775645,14.932644 17.775658,14.999545 C 17.775645,15.133448 18.101951,15.986863 18.754577,17.559794 L 27.464444,40.125126 L 34.392177,24.713431 C 35.396165,22.186676 36.818524,20.655548 38.659258,20.120043"
       id="kamala" />
  </g>
</svg>
