<?xml version="1.0" encoding="UTF-8" standalone="no"?>
<!-- Created with Inkscape (http://www.inkscape.org/) -->
<svg
   xmlns:dc="http://purl.org/dc/elements/1.1/"
   xmlns:cc="http://creativecommons.org/ns#"
   xmlns:rdf="http://www.w3.org/1999/02/22-rdf-syntax-ns#"
   xmlns:svg="http://www.w3.org/2000/svg"
   xmlns="http://www.w3.org/2000/svg"
   xmlns:sodipodi="http://sodipodi.sourceforge.net/DTD/sodipodi-0.dtd"
   xmlns:inkscape="http://www.inkscape.org/namespaces/inkscape"
   width="64px"
   height="64px"
   id="svg6997"
   sodipodi:version="0.32"
   inkscape:version="0.46"
   sodipodi:docname="sign_02.svg"
   inkscape:output_extension="org.inkscape.output.svg.inkscape">
  <defs
     id="defs6999">
    <inkscape:perspective
       sodipodi:type="inkscape:persp3d"
       inkscape:vp_x="0 : 32 : 1"
       inkscape:vp_y="0 : 1000 : 0"
       inkscape:vp_z="64 : 32 : 1"
       inkscape:persp3d-origin="32 : 21.333333 : 1"
       id="perspective7005" />
  </defs>
  <sodipodi:namedview
     id="base"
     pagecolor="#ffffff"
     bordercolor="#666666"
     borderopacity="1.0"
     inkscape:pageopacity="0.0"
     inkscape:pageshadow="2"
     inkscape:zoom="5.5"
     inkscape:cx="-6.1653035"
     inkscape:cy="32"
     inkscape:current-layer="layer1"
     showgrid="true"
     inkscape:document-units="px"
     inkscape:grid-bbox="true"
     inkscape:window-width="1280"
     inkscape:window-height="970"
     inkscape:window-x="-4"
     inkscape:window-y="27" />
  <metadata
     id="metadata7002">
    <rdf:RDF>
      <cc:Work
         rdf:about="">
        <dc:format>image/svg+xml</dc:format>
        <dc:type
           rdf:resource="http://purl.org/dc/dcmitype/StillImage" />
      </cc:Work>
    </rdf:RDF>
  </metadata>
  <g
     id="layer1"
     inkscape:label="Layer 1"
     inkscape:groupmode="layer">
    <path
       transform="scale(1.1433578,0.8746169)"
       style="font-size:70.74310303px;font-style:normal;font-variant:normal;font-weight:normal;font-stretch:normal;text-align:start;line-height:125%;writing-mode:lr-tb;text-anchor:start;fill:#008000;fill-opacity:1;stroke:none;stroke-width:1px;stroke-linecap:butt;stroke-linejoin:miter;stroke-opacity:1;font-family:StarFont Serif;-inkscape-font-specification:StarFont Serif"
       d="M 37.901446,26.760099 C 41.49383,28.280003 44.383886,30.59435 46.571621,33.703148 C 48.759268,36.812 49.853114,40.577132 49.853161,44.998556 C 49.853114,47.992254 49.28892,50.755654 48.160577,53.288763 C 47.055172,55.798858 45.477731,57.952007 43.428251,59.748216 C 41.401717,61.521399 39.064341,62.868556 36.416117,63.789692 C 33.790853,64.710822 30.958369,65.171389 27.918654,65.171394 C 24.878889,65.171389 22.046405,64.710822 19.421192,63.789692 C 16.795945,62.868556 14.470084,61.509884 12.443601,59.713674 C 10.417098,57.894436 8.8511711,55.729773 7.7458163,53.219678 C 6.6634796,50.709597 6.1223139,47.969226 6.1223174,44.998556 C 6.1223139,40.577132 7.2046454,36.812 9.3693153,33.703148 C 11.557,30.59435 14.412513,28.280003 17.935863,26.760099 C 16.323864,25.792943 14.999735,24.59547 13.963472,23.167676 C 12.927186,21.739957 12.155737,20.104946 11.649122,18.262637 C 11.14249,16.397384 10.889178,14.278778 10.889187,11.906811 C 10.86615,12.390455 10.601324,12.851021 10.094708,13.288512 C 9.611106,13.726098 9.1390252,13.944867 8.6784647,13.944821 C 8.148807,13.944867 7.7112687,13.737612 7.3658485,13.323055 C 7.0204188,12.908592 6.8477063,12.436511 6.8477105,11.906811 C 6.8477063,10.870585 7.2852446,9.9609659 8.1603267,9.1779513 C 9.0353977,8.3950394 9.9910734,8.0035577 11.027357,8.0035052 C 11.925453,8.0035577 12.696902,8.3374685 13.341706,9.0052386 C 13.986489,9.6731117 14.389485,10.686358 14.550695,12.044981 C 14.965193,15.315053 15.6215,17.756056 16.519619,19.367998 C 17.41771,20.956994 18.707297,22.062354 20.388383,22.684081 C 22.092461,23.282855 24.602549,23.674337 27.918654,23.858527 C 31.234709,23.674337 33.733283,23.282855 35.414383,22.684081 C 37.118447,22.062354 38.419548,20.956994 39.317689,19.367998 C 40.215758,17.756056 40.872065,15.315053 41.286614,12.044981 C 41.447773,10.66333 41.850769,9.6500834 42.495602,9.0052386 C 43.163384,8.3374685 43.946347,8.0035577 44.844494,8.0035052 C 45.880727,8.0035577 46.847917,8.3950394 47.746067,9.1779513 C 48.644127,9.9609659 49.093179,10.870585 49.093226,11.906811 C 49.093179,12.436511 48.908953,12.908592 48.540545,13.323055 C 48.195074,13.737612 47.734508,13.944867 47.158844,13.944821 C 46.721261,13.944867 46.24918,13.726098 45.7426,13.288512 C 45.258962,12.851021 45.00565,12.390455 44.982664,11.906811 C 44.982622,18.953529 42.622218,23.90462 37.901446,26.760099 M 27.918654,29.730757 C 26.375731,29.776845 24.79829,30.099241 23.186328,30.697948 C 21.597352,31.296714 20.18111,32.183305 18.937596,33.357723 C 17.69405,34.532195 16.680804,36.098121 15.897854,38.055507 C 15.137905,40.012938 14.757938,42.327285 14.75795,44.998556 C 14.757938,48.452821 15.34516,51.319848 16.519619,53.599646 C 17.717078,55.856429 19.306033,57.514469 21.286488,58.57377 C 23.289934,59.633075 25.500654,60.162727 27.918654,60.162727 C 31.787389,60.162727 34.965298,58.919197 37.452393,56.432133 C 39.962446,53.945078 41.21749,50.133889 41.217529,44.998556 C 41.21749,41.613407 40.549668,38.80395 39.214062,36.570178 C 37.90141,34.313426 36.220342,32.643872 34.170852,31.561511 C 32.144328,30.45618 30.060264,29.84593 27.918654,29.730757"
       id="kamala" />
  </g>
</svg>
