<?xml version="1.0" encoding="UTF-8" standalone="no"?>
<!-- Created with Inkscape (http://www.inkscape.org/) -->
<svg
   xmlns:dc="http://purl.org/dc/elements/1.1/"
   xmlns:cc="http://creativecommons.org/ns#"
   xmlns:rdf="http://www.w3.org/1999/02/22-rdf-syntax-ns#"
   xmlns:svg="http://www.w3.org/2000/svg"
   xmlns="http://www.w3.org/2000/svg"
   xmlns:sodipodi="http://sodipodi.sourceforge.net/DTD/sodipodi-0.dtd"
   xmlns:inkscape="http://www.inkscape.org/namespaces/inkscape"
   width="64px"
   height="64px"
   id="svg3207"
   sodipodi:version="0.32"
   inkscape:version="0.46"
   sodipodi:docname="sign_04.svg"
   inkscape:output_extension="org.inkscape.output.svg.inkscape">
  <defs
     id="defs3209">
    <inkscape:perspective
       sodipodi:type="inkscape:persp3d"
       inkscape:vp_x="0 : 32 : 1"
       inkscape:vp_y="0 : 1000 : 0"
       inkscape:vp_z="64 : 32 : 1"
       inkscape:persp3d-origin="32 : 21.333333 : 1"
       id="perspective3215" />
  </defs>
  <sodipodi:namedview
     id="base"
     pagecolor="#ffffff"
     bordercolor="#666666"
     borderopacity="1.0"
     inkscape:pageopacity="0.0"
     inkscape:pageshadow="2"
     inkscape:zoom="5.5"
     inkscape:cx="-8.2727273"
     inkscape:cy="32"
     inkscape:current-layer="layer1"
     showgrid="true"
     inkscape:document-units="px"
     inkscape:grid-bbox="true"
     inkscape:window-width="1280"
     inkscape:window-height="970"
     inkscape:window-x="-4"
     inkscape:window-y="27" />
  <metadata
     id="metadata3212">
    <rdf:RDF>
      <cc:Work
         rdf:about="">
        <dc:format>image/svg+xml</dc:format>
        <dc:type
           rdf:resource="http://purl.org/dc/dcmitype/StillImage" />
      </cc:Work>
    </rdf:RDF>
  </metadata>
  <g
     id="layer1"
     inkscape:label="Layer 1"
     inkscape:groupmode="layer">
    <path
       transform="scale(0.9892783,1.0108379)"
       style="font-size:63.07727051000001239px;font-style:normal;font-variant:normal;font-weight:normal;font-stretch:normal;text-align:start;line-height:125%;writing-mode:lr-tb;text-anchor:start;fill:#0000ff;fill-opacity:1;stroke:none;stroke-width:1px;stroke-linecap:butt;stroke-linejoin:miter;stroke-opacity:1;font-family:StarFont Serif;-inkscape-font-specification:StarFont Serif"
       d="M 19.210848,16.595974 C 18.102054,16.59601 17.106206,16.852672 16.223302,17.36596 C 15.360906,17.879319 14.662785,18.700637 14.128939,19.829916 C 13.595072,20.959261 13.328144,22.396567 13.328153,24.141839 C 13.328144,26.729019 13.903067,28.638583 15.052923,29.870537 C 16.223289,31.102536 17.609263,31.718524 19.210848,31.718503 C 20.812403,31.718524 22.18811,31.102536 23.337974,29.870537 C 24.4878,28.61805 25.062722,26.708486 25.062743,24.141839 C 25.062722,21.57525 24.518599,19.675952 23.430373,18.443941 C 22.342107,17.211999 20.9356,16.59601 19.210848,16.595974 M 25.062743,14.563211 C 27.157083,15.19977 28.727853,16.411214 29.775059,18.197546 C 30.842746,19.963413 31.376603,21.92431 31.37663,24.08024 C 31.376603,26.46209 30.80168,28.494852 29.651861,30.178531 C 28.50199,31.841722 26.992819,33.104498 25.124342,33.966863 C 23.255823,34.829266 21.28466,35.260457 19.210848,35.26044 C 17.095939,35.260457 15.11451,34.829266 13.266555,33.966863 C 11.41858,33.104498 9.9196751,31.831456 8.7698351,30.147732 C 7.6405182,28.464053 7.0758622,26.441558 7.0758654,24.08024 C 7.0758622,21.862711 7.5070541,19.840216 8.3694422,18.012749 C 9.2523544,16.164818 10.699927,14.481117 12.712164,12.961639 C 14.724384,11.421708 17.332068,10.004935 20.535224,8.7113155 C 23.491952,7.5204486 26.664292,6.9249932 30.052254,6.9249474 C 33.050038,6.9249932 36.006782,7.3664515 38.922495,8.2493237 C 41.838138,9.1117518 44.507421,10.230797 46.930352,11.606464 C 49.353196,12.982212 51.427024,14.460584 53.15184,16.041584 C 54.876559,17.602125 56.088002,19.039431 56.786175,20.353507 C 57.25838,21.19539 57.494509,22.078307 57.494563,23.00226 C 57.494509,24.460128 56.970919,25.599707 55.923791,26.420998 C 55.102421,27.01648 54.301636,27.314208 53.521434,27.314182 C 52.16621,27.314208 51.283293,26.63662 50.872681,25.281419 C 50.872634,24.480661 51.047164,23.803074 51.396272,23.248655 C 51.765817,22.673762 52.238075,22.386301 52.813046,22.386271 C 52.915662,22.386301 53.110725,22.427367 53.398236,22.509468 C 53.603516,22.509499 53.706181,22.386301 53.70623,22.139875 C 53.706181,21.585516 53.490585,21.010594 53.059442,20.415106 C 52.443405,19.470623 51.324359,18.474775 49.702302,17.427559 C 48.080154,16.359881 46.304054,15.446165 44.373998,14.686408 C 42.44386,13.906195 40.411099,13.27994 38.275707,12.807642 C 36.140246,12.335424 34.117751,12.099295 32.208215,12.099255 C 28.676521,12.099295 26.294699,12.920613 25.062743,14.563211 M 45.513577,46.656236 C 47.197237,46.656242 48.603744,46.040254 49.733102,44.808269 C 50.862368,43.555767 51.427024,41.65647 51.427071,39.110371 C 51.427024,37.365084 51.139562,35.917512 50.564687,34.767649 C 50.010251,33.617822 49.281331,32.796504 48.377926,32.303693 C 47.494965,31.79039 46.540183,31.533728 45.513577,31.533707 C 44.507421,31.533728 43.552639,31.79039 42.649228,32.303693 C 41.766273,32.796504 41.037353,33.617822 40.462468,34.767649 C 39.908042,35.917512 39.630847,37.365084 39.630882,39.110371 C 39.630847,41.677003 40.17497,43.5763 41.263253,44.808269 C 42.371995,46.040254 43.788768,46.656242 45.513577,46.656236 M 39.630882,48.689 C 37.515953,48.011416 35.934917,46.789706 34.887767,45.023865 C 33.840556,43.237507 33.316966,41.286877 33.316996,39.17197 C 33.316966,36.831228 33.891889,34.818999 35.041765,33.135278 C 36.191578,31.431063 37.70075,30.147754 39.569284,29.285347 C 41.437746,28.422987 43.419175,27.991795 45.513577,27.99177 C 47.053506,27.991795 48.552411,28.23819 50.010297,28.730957 C 51.488623,29.203239 52.802731,29.921892 53.952626,30.886918 C 55.102421,31.831456 55.995604,33.0121 56.632178,34.428855 C 57.28918,35.825113 57.617707,37.40615 57.61776,39.17197 C 57.617707,41.512739 57.237847,43.566034 56.478181,45.33186 C 55.738942,47.077167 54.424834,48.69927 52.535851,50.198173 C 50.646772,51.69708 48.049354,53.12412 44.743591,54.479296 C 41.663608,55.752337 38.429669,56.388858 35.041765,56.388862 C 32.023391,56.388858 29.066646,55.9474 26.171523,55.064485 C 23.276356,54.202099 20.545474,53.052254 17.97887,51.614947 C 15.412238,50.157109 13.287078,48.678737 11.603384,47.179827 C 9.9196751,45.660394 8.6876984,44.233354 7.9074505,42.898703 C 7.4967876,42.097928 7.2914582,41.215012 7.2914615,40.249951 C 7.2914582,38.62786 7.8150483,37.488282 8.8622334,36.831212 C 9.6630133,36.235772 10.484331,35.938045 11.326189,35.938028 C 11.921637,35.938045 12.455494,36.122841 12.927761,36.492418 C 13.400009,36.841494 13.728536,37.313752 13.913343,37.909193 C 13.913333,38.709992 13.71827,39.408112 13.328153,40.003555 C 12.958551,40.57849 12.49656,40.865951 11.942178,40.86594 C 11.818973,40.865951 11.634176,40.824886 11.387788,40.742742 C 11.120852,40.742754 10.987388,40.865951 10.987395,41.112335 C 10.987388,41.502473 11.202984,42.077395 11.634184,42.837104 C 12.578692,44.212822 14.211061,45.52693 16.531296,46.779434 C 18.872039,48.011416 21.479723,49.007264 24.354356,49.76698 C 27.228948,50.526702 29.908497,50.906562 32.393012,50.90656 C 35.863051,50.906562 38.275672,50.167376 39.630882,48.689"
       id="kamala" />
  </g>
</svg>
