<?xml version="1.0" encoding="UTF-8" standalone="no"?>
<!-- Created with Inkscape (http://www.inkscape.org/) -->
<svg
   xmlns:dc="http://purl.org/dc/elements/1.1/"
   xmlns:cc="http://creativecommons.org/ns#"
   xmlns:rdf="http://www.w3.org/1999/02/22-rdf-syntax-ns#"
   xmlns:svg="http://www.w3.org/2000/svg"
   xmlns="http://www.w3.org/2000/svg"
   xmlns:sodipodi="http://sodipodi.sourceforge.net/DTD/sodipodi-0.dtd"
   xmlns:inkscape="http://www.inkscape.org/namespaces/inkscape"
   width="64px"
   height="64px"
   id="svg3189"
   sodipodi:version="0.32"
   inkscape:version="0.46"
   sodipodi:docname="sign_06.svg"
   inkscape:output_extension="org.inkscape.output.svg.inkscape">
  <defs
     id="defs3191">
    <inkscape:perspective
       sodipodi:type="inkscape:persp3d"
       inkscape:vp_x="0 : 32 : 1"
       inkscape:vp_y="0 : 1000 : 0"
       inkscape:vp_z="64 : 32 : 1"
       inkscape:persp3d-origin="32 : 21.333333 : 1"
       id="perspective3197" />
  </defs>
  <sodipodi:namedview
     id="base"
     pagecolor="#ffffff"
     bordercolor="#666666"
     borderopacity="1.0"
     inkscape:pageopacity="0.0"
     inkscape:pageshadow="2"
     inkscape:zoom="5.5"
     inkscape:cx="-5.8674417"
     inkscape:cy="32"
     inkscape:current-layer="layer1"
     showgrid="true"
     inkscape:document-units="px"
     inkscape:grid-bbox="true"
     inkscape:window-width="1280"
     inkscape:window-height="970"
     inkscape:window-x="-4"
     inkscape:window-y="27" />
  <metadata
     id="metadata3194">
    <rdf:RDF>
      <cc:Work
         rdf:about="">
        <dc:format>image/svg+xml</dc:format>
        <dc:type
           rdf:resource="http://purl.org/dc/dcmitype/StillImage" />
      </cc:Work>
    </rdf:RDF>
  </metadata>
  <g
     id="layer1"
     inkscape:label="Layer 1"
     inkscape:groupmode="layer">
    <path
       transform="scale(0.9170437,1.0904606)"
       style="font-size:49.19081879px;font-style:normal;font-variant:normal;font-weight:normal;font-stretch:normal;text-align:start;line-height:125%;writing-mode:lr-tb;text-anchor:start;fill:#008000;fill-opacity:1;stroke:none;stroke-width:1px;stroke-linecap:butt;stroke-linejoin:miter;stroke-opacity:1;font-family:StarFont Serif;-inkscape-font-specification:StarFont Serif"
       d="M 52.908953,42.039415 C 53.949726,44.089031 55.270767,45.778362 56.872081,47.107414 C 57.016142,47.17146 57.200288,47.203485 57.424516,47.20349 C 57.680666,47.203485 58.064969,47.115416 58.577426,46.939282 C 59.105789,46.779151 59.53813,46.699088 59.87445,46.699092 C 60.258698,46.699088 60.659014,46.795163 61.075398,46.987319 C 61.79591,47.38763 62.156194,47.964085 62.156251,48.716684 C 62.156194,49.084968 62.020086,49.541328 61.747928,50.085765 C 61.507682,50.598161 61.179424,50.998476 60.763151,51.286712 C 60.346767,51.574931 59.890408,51.719044 59.394071,51.719053 C 58.833575,51.719044 58.305158,51.590943 57.80882,51.33475 C 56.431682,49.877593 55.310798,48.620602 54.446166,47.563774 C 53.581435,46.522949 52.708748,45.297983 51.8281,43.888874 C 50.531031,46.114627 49.378123,47.851996 48.369371,49.100987 C 48.305277,49.181044 48.137144,49.469271 47.864973,49.96567 C 47.608728,50.478066 47.320501,50.886388 47.00029,51.190636 C 46.696009,51.51088 46.271674,51.767082 45.727286,51.959243 C 45.134778,52.167398 44.6544,52.27148 44.286148,52.271489 C 43.821743,52.27148 43.461459,52.159391 43.205295,51.935224 C 42.949055,51.711038 42.820955,51.422811 42.820992,51.070542 C 42.820955,50.333953 43.245289,49.749492 44.093997,49.317158 C 44.574336,49.060949 44.942627,48.876804 45.198869,48.764722 C 45.455031,48.652627 45.743258,48.51652 46.063551,48.3564 C 46.383763,48.196268 46.776072,47.972091 47.24048,47.683869 C 48.249233,47.123422 49.346097,45.169883 50.531077,41.823244 C 46.768065,35.290096 44.622374,27.33983 44.093997,17.972422 C 44.093958,16.899601 44.125983,16.082958 44.190073,15.522489 C 43.74168,11.983727 42.132412,10.214332 39.362263,10.2143 C 38.929888,10.214332 38.385459,10.454522 37.728974,10.934869 C 37.088436,11.415279 36.536001,12.135847 36.071666,13.096575 C 35.607269,14.041349 35.375086,15.162232 35.375116,16.459228 L 35.375116,40.790429 C 35.375086,41.815239 35.487174,42.575838 35.711382,43.07223 C 35.935528,43.584633 36.311824,43.968936 36.840272,44.22514 C 37.38467,44.48134 38.193307,44.69751 39.266187,44.873651 L 39.266187,45.714315 L 25.935667,45.714315 L 25.935667,44.873651 C 27.040517,44.69751 27.849155,44.513365 28.361582,44.321215 C 28.889975,44.129062 29.266271,43.800803 29.490472,43.336438 C 29.714625,42.888084 29.826713,42.15951 29.826738,41.150713 L 29.826738,21.575266 C 29.826713,14.001317 27.761085,10.214332 23.629848,10.2143 C 22.765148,10.310408 21.860435,10.710724 20.915706,11.415248 C 19.970945,12.103822 19.170314,12.992522 18.51381,14.081352 L 18.51381,39.757614 C 18.513797,40.750399 18.577847,41.55103 18.705962,42.15951 C 18.834049,42.767989 19.074239,43.256374 19.42653,43.624666 C 19.794807,43.992955 20.323223,44.249157 21.011781,44.393272 C 21.700308,44.553397 22.653059,44.649472 23.870037,44.6815 L 23.870037,45.714315 L 7.6332238,45.714315 L 7.6332238,44.6815 C 9.1704329,44.665485 10.323342,44.513365 11.091953,44.22514 C 11.860553,43.952923 12.364951,43.480551 12.605147,42.808021 C 12.845329,42.151504 12.965424,41.134702 12.965432,39.757614 L 12.965432,12.376006 C 12.965424,11.54338 12.789285,10.990944 12.437015,10.718698 C 12.08473,10.446515 11.10796,10.310408 9.5067023,10.310376 L 8.3297735,10.310376 L 8.3297735,9.2775609 C 9.3065402,9.1014553 10.187234,8.8772786 10.971859,8.6050302 C 11.756471,8.3328495 12.805298,7.9485466 14.118342,7.4521203 C 15.44738,6.9557641 16.440163,6.6114928 17.096692,6.4193053 L 18.51381,6.4193053 L 18.51381,10.838793 C 19.970945,9.0293985 21.676289,8.1246854 23.629848,8.1246511 C 25.086978,8.1246854 26.416025,8.3328495 27.616994,8.7491439 C 28.833931,9.1655057 29.850732,9.6779096 30.667401,10.286357 C 31.500032,10.894869 32.140537,11.487336 32.588918,12.06376 C 33.325471,10.990944 34.310247,10.070219 35.543249,9.3015798 C 36.77619,8.5169946 38.049194,8.1246854 39.362263,8.1246511 C 42.292538,8.1246854 44.590349,9.0934489 46.255703,11.030945 C 47.024267,10.134269 47.904961,9.429714 48.897788,8.9172766 C 49.890526,8.3888936 50.963372,8.1246854 52.116328,8.1246511 C 53.685517,8.1246854 55.078615,8.5970577 56.295626,9.5417694 C 57.512534,10.470534 58.449272,11.6955 59.105843,13.216669 C 59.762307,14.737898 60.090566,16.323147 60.09062,17.972422 C 59.978477,20.166176 59.706263,22.351899 59.273976,24.529597 C 58.857594,26.707331 58.313165,28.83701 57.640687,30.918639 C 56.984117,33.000291 56.263549,34.945824 55.478981,36.755245 C 54.694312,38.564677 53.837637,40.326065 52.908953,42.039415 M 51.515854,38.628723 C 51.884098,37.395755 52.244382,35.962626 52.596707,34.32933 C 52.964949,32.680039 53.285202,30.974695 53.557465,29.213293 C 53.845644,27.451918 54.085833,25.634486 54.278033,23.76099 C 54.470136,21.887533 54.614249,19.958012 54.710375,17.972422 C 54.710325,12.800371 53.845644,10.214332 52.116328,10.2143 C 51.267612,10.214332 50.627107,10.534585 50.194811,11.175058 C 49.778438,11.815594 49.506224,12.680276 49.378167,13.769105 C 49.266034,14.84198 49.20999,16.243084 49.210034,17.972422 C 49.20999,20.534466 49.258028,22.952372 49.354148,25.226147 C 49.450179,27.499956 49.66635,29.797767 50.00266,32.119587 C 50.33888,34.425414 50.843277,36.595124 51.515854,38.628723"
       id="kamala" />
  </g>
</svg>
