<?xml version="1.0" encoding="UTF-8" standalone="no"?>
<!-- Created with Inkscape (http://www.inkscape.org/) -->
<svg
   xmlns:dc="http://purl.org/dc/elements/1.1/"
   xmlns:cc="http://creativecommons.org/ns#"
   xmlns:rdf="http://www.w3.org/1999/02/22-rdf-syntax-ns#"
   xmlns:svg="http://www.w3.org/2000/svg"
   xmlns="http://www.w3.org/2000/svg"
   xmlns:sodipodi="http://sodipodi.sourceforge.net/DTD/sodipodi-0.dtd"
   xmlns:inkscape="http://www.inkscape.org/namespaces/inkscape"
   width="64px"
   height="64px"
   id="svg4277"
   sodipodi:version="0.32"
   inkscape:version="0.46"
   sodipodi:docname="sign_05.svg"
   inkscape:output_extension="org.inkscape.output.svg.inkscape">
  <defs
     id="defs4279">
    <inkscape:perspective
       sodipodi:type="inkscape:persp3d"
       inkscape:vp_x="0 : 32 : 1"
       inkscape:vp_y="0 : 1000 : 0"
       inkscape:vp_z="64 : 32 : 1"
       inkscape:persp3d-origin="32 : 21.333333 : 1"
       id="perspective4285" />
  </defs>
  <sodipodi:namedview
     id="base"
     pagecolor="#ffffff"
     bordercolor="#666666"
     borderopacity="1.0"
     inkscape:pageopacity="0.0"
     inkscape:pageshadow="2"
     inkscape:zoom="5.5"
     inkscape:cx="-6.8468439"
     inkscape:cy="32"
     inkscape:current-layer="layer1"
     showgrid="true"
     inkscape:document-units="px"
     inkscape:grid-bbox="true"
     inkscape:window-width="1280"
     inkscape:window-height="970"
     inkscape:window-x="-4"
     inkscape:window-y="27" />
  <metadata
     id="metadata4282">
    <rdf:RDF>
      <cc:Work
         rdf:about="">
        <dc:format>image/svg+xml</dc:format>
        <dc:type
           rdf:resource="http://purl.org/dc/dcmitype/StillImage" />
      </cc:Work>
    </rdf:RDF>
  </metadata>
  <g
     id="layer1"
     inkscape:label="Layer 1"
     inkscape:groupmode="layer">
    <path
       transform="scale(1.1017701,0.9076304)"
       style="font-size:56.15791702px;font-style:normal;font-variant:normal;font-weight:normal;font-stretch:normal;text-align:start;line-height:125%;writing-mode:lr-tb;text-anchor:start;fill:#ff0000;fill-opacity:1;stroke:none;stroke-width:1px;stroke-linecap:butt;stroke-linejoin:miter;stroke-opacity:1;font-family:StarFont Serif;-inkscape-font-specification:StarFont Serif"
       d="M 14.799036,39.05443 C 13.994681,39.05444 13.245178,39.255526 12.550526,39.657689 C 11.855856,40.059871 11.298299,40.69969 10.877854,41.577149 C 10.457393,42.436343 10.247167,43.524036 10.247174,44.840231 C 10.247167,46.777974 10.695041,48.212998 11.590796,49.145306 C 12.504815,50.077614 13.574228,50.543768 14.799036,50.54377 C 16.042103,50.543768 17.102375,50.077614 17.979856,49.145306 C 18.875588,48.212998 19.323462,46.777974 19.323478,44.840231 C 19.323462,43.542316 19.113236,42.454623 18.692798,41.577149 C 18.290611,40.68141 17.742194,40.04159 17.047547,39.657689 C 16.352872,39.255526 15.603369,39.05444 14.799036,39.05443 M 17.979856,37.683388 C 17.979841,36.714529 17.769615,35.873624 17.349176,35.160669 C 16.94699,34.42946 16.096944,33.222944 14.799036,31.541115 C 13.501106,29.859322 12.358571,28.223212 11.371429,26.632782 C 10.238027,24.896151 9.6713297,23.040675 9.6713358,21.066348 C 9.6713297,18.763026 10.411692,16.59678 11.892425,14.567604 C 13.373142,12.520217 15.511967,10.865826 18.308906,9.604429 C 21.124097,8.3431101 24.368895,7.712431 28.043311,7.7123898 C 30.858491,7.712431 33.545733,8.1877254 36.105043,9.1382744 C 38.682568,10.088903 40.940217,11.405103 42.877995,13.086878 C 44.833975,14.768725 46.369541,16.724744 47.484699,18.954942 C 48.599769,21.185199 49.157326,23.497689 49.157371,25.892419 C 49.157326,29.073258 48.179316,32.144391 46.223339,35.105827 C 46.150175,35.215524 45.290988,36.431181 43.645779,38.752801 C 42.000489,41.074441 40.666008,43.057881 39.642333,44.703127 C 38.636867,46.348381 37.795961,48.030192 37.119615,49.748565 C 36.443201,51.466936 36.077589,53.157887 36.02278,54.821424 C 36.022748,56.082776 36.187273,57.069926 36.516356,57.782876 C 36.863653,58.51409 37.338948,59.044226 37.94224,59.373286 C 38.545464,59.720606 39.40465,60.040516 40.519801,60.333016 C 40.775692,60.406127 41.168724,60.442688 41.698898,60.4427 C 42.70429,60.442688 43.673159,60.195901 44.605509,59.702336 C 45.537776,59.227031 46.305559,58.651194 46.908861,57.974822 C 47.512076,57.298433 47.813705,56.750016 47.813749,56.329571 C 47.813705,56.000513 47.740583,55.717165 47.594382,55.479524 C 47.448094,55.260151 47.173886,54.921961 46.771757,54.464953 C 46.369541,54.007933 46.077052,53.605761 45.894289,53.258435 C 45.711441,52.92938 45.620038,52.518068 45.620081,52.024496 C 45.620038,51.549199 45.729722,51.128746 45.949131,50.763137 C 46.186736,50.397524 46.506645,50.123315 46.908861,49.940511 C 47.32927,49.757704 47.813705,49.666302 48.362166,49.666302 C 49.404113,49.666302 50.226738,49.958791 50.830044,50.54377 C 51.433255,51.128746 51.734884,51.960511 51.734932,53.039068 C 51.734884,54.24558 51.259589,55.634902 50.309047,57.207038 C 49.358412,58.779158 48.042212,60.104498 46.360444,61.183063 C 44.69687,62.261603 42.859675,62.800879 40.848851,62.800893 C 38.929356,62.800879 37.338948,62.526671 36.077622,61.978268 C 34.834512,61.429838 33.911344,60.598073 33.308115,59.48297 C 32.723108,58.367845 32.430619,56.941962 32.430648,55.205316 C 32.430619,52.92024 32.631705,50.836257 33.033907,48.95336 C 33.45433,47.088744 34.030167,45.361231 34.761421,43.770818 C 35.492612,42.180415 36.351798,40.599147 37.338981,39.02701 C 38.344378,37.454892 39.358949,35.873624 40.382697,34.283201 C 41.771982,32.089549 42.466643,29.594254 42.466682,26.797307 C 42.466643,24.164929 41.845104,21.596511 40.602064,19.092046 C 39.358949,16.58764 37.631436,14.558498 35.419521,13.004615 C 33.207543,11.450804 30.748808,10.673881 28.043311,10.673842 C 25.374325,10.673881 23.098396,11.267999 21.215517,12.456198 C 19.332602,13.644471 17.93414,15.134336 17.020126,16.925798 C 16.124365,18.717324 15.676492,20.490538 15.676504,22.245445 C 15.676492,23.744477 15.978121,24.960133 16.581392,25.892419 C 17.824457,27.720497 18.839027,29.210362 19.625107,30.362018 C 20.411155,31.495431 21.060115,32.601405 21.571988,33.679942 C 22.083826,34.75851 22.485998,36.019868 22.778506,37.464021 C 23.070976,38.889915 23.21722,40.672269 23.21724,42.811088 C 23.21722,43.231547 23.20808,43.588018 23.189819,43.880501 C 23.189799,44.154715 23.180659,44.474624 23.162398,44.840231 C 23.162378,46.448924 22.769346,47.838246 21.983301,49.008202 C 21.197219,50.196438 20.164367,51.083045 18.884744,51.668025 C 17.60509,52.271281 16.243189,52.57291 14.799036,52.572913 C 12.532236,52.57291 10.557937,51.887389 8.8761309,50.516349 C 7.1943146,49.145306 6.3534092,47.253269 6.353412,44.840231 C 6.3534092,42.482044 7.1486133,40.608287 8.7390266,39.218956 C 10.32943,37.829643 12.349431,37.134982 14.799036,37.13497 C 16.023822,37.134982 17.084094,37.317788 17.979856,37.683388"
       id="kamala" />
  </g>
</svg>
