<?xml version="1.0" encoding="UTF-8" standalone="no"?>
<!-- Created with Inkscape (http://www.inkscape.org/) -->
<svg
   xmlns:dc="http://purl.org/dc/elements/1.1/"
   xmlns:cc="http://creativecommons.org/ns#"
   xmlns:rdf="http://www.w3.org/1999/02/22-rdf-syntax-ns#"
   xmlns:svg="http://www.w3.org/2000/svg"
   xmlns="http://www.w3.org/2000/svg"
   xmlns:sodipodi="http://sodipodi.sourceforge.net/DTD/sodipodi-0.dtd"
   xmlns:inkscape="http://www.inkscape.org/namespaces/inkscape"
   width="64px"
   height="64px"
   id="svg8085"
   sodipodi:version="0.32"
   inkscape:version="0.46"
   sodipodi:docname="sign_01.svg"
   inkscape:output_extension="org.inkscape.output.svg.inkscape">
  <defs
     id="defs8087">
    <inkscape:perspective
       sodipodi:type="inkscape:persp3d"
       inkscape:vp_x="0 : 32 : 1"
       inkscape:vp_y="0 : 1000 : 0"
       inkscape:vp_z="64 : 32 : 1"
       inkscape:persp3d-origin="32 : 21.333333 : 1"
       id="perspective8093" />
  </defs>
  <sodipodi:namedview
     id="base"
     pagecolor="#ffffff"
     bordercolor="#666666"
     borderopacity="1.0"
     inkscape:pageopacity="0.0"
     inkscape:pageshadow="2"
     inkscape:zoom="5.5"
     inkscape:cx="-0.75000026"
     inkscape:cy="32"
     inkscape:current-layer="layer1"
     showgrid="true"
     inkscape:document-units="px"
     inkscape:grid-bbox="true"
     inkscape:window-width="1280"
     inkscape:window-height="970"
     inkscape:window-x="-4"
     inkscape:window-y="27" />
  <metadata
     id="metadata8090">
    <rdf:RDF>
      <cc:Work
         rdf:about="">
        <dc:format>image/svg+xml</dc:format>
        <dc:type
           rdf:resource="http://purl.org/dc/dcmitype/StillImage" />
      </cc:Work>
    </rdf:RDF>
  </metadata>
  <g
     id="layer1"
     inkscape:label="Layer 1"
     inkscape:groupmode="layer">
    <path
       transform="scale(1.0015316,0.9984707)"
       style="font-size:62.68755341px;font-style:normal;font-variant:normal;font-weight:normal;font-stretch:normal;text-align:start;line-height:125%;writing-mode:lr-tb;text-anchor:start;fill:#ff0000;fill-opacity:1;stroke:none;stroke-width:1px;stroke-linecap:butt;stroke-linejoin:miter;stroke-opacity:1;font-family:StarFont Serif;-inkscape-font-specification:StarFont Serif"
       d="M 31.935759,15.336413 C 33.017254,13.989649 34.374258,12.734675 36.006777,11.571487 C 37.639232,10.408381 39.44517,9.4390921 41.424598,8.6636166 C 43.424356,7.8678236 45.444559,7.3168593 47.485211,7.0107221 C 49.280903,7.0107681 50.903186,7.4597019 52.352067,8.357525 C 53.80085,9.2350312 54.923185,10.469599 55.719074,12.061233 C 56.51486,13.632542 56.912778,15.418075 56.912831,17.417835 C 56.912778,20.274723 56.076129,23.172387 54.40288,26.110836 C 52.933592,28.477969 51.545978,30.151268 50.240035,31.130738 C 48.954405,32.110252 47.617807,32.630607 46.230235,32.691805 C 45.067046,32.691825 44.148772,32.365328 43.475411,31.712312 C 42.822377,31.038932 42.465271,30.141065 42.404091,29.018706 C 42.404052,28.100456 42.628519,27.355634 43.077492,26.784238 C 43.526387,26.192487 44.158976,25.886396 44.97526,25.865963 C 45.505777,25.86599 45.934305,25.978223 46.260845,26.202664 C 46.607706,26.406751 46.934203,26.723045 47.240338,27.151547 C 47.566792,27.559695 47.811665,27.835177 47.974957,27.977995 C 48.138162,28.120862 48.393238,28.192283 48.740186,28.192259 C 49.2707,28.171877 49.801258,27.824974 50.331862,27.151547 C 50.862374,26.457766 51.301105,25.610914 51.648056,24.610987 C 52.015318,23.590711 52.198973,22.733656 52.199021,22.039818 C 52.403034,21.284824 52.505064,20.448175 52.505113,19.529867 C 52.505064,18.38716 52.321409,17.275028 51.954148,16.193469 C 51.607196,15.091577 51.046029,14.19371 50.270644,13.499863 C 49.495167,12.806096 48.546284,12.459193 47.423992,12.459152 C 46.852579,12.459193 46.413848,12.500005 46.107799,12.581589 C 43.801869,13.091781 41.608215,13.95904 39.52683,15.183367 C 37.46578,16.40777 36.129181,18.25452 35.51703,20.723624 L 35.51703,49.496232 C 35.516999,50.761413 35.598623,51.781717 35.761904,52.557148 C 35.925121,53.332579 36.231212,53.954965 36.680178,54.424306 C 37.149486,54.893645 37.822886,55.220142 38.700383,55.403799 C 39.57781,55.607858 40.791972,55.730294 42.342872,55.771109 L 42.342872,57.087303 L 21.681692,57.087303 L 21.681692,55.771109 C 23.620252,55.7507 25.069084,55.556842 26.028192,55.189535 C 27.007662,54.842629 27.650453,54.24065 27.956569,53.383595 C 28.283042,52.546945 28.446291,51.251159 28.446315,49.496232 L 28.446315,20.723624 C 27.997357,19.009546 27.160707,17.591323 25.936364,16.468952 C 24.711977,15.346653 23.426394,14.510004 22.079611,13.959001 C 20.753197,13.408075 19.345177,12.948939 17.855547,12.581589 C 17.549442,12.500005 17.110711,12.459193 16.539353,12.459152 C 14.845636,12.459193 13.560052,13.193812 12.682599,14.663011 C 11.825535,16.111882 11.397007,17.785181 11.397015,19.682913 C 11.397007,20.49919 11.499038,21.284824 11.703106,22.039818 C 11.703099,22.733656 11.87655,23.590711 12.223462,24.610987 C 12.590763,25.610914 13.039697,26.457766 13.570265,27.151547 C 14.100813,27.824974 14.651778,28.171877 15.223159,28.192259 C 15.590458,28.192283 15.845534,28.120862 15.988388,27.977995 C 16.131219,27.835177 16.365889,27.549492 16.692399,27.120938 C 17.03929,26.692436 17.37599,26.376142 17.702501,26.172054 C 18.028985,25.96802 18.457512,25.86599 18.988086,25.865963 C 19.539035,25.886396 19.998172,26.039442 20.365498,26.3251 C 20.753197,26.590406 21.038882,26.947512 21.222554,27.396421 C 21.426598,27.84538 21.528628,28.386141 21.528646,29.018706 C 21.487816,30.141065 21.130709,31.038932 20.457325,31.712312 C 19.783908,32.365328 18.875837,32.691825 17.73311,32.691805 C 16.325077,32.630607 14.998681,32.130658 13.75392,31.191956 C 12.509139,30.232892 11.111322,28.539187 9.5604654,26.110836 C 7.8463487,23.254011 6.9892931,20.376753 6.9892962,17.479054 C 6.9892931,15.458887 7.3872118,13.663152 8.1830533,12.091842 C 8.9992924,10.500208 10.13183,9.2554373 11.58067,8.357525 C 13.0499,7.4597019 14.682387,7.0107681 16.478135,7.0107221 C 18.477919,7.2964532 20.467512,7.8372145 22.44692,8.6330074 C 24.446698,9.428889 26.26284,10.418584 27.89535,11.602096 C 29.548219,12.765284 30.895021,14.010055 31.935759,15.336413"
       id="kamala" />
  </g>
</svg>
