<?xml version="1.0" encoding="UTF-8" standalone="no"?>
<!-- Created with Inkscape (http://www.inkscape.org/) -->
<svg
   xmlns:dc="http://purl.org/dc/elements/1.1/"
   xmlns:cc="http://creativecommons.org/ns#"
   xmlns:rdf="http://www.w3.org/1999/02/22-rdf-syntax-ns#"
   xmlns:svg="http://www.w3.org/2000/svg"
   xmlns="http://www.w3.org/2000/svg"
   xmlns:sodipodi="http://sodipodi.sourceforge.net/DTD/sodipodi-0.dtd"
   xmlns:inkscape="http://www.inkscape.org/namespaces/inkscape"
   width="64px"
   height="64px"
   id="svg7541"
   sodipodi:version="0.32"
   inkscape:version="0.46"
   sodipodi:docname="sign_08.svg"
   inkscape:output_extension="org.inkscape.output.svg.inkscape">
  <defs
     id="defs7543">
    <inkscape:perspective
       sodipodi:type="inkscape:persp3d"
       inkscape:vp_x="0 : 32 : 1"
       inkscape:vp_y="0 : 1000 : 0"
       inkscape:vp_z="64 : 32 : 1"
       inkscape:persp3d-origin="32 : 21.333333 : 1"
       id="perspective7549" />
  </defs>
  <sodipodi:namedview
     id="base"
     pagecolor="#ffffff"
     bordercolor="#666666"
     borderopacity="1.0"
     inkscape:pageopacity="0.0"
     inkscape:pageshadow="2"
     inkscape:zoom="5.5"
     inkscape:cx="-2.4636082"
     inkscape:cy="32"
     inkscape:current-layer="layer1"
     showgrid="true"
     inkscape:document-units="px"
     inkscape:grid-bbox="true"
     inkscape:window-width="1280"
     inkscape:window-height="970"
     inkscape:window-x="-4"
     inkscape:window-y="27" />
  <metadata
     id="metadata7546">
    <rdf:RDF>
      <cc:Work
         rdf:about="">
        <dc:format>image/svg+xml</dc:format>
        <dc:type
           rdf:resource="http://purl.org/dc/dcmitype/StillImage" />
      </cc:Work>
    </rdf:RDF>
  </metadata>
  <g
     id="layer1"
     inkscape:label="Layer 1"
     inkscape:groupmode="layer">
    <path
       transform="scale(0.8454156,1.1828502)"
       style="font-size:46.82020187px;font-style:normal;font-variant:normal;font-weight:normal;font-stretch:normal;text-align:start;line-height:125%;writing-mode:lr-tb;text-anchor:start;fill:#0000ff;fill-opacity:1;stroke:none;stroke-width:1px;stroke-linecap:butt;stroke-linejoin:miter;stroke-opacity:1;font-family:StarFont Serif;-inkscape-font-specification:StarFont Serif"
       d="M 59.032318,38.724056 C 56.426064,39.973814 54.528568,40.598693 53.339822,40.598693 C 53.141643,40.598693 52.920649,40.568211 52.676841,40.507247 C 52.006193,40.507247 51.381315,40.40056 50.802204,40.187187 C 50.238245,40.004296 49.956287,39.615652 49.956331,39.021255 C 49.956287,38.59451 50.062974,38.190625 50.276391,37.809599 C 50.626888,37.30665 50.97743,37.055175 51.328017,37.055172 C 51.480381,37.055175 51.648031,37.100898 51.830968,37.19234 C 52.105259,37.314271 52.333873,37.634331 52.516811,38.15252 C 52.699656,38.670714 52.874926,38.92981 53.042624,38.929809 C 53.789383,38.807883 54.7267,38.388757 55.854579,37.67243 C 56.982359,36.940868 58.315941,35.98831 59.855329,34.814752 C 61.39461,33.641205 62.415752,32.90202 62.91876,32.597194 C 63.010149,33.039188 63.109215,34.04509 63.215959,35.614902 C 63.322588,37.169482 63.414034,38.381136 63.490296,39.249869 C 63.581684,40.118603 63.718852,41.033059 63.901802,41.99324 C 64.099876,42.968658 64.366592,43.707844 64.701951,44.210798 C 64.747615,44.393686 64.82382,44.485131 64.930566,44.485136 C 65.037193,44.485131 65.265807,44.408927 65.616409,44.256521 C 65.96689,44.104108 66.241227,44.027903 66.43942,44.027907 C 66.530805,44.027903 66.667973,44.058385 66.850926,44.119353 C 67.231888,44.256517 67.4224,44.523234 67.422461,44.919503 C 67.4224,45.087148 67.376677,45.323383 67.285293,45.628207 C 67.117581,46.024466 66.904208,46.344525 66.645173,46.588387 C 66.386016,46.847476 66.096438,46.977024 65.776438,46.977031 C 65.623969,46.977024 65.425837,46.916061 65.182041,46.79414 C 64.374213,46.352146 63.871262,45.940641 63.673187,45.559623 C 63.093974,45.163353 62.560541,44.363204 62.072887,43.159173 C 61.585121,41.970377 61.196477,40.743482 60.906955,39.478483 C 60.647804,40.545349 60.221058,41.589353 59.626715,42.610499 C 59.047505,43.64688 58.3007,44.584197 57.386295,45.422454 C 56.471787,46.275941 55.397301,46.946542 54.162834,47.43426 C 52.92827,47.937203 51.571826,48.188679 50.0935,48.188687 C 48.615085,48.127715 47.334846,47.609523 46.25278,46.63411 C 45.185874,45.658683 44.378105,44.363204 43.829469,42.747667 C 43.295998,41.132125 43.029282,39.310834 43.029319,37.283786 L 43.029319,20.343469 C 43.029282,17.005724 42.945457,14.635758 42.777843,13.233565 C 42.625397,11.831426 42.244374,10.863627 41.634772,10.330164 C 41.04034,9.7967612 39.988715,9.5300448 38.479895,9.5300141 C 38.068357,9.5605267 37.550165,9.8043817 36.925318,10.26158 C 36.31565,10.703597 35.789837,11.374198 35.34788,12.273385 C 34.905863,13.157388 34.684869,14.224253 34.684898,15.473985 L 34.684898,38.63261 C 34.684869,39.653755 34.837279,40.408181 35.142127,40.895892 C 35.446916,41.383601 35.881283,41.726522 36.445228,41.924656 C 37.024353,42.138027 37.877846,42.336159 39.005708,42.519053 L 39.005708,43.319203 L 25.700357,43.319203 L 25.700357,42.519053 C 26.751962,42.3514 27.52163,42.176129 28.009362,41.99324 C 28.51229,41.810347 28.870452,41.497908 29.083849,41.055922 C 29.297199,40.629174 29.403885,39.935712 29.403909,38.975532 L 29.403909,20.343469 C 29.403885,13.134526 27.437804,9.5300448 23.505661,9.5300141 C 22.682632,9.6214904 21.82152,10.002514 20.922319,10.673085 C 20.023089,11.328475 19.261042,12.174347 18.636177,13.210704 L 18.636177,37.649569 C 18.636164,38.59451 18.697128,39.356556 18.819068,39.935712 C 18.940983,40.514867 19.169597,40.979716 19.504911,41.330259 C 19.855439,41.680799 20.35839,41.924654 21.013765,42.061824 C 21.66911,42.214232 22.575946,42.305677 23.734275,42.336161 L 23.734275,43.319203 L 8.2799504,43.319203 L 8.2799504,42.336161 C 9.7430779,42.320918 10.840425,42.176129 11.571996,41.901794 C 12.303555,41.642697 12.783645,41.193089 13.012266,40.55297 C 13.240873,39.928091 13.35518,38.960292 13.355187,37.649569 L 13.355187,11.587543 C 13.35518,10.795042 13.187529,10.26923 12.852236,10.010104 C 12.516928,9.7510384 11.587231,9.6214904 10.063142,9.6214598 L 8.9429317,9.6214598 L 8.9429317,8.6384185 C 9.8726258,8.4707998 10.710877,8.2574267 11.457689,7.9982985 C 12.204489,7.7392348 13.20277,7.3734524 14.452536,6.90095 C 15.717525,6.4285144 16.662463,6.1008342 17.287352,5.9179087 L 18.636177,5.9179087 L 18.636177,10.124411 C 20.023089,8.4022156 21.646249,7.5411027 23.505661,7.54107 C 24.892568,7.5411027 26.157566,7.7392348 27.300657,8.1354671 C 28.458947,8.5317635 29.426747,9.0194735 30.204059,9.5985984 C 30.996563,10.177785 31.6062,10.741699 32.032973,11.290344 C 32.718789,10.299712 33.648486,9.4309787 34.822067,8.6841413 C 35.99559,7.937367 37.214865,7.5563436 38.479895,7.54107 C 41.299436,7.5411027 43.410305,8.1202582 44.81251,9.2785384 C 46.214637,10.42164 47.07575,11.640914 47.395851,12.936367 C 47.731111,14.231874 47.898761,15.496871 47.898803,16.731364 L 47.898803,37.283786 C 47.914002,39.356556 48.119754,40.88065 48.516061,41.856071 C 48.927524,42.846731 49.377132,43.448748 49.864886,43.662124 C 50.367792,43.890735 51.084116,44.058385 52.01386,44.165076 C 53.034956,44.165072 53.995135,43.936458 54.894399,43.479233 C 55.793566,43.022001 56.578474,42.389503 57.249126,41.581734 C 57.934917,40.789204 58.529314,39.836646 59.032318,38.724056"
       id="kamala" />
  </g>
</svg>
