<?xml version="1.0" encoding="UTF-8" standalone="no"?>
<!-- Created with Inkscape (http://www.inkscape.org/) -->
<svg
   xmlns:dc="http://purl.org/dc/elements/1.1/"
   xmlns:cc="http://creativecommons.org/ns#"
   xmlns:rdf="http://www.w3.org/1999/02/22-rdf-syntax-ns#"
   xmlns:svg="http://www.w3.org/2000/svg"
   xmlns="http://www.w3.org/2000/svg"
   xmlns:sodipodi="http://sodipodi.sourceforge.net/DTD/sodipodi-0.dtd"
   xmlns:inkscape="http://www.inkscape.org/namespaces/inkscape"
   width="64px"
   height="64px"
   id="svg3733"
   sodipodi:version="0.32"
   inkscape:version="0.46"
   sodipodi:docname="sign_12.svg"
   inkscape:output_extension="org.inkscape.output.svg.inkscape">
  <defs
     id="defs3735">
    <inkscape:perspective
       sodipodi:type="inkscape:persp3d"
       inkscape:vp_x="0 : 32 : 1"
       inkscape:vp_y="0 : 1000 : 0"
       inkscape:vp_z="64 : 32 : 1"
       inkscape:persp3d-origin="32 : 21.333333 : 1"
       id="perspective3741" />
  </defs>
  <sodipodi:namedview
     id="base"
     pagecolor="#ffffff"
     bordercolor="#666666"
     borderopacity="1.0"
     inkscape:pageopacity="0.0"
     inkscape:pageshadow="2"
     inkscape:zoom="5.5"
     inkscape:cx="-6.8917146"
     inkscape:cy="32"
     inkscape:current-layer="layer1"
     showgrid="true"
     inkscape:document-units="px"
     inkscape:grid-bbox="true"
     inkscape:window-width="1280"
     inkscape:window-height="970"
     inkscape:window-x="-4"
     inkscape:window-y="27" />
  <metadata
     id="metadata3738">
    <rdf:RDF>
      <cc:Work
         rdf:about="">
        <dc:format>image/svg+xml</dc:format>
        <dc:type
           rdf:resource="http://purl.org/dc/dcmitype/StillImage" />
      </cc:Work>
    </rdf:RDF>
  </metadata>
  <g
     id="layer1"
     inkscape:label="Layer 1"
     inkscape:groupmode="layer">
    <path
       transform="scale(1.0288428,0.9719658)"
       style="font-size:64.7134552px;font-style:normal;font-variant:normal;font-weight:normal;font-stretch:normal;text-align:start;line-height:100%;writing-mode:lr-tb;text-anchor:start;fill:#0000ff;fill-opacity:1;stroke:none;stroke-width:1px;stroke-linecap:butt;stroke-linejoin:miter;stroke-opacity:1;font-family:StarFont Serif;-inkscape-font-specification:StarFont Serif"
       d="M 42.288726,34.566087 C 42.309753,35.998565 42.320286,37.49422 42.320325,39.053055 C 42.341351,40.611922 42.48881,42.339298 42.762702,44.235187 C 43.036515,46.131098 43.552621,47.942736 44.311022,49.670107 C 45.090407,51.397487 46.227947,52.882609 47.723645,54.125476 C 48.123847,54.125477 48.471428,54.020149 48.766391,53.809493 C 49.08233,53.598838 49.46151,53.293387 49.903933,52.89314 C 50.346263,52.492896 50.778107,52.176913 51.199466,51.945189 C 51.641795,51.71347 52.136835,51.59761 52.684589,51.597607 C 53.527162,51.59761 54.190727,51.892528 54.675286,52.482361 C 55.159743,53.051133 55.401997,53.809493 55.402048,54.757444 C 55.401997,55.95818 55.064948,56.90613 54.390901,57.601297 C 53.716752,58.296457 52.768802,58.644039 51.547048,58.644043 C 50.093476,58.644039 48.861141,58.275391 47.850039,57.5381 C 44.016063,54.778509 40.982623,51.513348 38.749709,47.742606 C 36.53779,43.971878 35.315988,39.57971 35.084299,34.566087 L 26.995117,34.566087 C 26.931897,37.136105 26.573782,39.548111 25.920772,41.802113 C 25.288783,44.056141 24.425095,46.120565 23.329706,47.995393 C 22.255343,49.849169 20.980877,51.555479 19.506304,53.114329 C 18.052764,54.652116 16.346454,56.126705 14.387368,57.5381 C 13.376211,58.275391 12.143876,58.644039 10.690359,58.644043 C 9.5106811,58.644039 8.562731,58.285924 7.8465064,57.569698 C 7.1513387,56.874532 6.8037571,55.937115 6.8037603,54.757444 C 6.8037571,53.809493 7.0565437,53.051133 7.5621211,52.482361 C 8.088756,51.892528 8.7628538,51.59761 9.5844166,51.597607 C 10.132115,51.59761 10.616623,51.71347 11.037941,51.945189 C 11.480311,52.176913 11.964818,52.524494 12.491466,52.987935 C 13.018096,53.430313 13.397276,53.735764 13.629008,53.904288 C 13.860719,54.051747 14.155636,54.125477 14.513762,54.125476 C 16.662438,52.35597 18.084363,50.123021 18.779541,47.426622 C 19.474689,44.709173 19.822271,41.696798 19.822287,38.38949 L 19.822287,34.566087 L 9.8056051,34.566087 L 9.8056051,31.279857 L 19.822287,31.279857 L 19.822287,27.266864 C 19.822271,23.980665 19.474689,20.999889 18.779541,18.324527 C 18.084363,15.628172 16.662438,13.426821 14.513762,11.720468 C 14.197767,11.720511 13.818587,11.878503 13.376221,12.194444 C 12.9549,12.489404 12.565187,12.794854 12.207081,13.110796 C 11.848958,13.426821 11.459245,13.700673 11.037941,13.932354 C 10.637688,14.14305 10.153181,14.248378 9.5844166,14.248337 C 8.7628538,14.248378 8.088756,13.942927 7.5621211,13.331985 C 7.0565437,12.721125 6.8037571,11.973298 6.8037603,11.088501 C 6.8037571,9.8878075 7.1618715,8.9398574 7.8781047,8.2446477 C 8.5943294,7.5495307 9.5317467,7.201949 10.690359,7.2019015 C 12.207072,7.201949 13.439407,7.5495307 14.387368,8.2446477 C 16.894159,10.014201 19.053378,12.015429 20.865033,14.248337 C 22.69772,16.481327 24.151243,19.019726 25.225608,21.863544 C 26.320995,24.707427 26.910831,27.846195 26.995117,31.279857 L 35.210692,31.279857 C 35.294923,28.646686 35.66357,26.203081 36.316635,23.949036 C 36.969634,21.695052 37.843855,19.620095 38.939299,17.724158 C 40.055738,15.828294 41.361803,14.100919 42.857497,12.542026 C 44.353112,10.983216 46.017291,9.5507586 47.850039,8.2446477 C 48.797945,7.5495307 50.03028,7.201949 51.547048,7.2019015 C 52.747736,7.201949 53.685154,7.5495307 54.359302,8.2446477 C 55.054415,8.9187919 55.401997,9.8667419 55.402048,11.088501 C 55.401997,11.973298 55.159743,12.721125 54.675286,13.331985 C 54.190727,13.942927 53.527162,14.248378 52.684589,14.248337 C 52.11577,14.248378 51.620729,14.14305 51.199466,13.932354 C 50.799172,13.700673 50.367329,13.38469 49.903933,12.984403 C 49.46151,12.563133 49.08233,12.24715 48.766391,12.036452 C 48.450363,11.825839 48.102781,11.720511 47.723645,11.720468 C 46.227947,12.921248 45.090407,14.395837 44.311022,16.144239 C 43.552621,17.871653 43.036515,19.683291 42.762702,21.579158 C 42.48881,23.454026 42.341351,25.181402 42.320325,26.761291 C 42.320286,28.341235 42.309753,29.847423 42.288726,31.279857 L 52.305408,31.279857 L 52.305408,34.566087 L 42.288726,34.566087"
       id="kamala" />
  </g>
</svg>
