<?xml version="1.0" encoding="UTF-8" standalone="no"?>
<!-- Created with Inkscape (http://www.inkscape.org/) -->
<svg
   xmlns:dc="http://purl.org/dc/elements/1.1/"
   xmlns:cc="http://creativecommons.org/ns#"
   xmlns:rdf="http://www.w3.org/1999/02/22-rdf-syntax-ns#"
   xmlns:svg="http://www.w3.org/2000/svg"
   xmlns="http://www.w3.org/2000/svg"
   xmlns:sodipodi="http://sodipodi.sourceforge.net/DTD/sodipodi-0.dtd"
   xmlns:inkscape="http://www.inkscape.org/namespaces/inkscape"
   width="64px"
   height="64px"
   id="svg2383"
   sodipodi:version="0.32"
   inkscape:version="0.46"
   sodipodi:docname="uranus_b.svg"
   inkscape:output_extension="org.inkscape.output.svg.inkscape">
  <defs
     id="defs2385">
    <inkscape:perspective
       sodipodi:type="inkscape:persp3d"
       inkscape:vp_x="0 : 32 : 1"
       inkscape:vp_y="0 : 1000 : 0"
       inkscape:vp_z="64 : 32 : 1"
       inkscape:persp3d-origin="32 : 21.333333 : 1"
       id="perspective2391" />
  </defs>
  <sodipodi:namedview
     id="base"
     pagecolor="#ffffff"
     bordercolor="#666666"
     borderopacity="1.0"
     inkscape:pageopacity="0.0"
     inkscape:pageshadow="2"
     inkscape:zoom="5.5"
     inkscape:cx="-2.0580995"
     inkscape:cy="32"
     inkscape:current-layer="layer1"
     showgrid="true"
     inkscape:document-units="px"
     inkscape:grid-bbox="true"
     inkscape:window-width="1280"
     inkscape:window-height="970"
     inkscape:window-x="-4"
     inkscape:window-y="27" />
  <metadata
     id="metadata2388">
    <rdf:RDF>
      <cc:Work
         rdf:about="">
        <dc:format>image/svg+xml</dc:format>
        <dc:type
           rdf:resource="http://purl.org/dc/dcmitype/StillImage" />
      </cc:Work>
    </rdf:RDF>
  </metadata>
  <g
     id="layer1"
     inkscape:label="Layer 1"
     inkscape:groupmode="layer">
    <path
       transform="scale(1.2464575,0.8022737)"
       style="font-size:78.01787567px;font-style:normal;font-variant:normal;font-weight:normal;font-stretch:normal;text-align:start;line-height:125%;writing-mode:lr-tb;text-anchor:start;fill:#00ffff;fill-opacity:1;stroke:none;stroke-width:1px;stroke-linecap:butt;stroke-linejoin:miter;stroke-opacity:1;font-family:StarFont Serif;-inkscape-font-specification:StarFont Serif"
       d="M 25.615615,48.496034 C 26.606051,48.496051 27.469529,48.889696 28.206052,49.676969 C 28.967918,50.438877 29.348864,51.302356 29.348892,52.267406 C 29.348864,53.232483 28.967918,54.095962 28.206052,54.857843 C 27.444133,55.619747 26.580655,56.000693 25.615615,56.000683 C 24.675923,56.000693 23.825143,55.619747 23.063272,54.857843 C 22.301358,54.095962 21.920412,53.232483 21.920432,52.267406 C 21.920412,51.302356 22.28866,50.438877 23.025177,49.676969 C 23.787049,48.889696 24.650527,48.496051 25.615615,48.496034 M 25.615615,66.514811 C 29.171089,66.51481 32.117074,65.346575 34.453577,63.010102 C 36.815411,60.648238 37.996345,57.067343 37.996381,52.267406 C 37.996345,49.702381 37.640795,47.492893 36.92973,45.638934 C 36.218596,43.759619 35.26623,42.273929 34.07263,41.181858 C 32.904363,40.06444 31.583749,39.251755 30.110785,38.7438 C 28.637765,38.235898 27.139376,37.981934 25.615615,37.981906 C 23.482292,37.981934 21.475975,38.451768 19.596657,39.391409 C 17.742701,40.305706 16.218916,41.84219 15.025298,44.000863 C 13.857049,46.159581 13.272931,48.915092 13.272943,52.267406 C 13.272931,57.041946 14.453865,60.610143 16.815747,62.972007 C 19.177599,65.333877 22.110885,66.51481 25.615615,66.514811 M 32.396465,34.401008 C 36.180501,35.721653 39.342355,37.94384 41.882037,41.067574 C 44.447035,44.165962 45.729554,47.899236 45.729598,52.267406 C 45.729554,56.02609 44.84068,59.340322 43.062972,62.210114 C 41.310577,65.054516 38.897918,67.238608 35.824985,68.762396 C 32.751984,70.286179 29.348864,71.048071 25.615615,71.048076 C 21.882317,71.048071 18.491895,70.27348 15.444339,68.724302 C 12.396755,67.200514 9.9967934,65.016422 8.244447,62.172019 C 6.4920877,59.302228 5.6159112,56.000693 5.6159151,52.267406 C 5.6159112,47.950028 6.7206554,44.305642 8.930151,41.334237 C 11.165029,38.337484 14.047522,36.204185 17.57764,34.934333 C 17.653814,34.883571 18.110949,34.667702 18.949048,34.286724 C 19.812509,33.880413 20.434721,33.512165 20.815687,33.181978 C 21.196614,32.826461 21.387087,32.394722 21.387107,31.88676 L 21.387107,23.544028 C 18.949031,26.083712 17.031601,27.493213 15.634812,27.772536 C 14.999888,28.255106 13.984031,28.534466 12.587239,28.610618 C 10.555515,28.610656 9.5396579,27.721781 9.5396657,25.943992 C 9.5650543,25.309121 9.8444149,24.686909 10.377748,24.077353 C 10.936461,23.467881 11.482484,23.163124 12.015819,23.163081 C 12.549133,23.213917 13.095156,23.594863 13.65389,24.305921 C 14.237995,24.991666 14.606243,25.334518 14.758635,25.334477 C 14.885604,25.334518 14.98719,25.258329 15.063392,25.105909 C 16.104632,24.420247 17.247471,23.112331 18.491912,21.182159 C 19.73632,19.226679 21.133123,16.801321 22.682325,13.906077 C 24.231486,11.010938 25.209248,9.2839813 25.615615,8.7252029 C 26.123519,9.3855669 26.872714,10.617293 27.8632,12.420385 C 28.853634,14.198188 29.818698,15.937843 30.758395,17.639355 C 31.723429,19.340963 32.675795,20.85205 33.615495,22.17262 C 34.55513,23.467881 35.469401,24.39485 36.35831,24.953531 C 36.485258,25.156743 36.624938,25.258329 36.777352,25.258288 C 36.929695,25.258329 37.310642,24.940873 37.920192,24.305921 C 38.52967,23.671052 39.101089,23.340899 39.634452,23.31546 C 40.116946,23.315502 40.599478,23.607561 41.082049,24.191637 C 41.589938,24.7504 41.843902,25.359914 41.843942,26.020181 C 41.843902,26.883699 41.564542,27.531308 41.00586,27.963009 C 40.472496,28.394786 39.735999,28.610656 38.796369,28.610618 C 37.424925,28.534466 36.409069,28.217011 35.748796,27.658252 C 34.224977,27.455119 32.269452,26.007523 29.882217,23.31546 L 29.882217,31.88676 C 29.882189,32.293136 29.996473,32.648686 30.225069,32.95341 C 30.479005,33.232804 30.771064,33.486768 31.101247,33.715304 C 31.456767,33.918507 31.888506,34.147075 32.396465,34.401008"
       id="kamala" />
  </g>
</svg>
