<?xml version="1.0" encoding="UTF-8" standalone="no"?>
<!-- Created with Inkscape (http://www.inkscape.org/) -->
<svg
   xmlns:dc="http://purl.org/dc/elements/1.1/"
   xmlns:cc="http://creativecommons.org/ns#"
   xmlns:rdf="http://www.w3.org/1999/02/22-rdf-syntax-ns#"
   xmlns:svg="http://www.w3.org/2000/svg"
   xmlns="http://www.w3.org/2000/svg"
   xmlns:sodipodi="http://sodipodi.sourceforge.net/DTD/sodipodi-0.dtd"
   xmlns:inkscape="http://www.inkscape.org/namespaces/inkscape"
   width="64px"
   height="64px"
   id="svg5364"
   sodipodi:version="0.32"
   inkscape:version="0.46"
   sodipodi:docname="uranus.svg"
   inkscape:output_extension="org.inkscape.output.svg.inkscape">
  <defs
     id="defs5366">
    <inkscape:perspective
       sodipodi:type="inkscape:persp3d"
       inkscape:vp_x="0 : 32 : 1"
       inkscape:vp_y="0 : 1000 : 0"
       inkscape:vp_z="64 : 32 : 1"
       inkscape:persp3d-origin="32 : 21.333333 : 1"
       id="perspective5372" />
  </defs>
  <sodipodi:namedview
     id="base"
     pagecolor="#ffffff"
     bordercolor="#666666"
     borderopacity="1.0"
     inkscape:pageopacity="0.0"
     inkscape:pageshadow="2"
     inkscape:zoom="5.5"
     inkscape:cx="-5.5732914"
     inkscape:cy="32"
     inkscape:current-layer="layer1"
     showgrid="true"
     inkscape:document-units="px"
     inkscape:grid-bbox="true"
     inkscape:window-width="1280"
     inkscape:window-height="970"
     inkscape:window-x="-4"
     inkscape:window-y="27" />
  <metadata
     id="metadata5369">
    <rdf:RDF>
      <cc:Work
         rdf:about="">
        <dc:format>image/svg+xml</dc:format>
        <dc:type
           rdf:resource="http://purl.org/dc/dcmitype/StillImage" />
      </cc:Work>
    </rdf:RDF>
  </metadata>
  <g
     id="layer1"
     inkscape:label="Layer 1"
     inkscape:groupmode="layer">
    <path
       transform="scale(1.07261,0.9323053)"
       style="font-size:67.13647461px;font-style:normal;font-variant:normal;font-weight:normal;font-stretch:normal;text-align:start;line-height:125%;writing-mode:lr-tb;text-anchor:start;fill:#00ffff;fill-opacity:1;stroke:none;stroke-width:1px;stroke-linecap:butt;stroke-linejoin:miter;stroke-opacity:1;font-family:StarFont Serif;-inkscape-font-specification:StarFont Serif"
       d="M 29.83377,37.568887 C 27.233082,37.568906 25.080433,38.399369 23.375818,40.060279 C 21.693017,41.721223 20.851626,44.278176 20.851644,47.731146 C 20.851626,50.091419 21.288712,52.036452 22.162903,53.56625 C 23.037056,55.096054 24.151625,56.199696 25.506614,56.87718 C 26.883413,57.576517 28.325797,57.926186 29.83377,57.926187 C 32.25957,57.926186 34.346656,57.095722 36.095033,55.434794 C 37.865198,53.752015 38.750297,51.184134 38.750333,47.731146 C 38.750297,45.939103 38.520827,44.398374 38.061922,43.108957 C 37.602947,41.797713 36.947318,40.737779 36.095033,39.929153 C 35.264537,39.098707 34.324802,38.497714 33.275826,38.126172 C 32.248643,37.754667 31.101293,37.568906 29.83377,37.568887 M 36.619537,35.634779 C 39.023476,36.640098 40.946654,38.202681 42.389077,40.322531 C 43.831422,42.442415 44.552614,44.91195 44.552655,47.731146 C 44.552614,49.851022 44.148309,51.763273 43.33974,53.467905 C 42.531091,55.15069 41.427449,56.560292 40.028811,57.696717 C 38.651953,58.833139 37.067516,59.685457 35.275496,60.253672 C 33.505266,60.843735 31.691359,61.138768 29.83377,61.138772 C 27.298645,61.138768 24.905599,60.625192 22.654625,59.598042 C 20.403613,58.570888 18.589706,57.041087 17.212899,55.008635 C 15.836065,52.976187 15.147654,50.55036 15.147666,47.731146 C 15.147654,44.977513 15.81421,42.584468 17.147336,40.552002 C 18.502289,38.519568 20.316196,36.989767 22.589062,35.962594 C 23.157255,35.678509 23.703612,35.40533 24.228137,35.143057 C 24.774473,34.858973 25.211559,34.56394 25.539396,34.257957 C 25.889042,33.930165 26.063877,33.536788 26.0639,33.077824 L 26.0639,27.439409 C 26.063877,27.046061 25.801625,26.751028 25.277144,26.554309 L 20.294359,26.554309 C 20.228779,28.914603 19.835401,31.023543 19.114225,32.881135 C 18.393018,34.738774 17.38772,36.432482 16.098329,37.962265 C 14.808912,39.47023 13.32282,40.814269 11.640048,41.994387 C 10.98441,42.49705 10.132092,42.748375 9.083092,42.748361 C 8.274477,42.748375 7.6407023,42.507978 7.181766,42.027168 C 6.744676,41.546388 6.5261331,40.890759 6.5261364,40.060279 C 6.5261331,38.639767 7.1380534,37.929502 8.3618994,37.929483 C 8.9956689,37.929502 9.6185164,38.213608 10.230444,38.781802 C 10.864211,39.328177 11.355933,39.601356 11.705611,39.601339 C 12.732754,38.814601 13.497655,37.918575 14.000314,36.913257 C 14.524807,35.907979 14.885403,34.542085 15.082103,32.815572 C 15.300634,31.067252 15.409906,28.488445 15.409918,25.079142 C 15.409906,21.954009 15.333416,19.57189 15.180448,17.932779 C 15.027455,16.271891 14.688714,14.862289 14.164222,13.703968 C 13.639707,12.545733 12.820171,11.507654 11.705611,10.589727 C 11.421496,10.589773 11.181099,10.666263 10.984418,10.819198 C 10.787721,10.950369 10.514543,11.168912 10.164881,11.474827 C 9.8370594,11.780833 9.5529535,11.999376 9.3125623,12.130457 C 9.0940132,12.261627 8.7771259,12.32719 8.3618994,12.327146 C 7.7936824,12.32719 7.3456693,12.130502 7.0178586,11.737079 C 6.6900403,11.343747 6.5261331,10.830171 6.5261364,10.19635 C 6.5261331,9.3440783 6.744676,8.6884494 7.181766,8.2294606 C 7.6407023,7.7487145 8.274477,7.5083172 9.083092,7.508268 C 10.110238,7.5083172 10.962556,7.7487145 11.640048,8.2294606 C 14.306264,10.108979 16.393349,12.294409 17.901311,14.785757 C 19.409242,17.255335 20.206924,20.194738 20.294359,23.603976 L 39.307618,23.603976 C 39.438708,20.194738 40.247317,17.244408 41.733448,14.752975 C 43.241356,12.239773 45.317514,10.06527 47.961929,8.2294606 C 48.639368,7.7487145 49.469831,7.5083172 50.453322,7.508268 C 51.305592,7.5083172 51.961221,7.7487145 52.420211,8.2294606 C 52.900956,8.6884494 53.141353,9.3440783 53.141403,10.19635 C 53.141353,10.830171 52.977446,11.343747 52.649681,11.737079 C 52.343672,12.130502 51.895658,12.32719 51.30564,12.327146 C 50.912215,12.32719 50.606255,12.272554 50.387759,12.163238 C 50.169169,12.054011 49.863209,11.835468 49.469877,11.507609 C 49.098308,11.179839 48.814202,10.950369 48.617559,10.819198 C 48.420825,10.666263 48.180428,10.589773 47.896366,10.589727 C 46.759898,11.507654 45.929435,12.545733 45.404974,13.703968 C 44.880428,14.862289 44.541687,16.282818 44.388748,17.965561 C 44.257581,19.64838 44.192018,22.019572 44.192059,25.079142 C 44.192018,28.488445 44.290362,31.067252 44.487092,32.815572 C 44.705594,34.542085 45.06619,35.907979 45.568881,36.913257 C 46.093342,37.918575 46.86917,38.814601 47.896366,39.601339 C 48.202282,39.601356 48.683076,39.328177 49.338752,38.781802 C 50.016189,38.213608 50.671818,37.929502 51.30564,37.929483 C 51.895658,37.929502 52.343672,38.115263 52.649681,38.486768 C 52.977446,38.85831 53.141353,39.382813 53.141403,40.060279 C 53.141353,40.890759 52.911883,41.546388 52.452992,42.027168 C 51.994003,42.507978 51.327447,42.748375 50.453322,42.748361 C 49.447977,42.748375 48.617514,42.49705 47.961929,41.994387 C 45.317514,40.136786 43.241356,37.951356 41.733448,35.43809 C 40.225463,32.924867 39.394999,29.96361 39.242055,26.554309 L 34.390396,26.554309 C 33.822153,26.751028 33.538047,27.046061 33.538077,27.439409 L 33.538077,33.077824 C 33.538047,33.44937 33.701954,33.799039 34.0298,34.126831 C 34.357583,34.454668 34.729106,34.71692 35.14437,34.913587 C 35.55957,35.110297 36.051291,35.350695 36.619537,35.634779"
       id="kamala" />
  </g>
</svg>
