<?xml version="1.0" encoding="UTF-8" standalone="no"?>
<!-- Created with Inkscape (http://www.inkscape.org/) -->
<svg
   xmlns:dc="http://purl.org/dc/elements/1.1/"
   xmlns:cc="http://creativecommons.org/ns#"
   xmlns:rdf="http://www.w3.org/1999/02/22-rdf-syntax-ns#"
   xmlns:svg="http://www.w3.org/2000/svg"
   xmlns="http://www.w3.org/2000/svg"
   xmlns:sodipodi="http://sodipodi.sourceforge.net/DTD/sodipodi-0.dtd"
   xmlns:inkscape="http://www.inkscape.org/namespaces/inkscape"
   width="64px"
   height="64px"
   id="svg2383"
   sodipodi:version="0.32"
   inkscape:version="0.46"
   sodipodi:docname="vesta.svg"
   inkscape:output_extension="org.inkscape.output.svg.inkscape">
  <defs
     id="defs2385">
    <inkscape:perspective
       sodipodi:type="inkscape:persp3d"
       inkscape:vp_x="0 : 32 : 1"
       inkscape:vp_y="0 : 1000 : 0"
       inkscape:vp_z="64 : 32 : 1"
       inkscape:persp3d-origin="32 : 21.333333 : 1"
       id="perspective2391" />
  </defs>
  <sodipodi:namedview
     id="base"
     pagecolor="#ffffff"
     bordercolor="#666666"
     borderopacity="1.0"
     inkscape:pageopacity="0.0"
     inkscape:pageshadow="2"
     inkscape:zoom="5.5"
     inkscape:cx="15.829545"
     inkscape:cy="32"
     inkscape:current-layer="layer1"
     showgrid="true"
     inkscape:document-units="px"
     inkscape:grid-bbox="true"
     inkscape:window-width="1280"
     inkscape:window-height="970"
     inkscape:window-x="-4"
     inkscape:window-y="27" />
  <metadata
     id="metadata2388">
    <rdf:RDF>
      <cc:Work
         rdf:about="">
        <dc:format>image/svg+xml</dc:format>
        <dc:type
           rdf:resource="http://purl.org/dc/dcmitype/StillImage" />
      </cc:Work>
    </rdf:RDF>
  </metadata>
  <g
     id="layer1"
     inkscape:label="Layer 1"
     inkscape:groupmode="layer">
    <path
       transform="scale(1.0592379,0.944075)"
       style="font-size:66.62528229px;font-style:normal;font-variant:normal;font-weight:normal;font-stretch:normal;text-align:start;line-height:125%;writing-mode:lr-tb;text-anchor:start;fill:#ff00ff;fill-opacity:1;stroke:none;stroke-width:1px;stroke-linecap:butt;stroke-linejoin:miter;stroke-opacity:1;font-family:StarFont Serif;-inkscape-font-specification:StarFont Serif"
       d="M 30.259197,34.871569 C 30.280858,34.849902 30.67124,34.372768 31.430345,33.440166 C 32.189393,32.485921 32.991845,31.553342 33.837704,30.642425 C 34.683501,29.731559 35.551017,28.918263 36.440254,28.202534 C 37.351112,27.465174 38.14272,27.04226 38.815081,26.933791 C 39.400618,26.52175 40.25729,26.283183 41.385099,26.21809 C 43.120092,26.21812 43.987608,26.98804 43.987649,28.527853 C 43.96592,29.070078 43.71651,29.601431 43.239416,30.121915 C 42.78393,30.620762 42.328484,30.870173 41.873077,30.870148 C 41.482656,30.826797 41.016367,30.523167 40.474206,29.959256 C 39.95366,29.373708 39.639185,29.080922 39.530782,29.080895 C 39.422306,29.080922 39.335555,29.145986 39.270527,29.276086 C 38.381287,29.883374 37.416176,30.989457 36.37519,32.594338 C 35.355826,34.199265 34.195523,36.205396 32.894279,38.612735 C 31.614664,40.998421 30.736304,42.527417 30.259197,43.199729 C 29.890476,42.679232 29.359123,41.811717 28.665135,40.597179 C 27.992785,39.360984 27.146957,37.853676 26.127649,36.075248 C 25.129983,34.296861 24.208247,32.832928 23.36244,31.683445 C 22.538279,30.512323 21.779203,29.731559 21.085208,29.34115 C 20.976751,29.167673 20.868311,29.080922 20.759889,29.080895 C 20.608057,29.080922 20.271894,29.352021 19.751401,29.894192 C 19.230875,30.436415 18.742898,30.718358 18.287467,30.740021 C 17.875382,30.740046 17.452468,30.490635 17.018724,29.991787 C 16.60664,29.492992 16.400605,28.961638 16.400618,28.397726 C 16.400605,26.944664 17.268121,26.21812 19.003168,26.21809 C 20.087547,26.283183 20.955063,26.543438 21.605718,26.998855 C 22.3214,27.129011 23.113009,27.530237 23.980545,28.202534 C 24.84804,28.874887 25.737244,29.699027 26.648159,30.674957 C 27.559027,31.650937 28.25304,32.442546 28.730199,33.049784 C 29.228995,33.63538 29.738661,34.242641 30.259197,34.871569 M 30.259197,49.185594 C 31.08331,48.079518 32.308676,46.420394 33.935299,44.208217 C 35.583549,41.996064 37.416176,39.87065 39.433186,37.83197 C 41.450125,35.771638 43.261064,34.600491 44.86601,34.318527 C 45.906987,33.646224 47.392608,33.27753 49.322877,33.212443 C 50.190346,33.212466 50.981955,33.342593 51.697704,33.602826 C 52.413356,33.863103 52.944709,34.253485 53.291766,34.773973 C 53.638722,35.294504 53.801381,35.988517 53.779744,36.856013 C 53.71463,37.484981 53.486907,38.092242 53.096574,38.677798 C 52.706142,39.241701 52.218165,39.718835 51.63264,40.109201 C 51.068706,40.477911 50.548197,40.662258 50.07111,40.662243 C 49.550554,40.597194 49.105952,40.412847 48.737303,40.109201 C 48.390251,39.783898 47.923961,39.295921 47.338432,38.645266 C 46.752815,37.994647 46.351589,37.669329 46.134753,37.66931 C 46.026271,37.669329 45.896143,37.777768 45.74437,37.994629 C 44.139424,39.013978 42.4803,40.770698 40.766993,43.264793 C 39.0753,45.737226 37.06917,48.979566 34.748596,52.991824 C 32.42796,56.9824 30.931495,59.443976 30.259197,60.37656 C 29.521782,59.422288 28.30726,57.524597 26.615627,54.683481 C 24.945636,51.842368 23.557611,49.489232 22.451547,47.624064 C 21.345445,45.758914 20.065859,43.893755 18.612786,42.028582 C 17.181369,40.163437 15.804188,38.862163 14.481237,38.124756 C 14.286035,37.86452 14.112532,37.734392 13.960727,37.734374 C 13.743838,37.734392 13.3643,38.005491 12.822112,38.547671 C 12.279905,39.089886 11.781083,39.534488 11.325645,39.881478 C 10.891879,40.206812 10.37137,40.380315 9.7641153,40.401988 C 9.0700962,40.402003 8.3652396,40.022465 7.6495434,39.263372 C 6.9555264,38.482625 6.60852,37.636797 6.6085234,36.725886 C 6.60852,34.383612 8.0616091,33.212466 10.967795,33.212443 C 12.89801,33.27753 14.383631,33.667912 15.424662,34.383591 C 16.639172,34.557115 18.005509,35.305348 19.523678,36.62829 C 21.063503,37.951271 22.527436,39.436892 23.915481,41.085157 C 25.303486,42.733452 26.669824,44.468484 28.014498,46.290257 C 29.380811,48.090362 30.129043,49.055474 30.259197,49.185594 M 33.609981,15.482571 L 33.609981,25.795175 C 33.60995,25.990397 33.71839,26.185588 33.935299,26.380749 C 34.152148,26.57597 34.401558,26.673565 34.683532,26.673536 L 34.683532,27.324174 L 25.932458,27.324174 L 25.932458,26.673536 C 26.19269,26.673565 26.442101,26.586814 26.680691,26.413281 C 26.940922,26.21812 27.07105,26.012085 27.071073,25.795175 L 27.071073,15.482571 L 27.071073,13.205339 C 27.07105,11.925796 26.951766,10.982373 26.713223,10.375066 C 26.49632,9.7678507 25.975811,9.3232488 25.151693,9.0412592 C 24.349219,8.7376756 23.102165,8.5750164 21.410527,8.5532811 L 21.410527,7.4146654 L 39.335591,7.4146654 L 39.335591,8.5532811 C 37.622211,8.5750164 36.353469,8.7376756 35.529361,9.0412592 C 34.705189,9.3232488 34.173836,9.7678507 33.935299,10.375066 C 33.71839,10.982373 33.60995,11.925796 33.609981,13.205339 L 33.609981,15.482571"
       id="kamala" />
  </g>
</svg>
