<?xml version="1.0" encoding="UTF-8" standalone="no"?>
<!-- Created with Inkscape (http://www.inkscape.org/) -->
<svg
   xmlns:dc="http://purl.org/dc/elements/1.1/"
   xmlns:cc="http://creativecommons.org/ns#"
   xmlns:rdf="http://www.w3.org/1999/02/22-rdf-syntax-ns#"
   xmlns:svg="http://www.w3.org/2000/svg"
   xmlns="http://www.w3.org/2000/svg"
   xmlns:sodipodi="http://sodipodi.sourceforge.net/DTD/sodipodi-0.dtd"
   xmlns:inkscape="http://www.inkscape.org/namespaces/inkscape"
   width="64px"
   height="64px"
   id="svg3188"
   sodipodi:version="0.32"
   inkscape:version="0.46"
   sodipodi:docname="zeus.svg"
   inkscape:output_extension="org.inkscape.output.svg.inkscape">
  <defs
     id="defs3190">
    <inkscape:perspective
       sodipodi:type="inkscape:persp3d"
       inkscape:vp_x="0 : 32 : 1"
       inkscape:vp_y="0 : 1000 : 0"
       inkscape:vp_z="64 : 32 : 1"
       inkscape:persp3d-origin="32 : 21.333333 : 1"
       id="perspective3196" />
  </defs>
  <sodipodi:namedview
     id="base"
     pagecolor="#ffffff"
     bordercolor="#666666"
     borderopacity="1.0"
     inkscape:pageopacity="0.0"
     inkscape:pageshadow="2"
     inkscape:zoom="5.5"
     inkscape:cx="-5.6863972"
     inkscape:cy="32"
     inkscape:current-layer="layer1"
     showgrid="true"
     inkscape:document-units="px"
     inkscape:grid-bbox="true"
     inkscape:window-width="1280"
     inkscape:window-height="970"
     inkscape:window-x="-4"
     inkscape:window-y="27" />
  <metadata
     id="metadata3193">
    <rdf:RDF>
      <cc:Work
         rdf:about="">
        <dc:format>image/svg+xml</dc:format>
        <dc:type
           rdf:resource="http://purl.org/dc/dcmitype/StillImage" />
      </cc:Work>
    </rdf:RDF>
  </metadata>
  <g
     id="layer1"
     inkscape:label="Layer 1"
     inkscape:groupmode="layer">
    <path
       transform="scale(1.2199628,0.8196971)"
       style="font-size:75.4828949px;font-style:normal;font-variant:normal;font-weight:normal;font-stretch:normal;text-align:start;line-height:125%;writing-mode:lr-tb;text-anchor:start;fill:#800080;fill-opacity:1;stroke:none;stroke-width:1px;stroke-linecap:butt;stroke-linejoin:miter;stroke-opacity:1;font-family:StarFont Serif;-inkscape-font-specification:StarFont Serif"
       d="M 22.950045,51.10944 L 22.950045,49.450881 L 13.920109,38.504387 C 13.600671,38.504413 13.232103,38.688697 12.814403,39.05724 C 12.396681,39.401263 12.003541,39.757545 11.634983,40.12609 C 11.290976,40.470111 10.922407,40.764966 10.529276,41.010655 C 10.136128,41.256391 9.6815601,41.379247 9.1655714,41.379224 C 8.3792849,41.379247 7.7404329,41.047535 7.2490136,40.384088 C 6.7575837,39.696117 6.5118714,38.84841 6.5118759,37.840963 C 6.5118714,36.538714 6.843583,35.494437 7.5070117,34.708128 C 8.1950006,33.921878 9.0918506,33.528739 10.197564,33.528708 C 11.794686,33.528739 13.07239,33.66388 14.03068,33.934133 C 15.013517,34.179876 15.848939,34.732729 16.536948,35.592693 L 22.950045,43.443209 L 22.950045,25.309623 C 22.950024,23.221108 22.704312,21.808262 22.212908,21.071081 C 18.699202,24.683096 15.799796,26.648794 13.514684,26.968183 C 12.654679,27.459645 11.352404,27.742214 9.607854,27.815891 C 8.502141,27.815928 7.5807199,27.607072 6.8435878,27.189324 C 6.1064461,26.747079 5.7378776,26.095941 5.7378814,25.235909 C 5.885305,24.425098 6.2538735,23.77396 6.8435878,23.282494 C 7.4578637,22.76654 8.1704294,22.508542 8.981287,22.5085 C 9.4481334,22.508542 9.8044162,22.631398 10.050137,22.877069 C 10.320412,23.098251 10.529268,23.380821 10.676704,23.724777 C 10.848694,24.068815 10.996121,24.240814 11.118986,24.240773 C 11.16812,24.240814 11.266404,24.1671 11.413841,24.019632 C 12.421252,23.503677 13.625243,22.594541 15.025816,21.292223 C 16.450934,19.965419 17.77778,18.589431 19.006359,17.164252 C 20.259475,15.714597 21.75832,13.920897 23.502899,11.783147 C 25.272006,9.6455028 26.168856,8.5643686 26.193451,8.5397414 C 26.85685,9.2032206 28.122268,10.665209 29.98971,12.92571 C 31.881667,15.161744 33.282227,16.795731 34.191394,17.827676 C 35.125069,18.859714 36.267631,20.014562 37.619085,21.292223 C 38.970467,22.545399 40.174457,23.429963 41.231059,23.945918 C 41.403018,24.191671 41.550446,24.314527 41.673342,24.314487 C 41.722444,24.314527 41.955871,24.056529 42.373622,23.540492 C 42.791293,23.024538 43.344146,22.754254 44.032182,22.729641 C 44.572707,22.729683 45.150131,22.999966 45.764456,23.540492 C 46.403264,24.056529 46.72269,24.646239 46.722734,25.309623 C 46.72269,26.169655 46.354121,26.820793 45.617028,27.263038 C 44.879847,27.680786 43.970712,27.86507 42.889619,27.815891 C 41.218734,27.742214 39.94103,27.435074 39.056503,26.894469 C 37.901618,26.77165 36.525629,26.132798 34.928532,24.977911 C 33.331369,23.823103 31.807953,22.520827 30.358279,21.071081 C 29.817683,21.709977 29.5474,23.122823 29.547427,25.309623 L 29.547427,43.185211 L 35.813097,35.592693 C 36.476487,34.732729 37.287337,34.179876 38.245652,33.934133 C 39.203893,33.66388 40.469312,33.528739 42.04191,33.528708 C 43.221289,33.528739 44.142711,33.934164 44.806177,34.744985 C 45.494128,35.531294 45.838125,36.563286 45.838169,37.840963 C 45.838125,38.823839 45.592413,39.659261 45.101032,40.347231 C 44.609564,41.035249 43.946141,41.379247 43.11076,41.379224 C 42.619294,41.379247 42.213869,41.280962 41.894483,41.084368 C 41.575017,40.887822 41.132735,40.519254 40.567635,39.978662 C 40.002458,39.413548 39.584747,39.032694 39.314501,38.836099 C 39.04418,38.614983 38.724754,38.504413 38.356222,38.504387 L 29.547427,49.229739 L 29.547427,51.293725 L 38.356222,62.055934 C 38.724754,62.055937 39.019609,61.969938 39.240787,61.797936 C 39.461891,61.62594 39.842745,61.269658 40.383351,60.729087 C 40.923879,60.188523 41.390733,59.807669 41.783912,59.586523 C 42.177012,59.340816 42.619294,59.21796 43.11076,59.217955 C 43.946141,59.21796 44.609564,59.549671 45.101032,60.21309 C 45.592413,60.876518 45.838125,61.724225 45.838169,62.756215 C 45.838125,64.107635 45.506414,65.164198 44.843033,65.925907 C 44.179567,66.687614 43.245861,67.068468 42.04191,67.06847 C 40.715024,67.068468 39.535605,66.933326 38.50365,66.663045 C 37.496193,66.41733 36.599343,65.839906 35.813097,64.930771 L 29.547427,57.301397 L 29.547427,63.64078 C 29.5474,65.090484 29.645685,66.171618 29.842282,66.884186 C 30.038824,67.596749 30.370536,68.075888 30.837418,68.321604 C 31.328814,68.591884 32.004523,68.727026 32.864547,68.72703 L 32.864547,69.537882 L 19.632926,69.537882 L 19.632926,68.72703 C 20.492901,68.727026 21.156325,68.591884 21.623198,68.321604 C 22.114603,68.075888 22.4586,67.596749 22.65519,66.884186 C 22.85174,66.171618 22.950024,65.090484 22.950045,63.64078 L 22.950045,57.153969 L 16.536948,64.930771 C 15.775225,65.815335 14.86609,66.392759 13.809539,66.663045 C 12.777535,66.933326 11.573545,67.068468 10.197564,67.06847 C 9.0672793,67.068468 8.1704294,66.687614 7.5070117,65.925907 C 6.843583,65.164198 6.5118714,64.107635 6.5118759,62.756215 C 6.5118714,61.724225 6.7575837,60.876518 7.2490136,60.21309 C 7.7404329,59.549671 8.3792849,59.21796 9.1655714,59.217955 C 9.6815601,59.21796 10.148413,59.340816 10.566133,59.586523 C 10.983835,59.832241 11.364689,60.151667 11.708696,60.544802 C 12.077255,60.913375 12.458109,61.257372 12.85126,61.576795 C 13.244388,61.896224 13.600671,62.055937 13.920109,62.055934 L 22.950045,51.10944"
       id="kamala" />
  </g>
</svg>
